<?xml version="1.0" encoding="UTF-8" standalone="no"?>
<!DOCTYPE svg PUBLIC "-//W3C//DTD SVG 1.1//EN"
 "http://www.w3.org/Graphics/SVG/1.1/DTD/svg11.dtd">
<!-- Generated by graphviz version 13.0.1 (20250615.1724)
 -->
<!-- Title: src/main/java/proj/selekcjanatur/AppController.java Pages: 1 -->
<svg width="1379pt" height="96pt"
 viewBox="0.00 0.00 1379.00 96.00" xmlns="http://www.w3.org/2000/svg" xmlns:xlink="http://www.w3.org/1999/xlink">
<g id="graph0" class="graph" transform="scale(1 1) rotate(0) translate(4 92)">
<title>src/main/java/proj/selekcjanatur/AppController.java</title>
<!-- Node1 -->
<g id="Node000001" class="node">
<title>Node1</title>
<g id="a_Node000001"><a xlink:title="Kontroler głównego interfejsu symulacji ewolucyjnej.">
<polygon fill="#999999" stroke="#666666" points="735.12,-88 575.12,-88 575.12,-56 735.12,-56 735.12,-88"/>
<text xml:space="preserve" text-anchor="start" x="583.12" y="-74.5" font-family="Helvetica,sans-Serif" font-size="10.00">src/main/java/proj</text>
<text xml:space="preserve" text-anchor="middle" x="655.12" y="-62.5" font-family="Helvetica,sans-Serif" font-size="10.00">/selekcjanatur/AppController.java</text>
</a>
</g>
</g>
<!-- Node2 -->
<g id="Node000002" class="node">
<title>Node2</title>
<g id="a_Node000002"><a xlink:title=" ">
<polygon fill="#e0e0e0" stroke="#999999" points="78.25,-20 0,-20 0,0 78.25,0 78.25,-20"/>
<text xml:space="preserve" text-anchor="middle" x="39.12" y="-6.5" font-family="Helvetica,sans-Serif" font-size="10.00">java.awt.Point</text>
</a>
</g>
</g>
<!-- Node1&#45;&gt;Node2 -->
<g id="edge1_Node000001_Node000002" class="edge">
<title>Node1&#45;&gt;Node2</title>
<g id="a_edge1_Node000001_Node000002"><a xlink:title=" ">
<path fill="none" stroke="#63b8ff" d="M574.9,-66.23C466.89,-59.26 268.57,-44.56 89.83,-20.26"/>
<polygon fill="#63b8ff" stroke="#63b8ff" points="90.51,-16.82 80.13,-18.92 89.56,-23.75 90.51,-16.82"/>
</a>
</g>
</g>
<!-- Node3 -->
<g id="Node000003" class="node">
<title>Node3</title>
<g id="a_Node000003"><a xlink:title=" ">
<polygon fill="#e0e0e0" stroke="#999999" points="187.62,-20 96.62,-20 96.62,0 187.62,0 187.62,-20"/>
<text xml:space="preserve" text-anchor="middle" x="142.12" y="-6.5" font-family="Helvetica,sans-Serif" font-size="10.00">java.util.HashSet</text>
</a>
</g>
</g>
<!-- Node1&#45;&gt;Node3 -->
<g id="edge2_Node000001_Node000003" class="edge">
<title>Node1&#45;&gt;Node3</title>
<g id="a_edge2_Node000001_Node000003"><a xlink:title=" ">
<path fill="none" stroke="#63b8ff" d="M574.95,-63.43C485.63,-54.69 336.66,-39.22 199.2,-20.37"/>
<polygon fill="#63b8ff" stroke="#63b8ff" points="199.94,-16.94 189.56,-19.04 198.98,-23.87 199.94,-16.94"/>
</a>
</g>
</g>
<!-- Node4 -->
<g id="Node000004" class="node">
<title>Node4</title>
<g id="a_Node000004"><a xlink:title=" ">
<polygon fill="#e0e0e0" stroke="#999999" points="273,-20 205.25,-20 205.25,0 273,0 273,-20"/>
<text xml:space="preserve" text-anchor="middle" x="239.12" y="-6.5" font-family="Helvetica,sans-Serif" font-size="10.00">java.util.Set</text>
</a>
</g>
</g>
<!-- Node1&#45;&gt;Node4 -->
<g id="edge3_Node000001_Node000004" class="edge">
<title>Node1&#45;&gt;Node4</title>
<g id="a_edge3_Node000001_Node000004"><a xlink:title=" ">
<path fill="none" stroke="#63b8ff" d="M574.84,-61.68C501.72,-52.82 390.52,-38.39 284.58,-20.32"/>
<polygon fill="#63b8ff" stroke="#63b8ff" points="285.29,-16.89 274.84,-18.65 284.1,-23.79 285.29,-16.89"/>
</a>
</g>
</g>
<!-- Node5 -->
<g id="Node000005" class="node">
<title>Node5</title>
<g id="a_Node000005"><a xlink:title=" ">
<polygon fill="#e0e0e0" stroke="#999999" points="426.75,-20 291.5,-20 291.5,0 426.75,0 426.75,-20"/>
<text xml:space="preserve" text-anchor="middle" x="359.12" y="-6.5" font-family="Helvetica,sans-Serif" font-size="10.00">javafx.animation.KeyFrame</text>
</a>
</g>
</g>
<!-- Node1&#45;&gt;Node5 -->
<g id="edge4_Node000001_Node000005" class="edge">
<title>Node1&#45;&gt;Node5</title>
<g id="a_edge4_Node000001_Node000005"><a xlink:title=" ">
<path fill="none" stroke="#63b8ff" d="M578.9,-55.55C528.42,-45.32 463.24,-32.1 417,-22.73"/>
<polygon fill="#63b8ff" stroke="#63b8ff" points="417.95,-19.35 407.46,-20.8 416.56,-26.21 417.95,-19.35"/>
</a>
</g>
</g>
<!-- Node6 -->
<g id="Node000006" class="node">
<title>Node6</title>
<g id="a_Node000006"><a xlink:title=" ">
<polygon fill="#e0e0e0" stroke="#999999" points="571.62,-20 444.62,-20 444.62,0 571.62,0 571.62,-20"/>
<text xml:space="preserve" text-anchor="middle" x="508.12" y="-6.5" font-family="Helvetica,sans-Serif" font-size="10.00">javafx.animation.Timeline</text>
</a>
</g>
</g>
<!-- Node1&#45;&gt;Node6 -->
<g id="edge5_Node000001_Node000006" class="edge">
<title>Node1&#45;&gt;Node6</title>
<g id="a_edge5_Node000001_Node000006"><a xlink:title=" ">
<path fill="none" stroke="#63b8ff" d="M617.27,-55.55C593.88,-46 564.12,-33.86 541.6,-24.66"/>
<polygon fill="#63b8ff" stroke="#63b8ff" points="543.16,-21.52 532.58,-20.98 540.51,-28 543.16,-21.52"/>
</a>
</g>
</g>
<!-- Node7 -->
<g id="Node000007" class="node">
<title>Node7</title>
<g id="a_Node000007"><a xlink:title=" ">
<polygon fill="#e0e0e0" stroke="#999999" points="720.88,-20 589.38,-20 589.38,0 720.88,0 720.88,-20"/>
<text xml:space="preserve" text-anchor="middle" x="655.12" y="-6.5" font-family="Helvetica,sans-Serif" font-size="10.00">javafx.application.Platform</text>
</a>
</g>
</g>
<!-- Node1&#45;&gt;Node7 -->
<g id="edge6_Node000001_Node000007" class="edge">
<title>Node1&#45;&gt;Node7</title>
<g id="a_edge6_Node000001_Node000007"><a xlink:title=" ">
<path fill="none" stroke="#63b8ff" d="M655.12,-55.55C655.12,-48.34 655.12,-39.66 655.12,-31.88"/>
<polygon fill="#63b8ff" stroke="#63b8ff" points="658.63,-31.92 655.13,-21.92 651.63,-31.92 658.63,-31.92"/>
</a>
</g>
</g>
<!-- Node8 -->
<g id="Node000008" class="node">
<title>Node8</title>
<g id="a_Node000008"><a xlink:title=" ">
<polygon fill="#e0e0e0" stroke="#999999" points="831.75,-20 738.5,-20 738.5,0 831.75,0 831.75,-20"/>
<text xml:space="preserve" text-anchor="middle" x="785.12" y="-6.5" font-family="Helvetica,sans-Serif" font-size="10.00">javafx.fxml.FXML</text>
</a>
</g>
</g>
<!-- Node1&#45;&gt;Node8 -->
<g id="edge7_Node000001_Node000008" class="edge">
<title>Node1&#45;&gt;Node8</title>
<g id="a_edge7_Node000001_Node000008"><a xlink:title=" ">
<path fill="none" stroke="#63b8ff" d="M688.6,-55.55C708.92,-46.17 734.65,-34.3 754.43,-25.17"/>
<polygon fill="#63b8ff" stroke="#63b8ff" points="755.75,-28.41 763.37,-21.04 752.82,-22.06 755.75,-28.41"/>
</a>
</g>
</g>
<!-- Node9 -->
<g id="Node000009" class="node">
<title>Node9</title>
<g id="a_Node000009"><a xlink:title=" ">
<polygon fill="#e0e0e0" stroke="#999999" points="976.62,-20 849.62,-20 849.62,0 976.62,0 976.62,-20"/>
<text xml:space="preserve" text-anchor="middle" x="913.12" y="-6.5" font-family="Helvetica,sans-Serif" font-size="10.00">javafx.scene.control.Alert</text>
</a>
</g>
</g>
<!-- Node1&#45;&gt;Node9 -->
<g id="edge8_Node000001_Node000009" class="edge">
<title>Node1&#45;&gt;Node9</title>
<g id="a_edge8_Node000001_Node000009"><a xlink:title=" ">
<path fill="none" stroke="#63b8ff" d="M721.57,-55.55C765.01,-45.45 820.94,-32.44 861.13,-23.09"/>
<polygon fill="#63b8ff" stroke="#63b8ff" points="861.87,-26.51 870.82,-20.84 860.28,-19.7 861.87,-26.51"/>
</a>
</g>
</g>
<!-- Node10 -->
<g id="Node000010" class="node">
<title>Node10</title>
<g id="a_Node000010"><a xlink:title=" ">
<polygon fill="#e0e0e0" stroke="#999999" points="1129.75,-20 994.5,-20 994.5,0 1129.75,0 1129.75,-20"/>
<text xml:space="preserve" text-anchor="middle" x="1062.12" y="-6.5" font-family="Helvetica,sans-Serif" font-size="10.00">javafx.scene.control.Button</text>
</a>
</g>
</g>
<!-- Node1&#45;&gt;Node10 -->
<g id="edge9_Node000001_Node000010" class="edge">
<title>Node1&#45;&gt;Node10</title>
<g id="a_edge9_Node000001_Node000010"><a xlink:title=" ">
<path fill="none" stroke="#63b8ff" d="M735.54,-59.15C808.54,-48.38 915.41,-32.63 986.79,-22.11"/>
<polygon fill="#63b8ff" stroke="#63b8ff" points="987.05,-25.61 996.43,-20.68 986.03,-18.68 987.05,-25.61"/>
</a>
</g>
</g>
<!-- Node11 -->
<g id="Node000011" class="node">
<title>Node11</title>
<g id="a_Node000011"><a xlink:title=" ">
<polygon fill="#e0e0e0" stroke="#999999" points="1254.88,-20 1147.38,-20 1147.38,0 1254.88,0 1254.88,-20"/>
<text xml:space="preserve" text-anchor="middle" x="1201.12" y="-6.5" font-family="Helvetica,sans-Serif" font-size="10.00">javafx.scene.layout.*</text>
</a>
</g>
</g>
<!-- Node1&#45;&gt;Node11 -->
<g id="edge10_Node000001_Node000011" class="edge">
<title>Node1&#45;&gt;Node11</title>
<g id="a_edge10_Node000001_Node000011"><a xlink:title=" ">
<path fill="none" stroke="#63b8ff" d="M735.31,-63.52C829.06,-54.56 989.17,-38.57 1136.04,-20.35"/>
<polygon fill="#63b8ff" stroke="#63b8ff" points="1136.05,-23.88 1145.54,-19.17 1135.18,-16.93 1136.05,-23.88"/>
</a>
</g>
</g>
<!-- Node12 -->
<g id="Node000012" class="node">
<title>Node12</title>
<g id="a_Node000012"><a xlink:title=" ">
<polygon fill="#e0e0e0" stroke="#999999" points="1371,-20 1273.25,-20 1273.25,0 1371,0 1371,-20"/>
<text xml:space="preserve" text-anchor="middle" x="1322.12" y="-6.5" font-family="Helvetica,sans-Serif" font-size="10.00">javafx.util.Duration</text>
</a>
</g>
</g>
<!-- Node1&#45;&gt;Node12 -->
<g id="edge11_Node000001_Node000012" class="edge">
<title>Node1&#45;&gt;Node12</title>
<g id="a_edge11_Node000001_Node000012"><a xlink:title=" ">
<path fill="none" stroke="#63b8ff" d="M735.6,-66.07C850.09,-58.66 1066.83,-43.14 1261.49,-20.24"/>
<polygon fill="#63b8ff" stroke="#63b8ff" points="1261.78,-23.73 1271.29,-19.07 1260.95,-16.78 1261.78,-23.73"/>
</a>
</g>
</g>
</g>
</svg>
