<?xml version="1.0" encoding="UTF-8" standalone="no"?>
<!DOCTYPE svg PUBLIC "-//W3C//DTD SVG 1.1//EN"
 "http://www.w3.org/Graphics/SVG/1.1/DTD/svg11.dtd">
<!-- Generated by graphviz version 13.0.1 (20250615.1724)
 -->
<!-- Title: src/main/java/proj/selekcjanatur/AppController.java Pages: 1 -->
<svg width="1088pt" height="96pt"
 viewBox="0.00 0.00 1088.00 96.00" xmlns="http://www.w3.org/2000/svg" xmlns:xlink="http://www.w3.org/1999/xlink">
<g id="graph0" class="graph" transform="scale(1 1) rotate(0) translate(4 92)">
<title>src/main/java/proj/selekcjanatur/AppController.java</title>
<!-- Node1 -->
<g id="Node000001" class="node">
<title>Node1</title>
<g id="a_Node000001"><a xlink:title="Kontroler głównego interfejsu symulacji ewolucyjnej.">
<polygon fill="#999999" stroke="#666666" points="637.62,-88 477.62,-88 477.62,-56 637.62,-56 637.62,-88"/>
<text xml:space="preserve" text-anchor="start" x="485.62" y="-74.5" font-family="Helvetica,sans-Serif" font-size="10.00">src/main/java/proj</text>
<text xml:space="preserve" text-anchor="middle" x="557.62" y="-62.5" font-family="Helvetica,sans-Serif" font-size="10.00">/selekcjanatur/AppController.java</text>
</a>
</g>
</g>
<!-- Node2 -->
<g id="Node000002" class="node">
<title>Node2</title>
<g id="a_Node000002"><a xlink:title=" ">
<polygon fill="#e0e0e0" stroke="#999999" points="135.25,-20 0,-20 0,0 135.25,0 135.25,-20"/>
<text xml:space="preserve" text-anchor="middle" x="67.62" y="-6.5" font-family="Helvetica,sans-Serif" font-size="10.00">javafx.animation.KeyFrame</text>
</a>
</g>
</g>
<!-- Node1&#45;&gt;Node2 -->
<g id="edge1_Node000001_Node000002" class="edge">
<title>Node1&#45;&gt;Node2</title>
<g id="a_edge1_Node000001_Node000002"><a xlink:title=" ">
<path fill="none" stroke="#63b8ff" d="M477.26,-61.16C385.87,-49.97 237.6,-31.81 146.73,-20.69"/>
<polygon fill="#63b8ff" stroke="#63b8ff" points="147.25,-17.22 136.9,-19.48 146.4,-24.17 147.25,-17.22"/>
</a>
</g>
</g>
<!-- Node3 -->
<g id="Node000003" class="node">
<title>Node3</title>
<g id="a_Node000003"><a xlink:title=" ">
<polygon fill="#e0e0e0" stroke="#999999" points="280.12,-20 153.12,-20 153.12,0 280.12,0 280.12,-20"/>
<text xml:space="preserve" text-anchor="middle" x="216.62" y="-6.5" font-family="Helvetica,sans-Serif" font-size="10.00">javafx.animation.Timeline</text>
</a>
</g>
</g>
<!-- Node1&#45;&gt;Node3 -->
<g id="edge2_Node000001_Node000003" class="edge">
<title>Node1&#45;&gt;Node3</title>
<g id="a_edge2_Node000001_Node000003"><a xlink:title=" ">
<path fill="none" stroke="#63b8ff" d="M477.24,-56.86C417.56,-46.36 337.2,-32.22 281.56,-22.43"/>
<polygon fill="#63b8ff" stroke="#63b8ff" points="282.38,-19.02 271.92,-20.73 281.16,-25.91 282.38,-19.02"/>
</a>
</g>
</g>
<!-- Node4 -->
<g id="Node000004" class="node">
<title>Node4</title>
<g id="a_Node000004"><a xlink:title=" ">
<polygon fill="#e0e0e0" stroke="#999999" points="429.38,-20 297.88,-20 297.88,0 429.38,0 429.38,-20"/>
<text xml:space="preserve" text-anchor="middle" x="363.62" y="-6.5" font-family="Helvetica,sans-Serif" font-size="10.00">javafx.application.Platform</text>
</a>
</g>
</g>
<!-- Node1&#45;&gt;Node4 -->
<g id="edge3_Node000001_Node000004" class="edge">
<title>Node1&#45;&gt;Node4</title>
<g id="a_edge3_Node000001_Node000004"><a xlink:title=" ">
<path fill="none" stroke="#63b8ff" d="M507.67,-55.55C475.91,-45.73 435.28,-33.16 405.27,-23.88"/>
<polygon fill="#63b8ff" stroke="#63b8ff" points="406.36,-20.55 395.78,-20.94 404.3,-27.24 406.36,-20.55"/>
</a>
</g>
</g>
<!-- Node5 -->
<g id="Node000005" class="node">
<title>Node5</title>
<g id="a_Node000005"><a xlink:title=" ">
<polygon fill="#e0e0e0" stroke="#999999" points="540.25,-20 447,-20 447,0 540.25,0 540.25,-20"/>
<text xml:space="preserve" text-anchor="middle" x="493.62" y="-6.5" font-family="Helvetica,sans-Serif" font-size="10.00">javafx.fxml.FXML</text>
</a>
</g>
</g>
<!-- Node1&#45;&gt;Node5 -->
<g id="edge4_Node000001_Node000005" class="edge">
<title>Node1&#45;&gt;Node5</title>
<g id="a_edge4_Node000001_Node000005"><a xlink:title=" ">
<path fill="none" stroke="#63b8ff" d="M541.14,-55.55C532.16,-47.13 521.03,-36.69 511.8,-28.04"/>
<polygon fill="#63b8ff" stroke="#63b8ff" points="514.45,-25.73 504.76,-21.44 509.67,-30.84 514.45,-25.73"/>
</a>
</g>
</g>
<!-- Node6 -->
<g id="Node000006" class="node">
<title>Node6</title>
<g id="a_Node000006"><a xlink:title=" ">
<polygon fill="#e0e0e0" stroke="#999999" points="685.12,-20 558.12,-20 558.12,0 685.12,0 685.12,-20"/>
<text xml:space="preserve" text-anchor="middle" x="621.62" y="-6.5" font-family="Helvetica,sans-Serif" font-size="10.00">javafx.scene.control.Alert</text>
</a>
</g>
</g>
<!-- Node1&#45;&gt;Node6 -->
<g id="edge5_Node000001_Node000006" class="edge">
<title>Node1&#45;&gt;Node6</title>
<g id="a_edge5_Node000001_Node000006"><a xlink:title=" ">
<path fill="none" stroke="#63b8ff" d="M574.11,-55.55C583.09,-47.13 594.22,-36.69 603.45,-28.04"/>
<polygon fill="#63b8ff" stroke="#63b8ff" points="605.58,-30.84 610.49,-21.44 600.8,-25.73 605.58,-30.84"/>
</a>
</g>
</g>
<!-- Node7 -->
<g id="Node000007" class="node">
<title>Node7</title>
<g id="a_Node000007"><a xlink:title=" ">
<polygon fill="#e0e0e0" stroke="#999999" points="838.25,-20 703,-20 703,0 838.25,0 838.25,-20"/>
<text xml:space="preserve" text-anchor="middle" x="770.62" y="-6.5" font-family="Helvetica,sans-Serif" font-size="10.00">javafx.scene.control.Button</text>
</a>
</g>
</g>
<!-- Node1&#45;&gt;Node7 -->
<g id="edge6_Node000001_Node000007" class="edge">
<title>Node1&#45;&gt;Node7</title>
<g id="a_edge6_Node000001_Node000007"><a xlink:title=" ">
<path fill="none" stroke="#63b8ff" d="M612.48,-55.55C647.81,-45.6 693.14,-32.83 726.2,-23.51"/>
<polygon fill="#63b8ff" stroke="#63b8ff" points="726.78,-26.99 735.46,-20.91 724.88,-20.25 726.78,-26.99"/>
</a>
</g>
</g>
<!-- Node8 -->
<g id="Node000008" class="node">
<title>Node8</title>
<g id="a_Node000008"><a xlink:title=" ">
<polygon fill="#e0e0e0" stroke="#999999" points="963.38,-20 855.88,-20 855.88,0 963.38,0 963.38,-20"/>
<text xml:space="preserve" text-anchor="middle" x="909.62" y="-6.5" font-family="Helvetica,sans-Serif" font-size="10.00">javafx.scene.layout.*</text>
</a>
</g>
</g>
<!-- Node1&#45;&gt;Node8 -->
<g id="edge7_Node000001_Node000008" class="edge">
<title>Node1&#45;&gt;Node8</title>
<g id="a_edge7_Node000001_Node000008"><a xlink:title=" ">
<path fill="none" stroke="#63b8ff" d="M637.94,-57.31C700.43,-46.66 786.04,-32.07 844.35,-22.13"/>
<polygon fill="#63b8ff" stroke="#63b8ff" points="844.87,-25.59 854.14,-20.46 843.69,-18.69 844.87,-25.59"/>
</a>
</g>
</g>
<!-- Node9 -->
<g id="Node000009" class="node">
<title>Node9</title>
<g id="a_Node000009"><a xlink:title=" ">
<polygon fill="#e0e0e0" stroke="#999999" points="1079.5,-20 981.75,-20 981.75,0 1079.5,0 1079.5,-20"/>
<text xml:space="preserve" text-anchor="middle" x="1030.62" y="-6.5" font-family="Helvetica,sans-Serif" font-size="10.00">javafx.util.Duration</text>
</a>
</g>
</g>
<!-- Node1&#45;&gt;Node9 -->
<g id="edge8_Node000001_Node000009" class="edge">
<title>Node1&#45;&gt;Node9</title>
<g id="a_edge8_Node000001_Node000009"><a xlink:title=" ">
<path fill="none" stroke="#63b8ff" d="M638.06,-61.88C719.2,-52.51 848.39,-37.11 969.92,-20.34"/>
<polygon fill="#63b8ff" stroke="#63b8ff" points="970.36,-23.81 979.78,-18.97 969.39,-16.88 970.36,-23.81"/>
</a>
</g>
</g>
</g>
</svg>
