<?xml version="1.0" encoding="UTF-8" standalone="no"?>
<!DOCTYPE svg PUBLIC "-//W3C//DTD SVG 1.1//EN"
 "http://www.w3.org/Graphics/SVG/1.1/DTD/svg11.dtd">
<!-- Generated by graphviz version 13.0.1 (20250615.1724)
 -->
<!-- Title: src/main/java/proj/selekcjanatur/App.java Pages: 1 -->
<svg width="781pt" height="96pt"
 viewBox="0.00 0.00 781.00 96.00" xmlns="http://www.w3.org/2000/svg" xmlns:xlink="http://www.w3.org/1999/xlink">
<g id="graph0" class="graph" transform="scale(1 1) rotate(0) translate(4 92)">
<title>src/main/java/proj/selekcjanatur/App.java</title>
<!-- Node1 -->
<g id="Node000001" class="node">
<title>Node1</title>
<g id="a_Node000001"><a xlink:title="Główna klasa aplikacji odpowiedzialna za uruchomienie symulacji.">
<polygon fill="#999999" stroke="#666666" points="477.38,-88 359.38,-88 359.38,-56 477.38,-56 477.38,-88"/>
<text xml:space="preserve" text-anchor="start" x="367.38" y="-74.5" font-family="Helvetica,sans-Serif" font-size="10.00">src/main/java/proj</text>
<text xml:space="preserve" text-anchor="middle" x="418.38" y="-62.5" font-family="Helvetica,sans-Serif" font-size="10.00">/selekcjanatur/App.java</text>
</a>
</g>
</g>
<!-- Node2 -->
<g id="Node000002" class="node">
<title>Node2</title>
<g id="a_Node000002"><a xlink:title=" ">
<polygon fill="#e0e0e0" stroke="#999999" points="142.75,-20 0,-20 0,0 142.75,0 142.75,-20"/>
<text xml:space="preserve" text-anchor="middle" x="71.38" y="-6.5" font-family="Helvetica,sans-Serif" font-size="10.00">javafx.application.Application</text>
</a>
</g>
</g>
<!-- Node1&#45;&gt;Node2 -->
<g id="edge1_Node000001_Node000002" class="edge">
<title>Node1&#45;&gt;Node2</title>
<g id="a_edge1_Node000001_Node000002"><a xlink:title=" ">
<path fill="none" stroke="#63b8ff" d="M359.12,-60.75C297.49,-50.1 201.24,-33.46 137.26,-22.39"/>
<polygon fill="#63b8ff" stroke="#63b8ff" points="138.04,-18.98 127.59,-20.72 136.85,-25.87 138.04,-18.98"/>
</a>
</g>
</g>
<!-- Node3 -->
<g id="Node000003" class="node">
<title>Node3</title>
<g id="a_Node000003"><a xlink:title=" ">
<polygon fill="#e0e0e0" stroke="#999999" points="283.62,-20 161.12,-20 161.12,0 283.62,0 283.62,-20"/>
<text xml:space="preserve" text-anchor="middle" x="222.38" y="-6.5" font-family="Helvetica,sans-Serif" font-size="10.00">javafx.fxml.FXMLLoader</text>
</a>
</g>
</g>
<!-- Node1&#45;&gt;Node3 -->
<g id="edge2_Node000001_Node000003" class="edge">
<title>Node1&#45;&gt;Node3</title>
<g id="a_edge2_Node000001_Node000003"><a xlink:title=" ">
<path fill="none" stroke="#63b8ff" d="M367.9,-55.55C335.68,-45.68 294.4,-33.05 264.05,-23.76"/>
<polygon fill="#63b8ff" stroke="#63b8ff" points="265.43,-20.52 254.84,-20.94 263.38,-27.21 265.43,-20.52"/>
</a>
</g>
</g>
<!-- Node4 -->
<g id="Node000004" class="node">
<title>Node4</title>
<g id="a_Node000004"><a xlink:title=" ">
<polygon fill="#e0e0e0" stroke="#999999" points="403.5,-20 301.25,-20 301.25,0 403.5,0 403.5,-20"/>
<text xml:space="preserve" text-anchor="middle" x="352.38" y="-6.5" font-family="Helvetica,sans-Serif" font-size="10.00">javafx.scene.Scene</text>
</a>
</g>
</g>
<!-- Node1&#45;&gt;Node4 -->
<g id="edge3_Node000001_Node000004" class="edge">
<title>Node1&#45;&gt;Node4</title>
<g id="a_edge3_Node000001_Node000004"><a xlink:title=" ">
<path fill="none" stroke="#63b8ff" d="M401.38,-55.55C392.12,-47.13 380.64,-36.69 371.11,-28.04"/>
<polygon fill="#63b8ff" stroke="#63b8ff" points="373.6,-25.56 363.84,-21.43 368.89,-30.74 373.6,-25.56"/>
</a>
</g>
</g>
<!-- Node5 -->
<g id="Node000005" class="node">
<title>Node5</title>
<g id="a_Node000005"><a xlink:title=" ">
<polygon fill="#e0e0e0" stroke="#999999" points="549.25,-20 421.5,-20 421.5,0 549.25,0 549.25,-20"/>
<text xml:space="preserve" text-anchor="middle" x="485.38" y="-6.5" font-family="Helvetica,sans-Serif" font-size="10.00">javafx.scene.layout.VBox</text>
</a>
</g>
</g>
<!-- Node1&#45;&gt;Node5 -->
<g id="edge4_Node000001_Node000005" class="edge">
<title>Node1&#45;&gt;Node5</title>
<g id="a_edge4_Node000001_Node000005"><a xlink:title=" ">
<path fill="none" stroke="#63b8ff" d="M435.63,-55.55C445.03,-47.13 456.69,-36.69 466.35,-28.04"/>
<polygon fill="#63b8ff" stroke="#63b8ff" points="468.63,-30.7 473.74,-21.42 463.96,-25.48 468.63,-30.7"/>
</a>
</g>
</g>
<!-- Node6 -->
<g id="Node000006" class="node">
<title>Node6</title>
<g id="a_Node000006"><a xlink:title=" ">
<polygon fill="#e0e0e0" stroke="#999999" points="665.25,-20 567.5,-20 567.5,0 665.25,0 665.25,-20"/>
<text xml:space="preserve" text-anchor="middle" x="616.38" y="-6.5" font-family="Helvetica,sans-Serif" font-size="10.00">javafx.stage.Stage</text>
</a>
</g>
</g>
<!-- Node1&#45;&gt;Node6 -->
<g id="edge5_Node000001_Node000006" class="edge">
<title>Node1&#45;&gt;Node6</title>
<g id="a_edge5_Node000001_Node000006"><a xlink:title=" ">
<path fill="none" stroke="#63b8ff" d="M469.36,-55.55C501.92,-45.68 543.61,-33.05 574.28,-23.76"/>
<polygon fill="#63b8ff" stroke="#63b8ff" points="575.03,-27.18 583.59,-20.94 573,-20.49 575.03,-27.18"/>
</a>
</g>
</g>
<!-- Node7 -->
<g id="Node000007" class="node">
<title>Node7</title>
<g id="a_Node000007"><a xlink:title=" ">
<polygon fill="#e0e0e0" stroke="#999999" points="773.12,-20 683.62,-20 683.62,0 773.12,0 773.12,-20"/>
<text xml:space="preserve" text-anchor="middle" x="728.38" y="-6.5" font-family="Helvetica,sans-Serif" font-size="10.00">java.util.Random</text>
</a>
</g>
</g>
<!-- Node1&#45;&gt;Node7 -->
<g id="edge6_Node000001_Node000007" class="edge">
<title>Node1&#45;&gt;Node7</title>
<g id="a_edge6_Node000001_Node000007"><a xlink:title=" ">
<path fill="none" stroke="#63b8ff" d="M477.78,-59.5C533.75,-48.67 617,-32.56 671.97,-21.92"/>
<polygon fill="#63b8ff" stroke="#63b8ff" points="672.61,-25.36 681.76,-20.02 671.28,-18.49 672.61,-25.36"/>
</a>
</g>
</g>
</g>
</svg>
