<?xml version="1.0" encoding="UTF-8" standalone="no"?>
<!DOCTYPE svg PUBLIC "-//W3C//DTD SVG 1.1//EN"
 "http://www.w3.org/Graphics/SVG/1.1/DTD/svg11.dtd">
<!-- Generated by graphviz version 13.0.1 (20250615.1724)
 -->
<!-- Title: src/main/java/proj/selekcjanatur/InterfejsSymulacji.java Pages: 1 -->
<svg width="187pt" height="96pt"
 viewBox="0.00 0.00 187.00 96.00" xmlns="http://www.w3.org/2000/svg" xmlns:xlink="http://www.w3.org/1999/xlink">
<g id="graph0" class="graph" transform="scale(1 1) rotate(0) translate(4 92)">
<title>src/main/java/proj/selekcjanatur/InterfejsSymulacji.java</title>
<!-- Node1 -->
<g id="Node000001" class="node">
<title>Node1</title>
<g id="a_Node000001"><a xlink:title="Interfejs definiujący podstawowe operacje symulacji ewolucyjnej.">
<polygon fill="#999999" stroke="#666666" points="178.75,-88 0,-88 0,-56 178.75,-56 178.75,-88"/>
<text xml:space="preserve" text-anchor="start" x="8" y="-74.5" font-family="Helvetica,sans-Serif" font-size="10.00">src/main/java/proj</text>
<text xml:space="preserve" text-anchor="middle" x="89.38" y="-62.5" font-family="Helvetica,sans-Serif" font-size="10.00">/selekcjanatur/InterfejsSymulacji.java</text>
</a>
</g>
</g>
<!-- Node2 -->
<g id="Node000002" class="node">
<title>Node2</title>
<g id="a_Node000002"><a xlink:title=" ">
<polygon fill="#e0e0e0" stroke="#999999" points="80.62,-20 12.12,-20 12.12,0 80.62,0 80.62,-20"/>
<text xml:space="preserve" text-anchor="middle" x="46.38" y="-6.5" font-family="Helvetica,sans-Serif" font-size="10.00">java.util.List</text>
</a>
</g>
</g>
<!-- Node1&#45;&gt;Node2 -->
<g id="edge1_Node000001_Node000002" class="edge">
<title>Node1&#45;&gt;Node2</title>
<g id="a_edge1_Node000001_Node000002"><a xlink:title=" ">
<path fill="none" stroke="#63b8ff" d="M78.3,-55.55C72.64,-47.65 65.71,-37.97 59.75,-29.66"/>
<polygon fill="#63b8ff" stroke="#63b8ff" points="62.67,-27.73 54,-21.64 56.98,-31.81 62.67,-27.73"/>
</a>
</g>
</g>
<!-- Node3 -->
<g id="Node000003" class="node">
<title>Node3</title>
<g id="a_Node000003"><a xlink:title=" ">
<polygon fill="#e0e0e0" stroke="#999999" points="166.25,-20 98.5,-20 98.5,0 166.25,0 166.25,-20"/>
<text xml:space="preserve" text-anchor="middle" x="132.38" y="-6.5" font-family="Helvetica,sans-Serif" font-size="10.00">java.util.Set</text>
</a>
</g>
</g>
<!-- Node1&#45;&gt;Node3 -->
<g id="edge2_Node000001_Node000003" class="edge">
<title>Node1&#45;&gt;Node3</title>
<g id="a_edge2_Node000001_Node000003"><a xlink:title=" ">
<path fill="none" stroke="#63b8ff" d="M100.45,-55.55C106.11,-47.65 113.04,-37.97 119,-29.66"/>
<polygon fill="#63b8ff" stroke="#63b8ff" points="121.77,-31.81 124.75,-21.64 116.08,-27.73 121.77,-31.81"/>
</a>
</g>
</g>
</g>
</svg>
