<?xml version="1.0" encoding="UTF-8" standalone="no"?>
<!DOCTYPE svg PUBLIC "-//W3C//DTD SVG 1.1//EN"
 "http://www.w3.org/Graphics/SVG/1.1/DTD/svg11.dtd">
<!-- Generated by graphviz version 13.0.1 (20250615.1724)
 -->
<!-- Title: src/main/java/proj/selekcjanatur/StartController.java Pages: 1 -->
<svg width="1928pt" height="108pt"
 viewBox="0.00 0.00 1928.00 108.00" xmlns="http://www.w3.org/2000/svg" xmlns:xlink="http://www.w3.org/1999/xlink">
<g id="graph0" class="graph" transform="scale(1 1) rotate(0) translate(4 104)">
<title>src/main/java/proj/selekcjanatur/StartController.java</title>
<!-- Node1 -->
<g id="Node000001" class="node">
<title>Node1</title>
<g id="a_Node000001"><a xlink:title="Kontroler ekranu startowego symulacji.">
<polygon fill="#999999" stroke="#666666" points="1118.5,-100 954.75,-100 954.75,-68 1118.5,-68 1118.5,-100"/>
<text xml:space="preserve" text-anchor="start" x="962.75" y="-86.5" font-family="Helvetica,sans-Serif" font-size="10.00">src/main/java/proj</text>
<text xml:space="preserve" text-anchor="middle" x="1036.62" y="-74.5" font-family="Helvetica,sans-Serif" font-size="10.00">/selekcjanatur/StartController.java</text>
</a>
</g>
</g>
<!-- Node2 -->
<g id="Node000002" class="node">
<title>Node2</title>
<g id="a_Node000002"><a xlink:title=" ">
<polygon fill="#e0e0e0" stroke="#999999" points="93.25,-26 0,-26 0,-6 93.25,-6 93.25,-26"/>
<text xml:space="preserve" text-anchor="middle" x="46.62" y="-12.5" font-family="Helvetica,sans-Serif" font-size="10.00">javafx.fxml.FXML</text>
</a>
</g>
</g>
<!-- Node1&#45;&gt;Node2 -->
<g id="edge1_Node000001_Node000002" class="edge">
<title>Node1&#45;&gt;Node2</title>
<g id="a_edge1_Node000001_Node000002"><a xlink:title=" ">
<path fill="none" stroke="#63b8ff" d="M954.4,-80.7C757.93,-74.84 265.5,-57.97 102.62,-32 97.98,-31.26 93.17,-30.29 88.41,-29.2"/>
<polygon fill="#63b8ff" stroke="#63b8ff" points="89.5,-25.86 78.95,-26.85 87.81,-32.66 89.5,-25.86"/>
</a>
</g>
</g>
<!-- Node3 -->
<g id="Node000003" class="node">
<title>Node3</title>
<g id="a_Node000003"><a xlink:title=" ">
<polygon fill="#e0e0e0" stroke="#999999" points="233.88,-26 111.38,-26 111.38,-6 233.88,-6 233.88,-26"/>
<text xml:space="preserve" text-anchor="middle" x="172.62" y="-12.5" font-family="Helvetica,sans-Serif" font-size="10.00">javafx.fxml.FXMLLoader</text>
</a>
</g>
</g>
<!-- Node1&#45;&gt;Node3 -->
<g id="edge2_Node000001_Node000003" class="edge">
<title>Node1&#45;&gt;Node3</title>
<g id="a_edge2_Node000001_Node000003"><a xlink:title=" ">
<path fill="none" stroke="#63b8ff" d="M954.5,-81.7C809.94,-78.52 500.88,-67.77 242.62,-32 236.16,-31.1 229.4,-29.94 222.74,-28.67"/>
<polygon fill="#63b8ff" stroke="#63b8ff" points="223.67,-25.28 213.17,-26.73 222.28,-32.15 223.67,-25.28"/>
</a>
</g>
</g>
<!-- Node4 -->
<g id="Node000004" class="node">
<title>Node4</title>
<g id="a_Node000004"><a xlink:title=" ">
<polygon fill="#e0e0e0" stroke="#999999" points="353.75,-26 251.5,-26 251.5,-6 353.75,-6 353.75,-26"/>
<text xml:space="preserve" text-anchor="middle" x="302.62" y="-12.5" font-family="Helvetica,sans-Serif" font-size="10.00">javafx.scene.Scene</text>
</a>
</g>
</g>
<!-- Node1&#45;&gt;Node4 -->
<g id="edge3_Node000001_Node000004" class="edge">
<title>Node1&#45;&gt;Node4</title>
<g id="a_edge3_Node000001_Node000004"><a xlink:title=" ">
<path fill="none" stroke="#63b8ff" d="M954.4,-81.26C826.91,-77.56 574.19,-66.2 362.62,-32 357.66,-31.2 352.51,-30.19 347.4,-29.07"/>
<polygon fill="#63b8ff" stroke="#63b8ff" points="348.38,-25.71 337.84,-26.84 346.79,-32.52 348.38,-25.71"/>
</a>
</g>
</g>
<!-- Node5 -->
<g id="Node000005" class="node">
<title>Node5</title>
<g id="a_Node000005"><a xlink:title=" ">
<polygon fill="#e0e0e0" stroke="#999999" points="499.12,-26 372.12,-26 372.12,-6 499.12,-6 499.12,-26"/>
<text xml:space="preserve" text-anchor="middle" x="435.62" y="-12.5" font-family="Helvetica,sans-Serif" font-size="10.00">javafx.scene.control.Alert</text>
</a>
</g>
</g>
<!-- Node1&#45;&gt;Node5 -->
<g id="edge4_Node000001_Node000005" class="edge">
<title>Node1&#45;&gt;Node5</title>
<g id="a_edge4_Node000001_Node000005"><a xlink:title=" ">
<path fill="none" stroke="#63b8ff" d="M954.43,-77.78C850.3,-70.55 665.49,-55.62 508.62,-32 502.23,-31.04 495.55,-29.88 488.94,-28.64"/>
<polygon fill="#63b8ff" stroke="#63b8ff" points="489.92,-25.26 479.44,-26.78 488.58,-32.13 489.92,-25.26"/>
</a>
</g>
</g>
<!-- Node6 -->
<g id="Node000006" class="node">
<title>Node6</title>
<g id="a_Node000006"><a xlink:title=" ">
<polygon fill="#e0e0e0" stroke="#999999" points="647.62,-26 517.62,-26 517.62,-6 647.62,-6 647.62,-26"/>
<text xml:space="preserve" text-anchor="middle" x="582.62" y="-12.5" font-family="Helvetica,sans-Serif" font-size="10.00">javafx.scene.control.Label</text>
</a>
</g>
</g>
<!-- Node1&#45;&gt;Node6 -->
<g id="edge5_Node000001_Node000006" class="edge">
<title>Node1&#45;&gt;Node6</title>
<g id="a_edge5_Node000001_Node000006"><a xlink:title=" ">
<path fill="none" stroke="#63b8ff" d="M954.48,-73.58C877.35,-64.35 758.86,-49.2 656.62,-32 650.57,-30.98 644.24,-29.83 637.96,-28.63"/>
<polygon fill="#63b8ff" stroke="#63b8ff" points="638.72,-25.22 628.24,-26.74 637.38,-32.09 638.72,-25.22"/>
</a>
</g>
</g>
<!-- Node7 -->
<g id="Node000007" class="node">
<title>Node7</title>
<g id="a_Node000007"><a xlink:title=" ">
<polygon fill="#e0e0e0" stroke="#999999" points="797.38,-26 665.88,-26 665.88,-6 797.38,-6 797.38,-26"/>
<text xml:space="preserve" text-anchor="middle" x="731.62" y="-12.5" font-family="Helvetica,sans-Serif" font-size="10.00">javafx.scene.control.Slider</text>
</a>
</g>
</g>
<!-- Node1&#45;&gt;Node7 -->
<g id="edge6_Node000001_Node000007" class="edge">
<title>Node1&#45;&gt;Node7</title>
<g id="a_edge6_Node000001_Node000007"><a xlink:title=" ">
<path fill="none" stroke="#63b8ff" d="M965.12,-67.53C910.56,-55.72 836.52,-39.7 786.56,-28.89"/>
<polygon fill="#63b8ff" stroke="#63b8ff" points="787.34,-25.47 776.82,-26.78 785.85,-32.32 787.34,-25.47"/>
</a>
</g>
</g>
<!-- Node8 -->
<g id="Node000008" class="node">
<title>Node8</title>
<g id="a_Node000008"><a xlink:title=" ">
<polygon fill="#e0e0e0" stroke="#999999" points="941.38,-32 815.88,-32 815.88,0 941.38,0 941.38,-32"/>
<text xml:space="preserve" text-anchor="start" x="823.88" y="-18.5" font-family="Helvetica,sans-Serif" font-size="10.00">javafx.scene.control.Text</text>
<text xml:space="preserve" text-anchor="middle" x="878.62" y="-6.5" font-family="Helvetica,sans-Serif" font-size="10.00">Field</text>
</a>
</g>
</g>
<!-- Node1&#45;&gt;Node8 -->
<g id="edge7_Node000001_Node000008" class="edge">
<title>Node1&#45;&gt;Node8</title>
<g id="a_edge7_Node000001_Node000008"><a xlink:title=" ">
<path fill="none" stroke="#63b8ff" d="M999.58,-67.53C977.67,-58.37 949.7,-46.69 926.17,-36.86"/>
<polygon fill="#63b8ff" stroke="#63b8ff" points="927.68,-33.7 917.11,-33.07 924.99,-40.16 927.68,-33.7"/>
</a>
</g>
</g>
<!-- Node9 -->
<g id="Node000009" class="node">
<title>Node9</title>
<g id="a_Node000009"><a xlink:title=" ">
<polygon fill="#e0e0e0" stroke="#999999" points="1114,-26 959.25,-26 959.25,-6 1114,-6 1114,-26"/>
<text xml:space="preserve" text-anchor="middle" x="1036.62" y="-12.5" font-family="Helvetica,sans-Serif" font-size="10.00">javafx.scene.layout.BorderPane</text>
</a>
</g>
</g>
<!-- Node1&#45;&gt;Node9 -->
<g id="edge8_Node000001_Node000009" class="edge">
<title>Node1&#45;&gt;Node9</title>
<g id="a_edge8_Node000001_Node000009"><a xlink:title=" ">
<path fill="none" stroke="#63b8ff" d="M1036.62,-67.69C1036.62,-58.8 1036.62,-47.46 1036.62,-37.77"/>
<polygon fill="#63b8ff" stroke="#63b8ff" points="1040.13,-37.83 1036.63,-27.83 1033.13,-37.83 1040.13,-37.83"/>
</a>
</g>
</g>
<!-- Node10 -->
<g id="Node000010" class="node">
<title>Node10</title>
<g id="a_Node000010"><a xlink:title=" ">
<polygon fill="#e0e0e0" stroke="#999999" points="1257,-26 1132.25,-26 1132.25,-6 1257,-6 1257,-26"/>
<text xml:space="preserve" text-anchor="middle" x="1194.62" y="-12.5" font-family="Helvetica,sans-Serif" font-size="10.00">javafx.stage.FileChooser</text>
</a>
</g>
</g>
<!-- Node1&#45;&gt;Node10 -->
<g id="edge9_Node000001_Node000010" class="edge">
<title>Node1&#45;&gt;Node10</title>
<g id="a_edge9_Node000001_Node000010"><a xlink:title=" ">
<path fill="none" stroke="#63b8ff" d="M1073.67,-67.53C1100.33,-56.39 1135.96,-41.51 1161.64,-30.78"/>
<polygon fill="#63b8ff" stroke="#63b8ff" points="1162.7,-34.13 1170.58,-27.04 1160.01,-27.67 1162.7,-34.13"/>
</a>
</g>
</g>
<!-- Node11 -->
<g id="Node000011" class="node">
<title>Node11</title>
<g id="a_Node000011"><a xlink:title=" ">
<polygon fill="#e0e0e0" stroke="#999999" points="1372.5,-26 1274.75,-26 1274.75,-6 1372.5,-6 1372.5,-26"/>
<text xml:space="preserve" text-anchor="middle" x="1323.62" y="-12.5" font-family="Helvetica,sans-Serif" font-size="10.00">javafx.stage.Stage</text>
</a>
</g>
</g>
<!-- Node1&#45;&gt;Node11 -->
<g id="edge10_Node000001_Node000011" class="edge">
<title>Node1&#45;&gt;Node11</title>
<g id="a_edge10_Node000001_Node000011"><a xlink:title=" ">
<path fill="none" stroke="#63b8ff" d="M1108.97,-67.55C1154.1,-57.74 1213.35,-44.58 1265.62,-32 1269.21,-31.14 1272.92,-30.22 1276.65,-29.29"/>
<polygon fill="#63b8ff" stroke="#63b8ff" points="1277.48,-32.69 1286.32,-26.84 1275.76,-25.91 1277.48,-32.69"/>
</a>
</g>
</g>
<!-- Node12 -->
<g id="Node000012" class="node">
<title>Node12</title>
<g id="a_Node000012"><a xlink:title=" ">
<polygon fill="#e0e0e0" stroke="#999999" points="1505.12,-26 1390.12,-26 1390.12,-6 1505.12,-6 1505.12,-26"/>
<text xml:space="preserve" text-anchor="middle" x="1447.62" y="-12.5" font-family="Helvetica,sans-Serif" font-size="10.00">java.io.BufferedReader</text>
</a>
</g>
</g>
<!-- Node1&#45;&gt;Node12 -->
<g id="edge11_Node000001_Node000012" class="edge">
<title>Node1&#45;&gt;Node12</title>
<g id="a_edge11_Node000001_Node000012"><a xlink:title=" ">
<path fill="none" stroke="#63b8ff" d="M1118.83,-72.65C1188.91,-63.4 1292.21,-48.74 1381.62,-32 1386.77,-31.04 1392.12,-29.95 1397.45,-28.82"/>
<polygon fill="#63b8ff" stroke="#63b8ff" points="1397.79,-32.33 1406.81,-26.78 1396.3,-25.49 1397.79,-32.33"/>
</a>
</g>
</g>
<!-- Node13 -->
<g id="Node000013" class="node">
<title>Node13</title>
<g id="a_Node000013"><a xlink:title=" ">
<polygon fill="#e0e0e0" stroke="#999999" points="1586.25,-26 1523,-26 1523,-6 1586.25,-6 1586.25,-26"/>
<text xml:space="preserve" text-anchor="middle" x="1554.62" y="-12.5" font-family="Helvetica,sans-Serif" font-size="10.00">java.io.File</text>
</a>
</g>
</g>
<!-- Node1&#45;&gt;Node13 -->
<g id="edge12_Node000001_Node000013" class="edge">
<title>Node1&#45;&gt;Node13</title>
<g id="a_edge12_Node000001_Node000013"><a xlink:title=" ">
<path fill="none" stroke="#63b8ff" d="M1118.88,-80.52C1214.97,-76.18 1378.19,-64.31 1514.62,-32 1516.94,-31.45 1519.3,-30.81 1521.66,-30.1"/>
<polygon fill="#63b8ff" stroke="#63b8ff" points="1522.72,-33.43 1531.08,-26.91 1520.48,-26.8 1522.72,-33.43"/>
</a>
</g>
</g>
<!-- Node14 -->
<g id="Node000014" class="node">
<title>Node14</title>
<g id="a_Node000014"><a xlink:title=" ">
<polygon fill="#e0e0e0" stroke="#999999" points="1705.38,-26 1603.88,-26 1603.88,-6 1705.38,-6 1705.38,-26"/>
<text xml:space="preserve" text-anchor="middle" x="1654.62" y="-12.5" font-family="Helvetica,sans-Serif" font-size="10.00">java.io.IOException</text>
</a>
</g>
</g>
<!-- Node1&#45;&gt;Node14 -->
<g id="edge13_Node000001_Node000014" class="edge">
<title>Node1&#45;&gt;Node14</title>
<g id="a_edge13_Node000001_Node000014"><a xlink:title=" ">
<path fill="none" stroke="#63b8ff" d="M1118.62,-79.58C1228.04,-74.09 1427.54,-60.85 1595.62,-32 1600.31,-31.2 1605.18,-30.21 1610.01,-29.13"/>
<polygon fill="#63b8ff" stroke="#63b8ff" points="1610.73,-32.56 1619.65,-26.84 1609.11,-25.75 1610.73,-32.56"/>
</a>
</g>
</g>
<!-- Node15 -->
<g id="Node000015" class="node">
<title>Node15</title>
<g id="a_Node000015"><a xlink:title=" ">
<polygon fill="#e0e0e0" stroke="#999999" points="1813.38,-26 1723.88,-26 1723.88,-6 1813.38,-6 1813.38,-26"/>
<text xml:space="preserve" text-anchor="middle" x="1768.62" y="-12.5" font-family="Helvetica,sans-Serif" font-size="10.00">java.nio.file.Files</text>
</a>
</g>
</g>
<!-- Node1&#45;&gt;Node15 -->
<g id="edge14_Node000001_Node000015" class="edge">
<title>Node1&#45;&gt;Node15</title>
<g id="a_edge14_Node000001_Node000015"><a xlink:title=" ">
<path fill="none" stroke="#63b8ff" d="M1118.93,-81.99C1247.16,-79.26 1501.98,-69.16 1714.62,-32 1718.92,-31.25 1723.37,-30.3 1727.79,-29.25"/>
<polygon fill="#63b8ff" stroke="#63b8ff" points="1728.31,-32.73 1737.12,-26.84 1726.57,-25.95 1728.31,-32.73"/>
</a>
</g>
</g>
<!-- Node16 -->
<g id="Node000016" class="node">
<title>Node16</title>
<g id="a_Node000016"><a xlink:title=" ">
<polygon fill="#e0e0e0" stroke="#999999" points="1920,-26 1831.25,-26 1831.25,-6 1920,-6 1920,-26"/>
<text xml:space="preserve" text-anchor="middle" x="1875.62" y="-12.5" font-family="Helvetica,sans-Serif" font-size="10.00">java.nio.file.Path</text>
</a>
</g>
</g>
<!-- Node1&#45;&gt;Node16 -->
<g id="edge15_Node000001_Node000016" class="edge">
<title>Node1&#45;&gt;Node16</title>
<g id="a_edge15_Node000001_Node000016"><a xlink:title=" ">
<path fill="none" stroke="#63b8ff" d="M1118.76,-83.34C1262.51,-82.69 1568.59,-75.69 1822.62,-32 1826.78,-31.29 1831.08,-30.37 1835.34,-29.35"/>
<polygon fill="#63b8ff" stroke="#63b8ff" points="1836.19,-32.75 1844.98,-26.83 1834.42,-25.97 1836.19,-32.75"/>
</a>
</g>
</g>
</g>
</svg>
