<?xml version="1.0" encoding="UTF-8" standalone="no"?>
<!DOCTYPE svg PUBLIC "-//W3C//DTD SVG 1.1//EN"
 "http://www.w3.org/Graphics/SVG/1.1/DTD/svg11.dtd">
<!-- Generated by graphviz version 13.0.1 (20250615.1724)
 -->
<!-- Title: src/main/java/proj/selekcjanatur/StartController.java Pages: 1 -->
<svg width="1560pt" height="96pt"
 viewBox="0.00 0.00 1560.00 96.00" xmlns="http://www.w3.org/2000/svg" xmlns:xlink="http://www.w3.org/1999/xlink">
<g id="graph0" class="graph" transform="scale(1 1) rotate(0) translate(4 92)">
<title>src/main/java/proj/selekcjanatur/StartController.java</title>
<!-- Node1 -->
<g id="Node000001" class="node">
<title>Node1</title>
<g id="a_Node000001"><a xlink:title="Kontroler ekranu startowego symulacji.">
<polygon fill="#999999" stroke="#666666" points="893.5,-88 729.75,-88 729.75,-56 893.5,-56 893.5,-88"/>
<text xml:space="preserve" text-anchor="start" x="737.75" y="-74.5" font-family="Helvetica,sans-Serif" font-size="10.00">src/main/java/proj</text>
<text xml:space="preserve" text-anchor="middle" x="811.62" y="-62.5" font-family="Helvetica,sans-Serif" font-size="10.00">/selekcjanatur/StartController.java</text>
</a>
</g>
</g>
<!-- Node2 -->
<g id="Node000002" class="node">
<title>Node2</title>
<g id="a_Node000002"><a xlink:title=" ">
<polygon fill="#e0e0e0" stroke="#999999" points="93.25,-20 0,-20 0,0 93.25,0 93.25,-20"/>
<text xml:space="preserve" text-anchor="middle" x="46.62" y="-6.5" font-family="Helvetica,sans-Serif" font-size="10.00">javafx.fxml.FXML</text>
</a>
</g>
</g>
<!-- Node1&#45;&gt;Node2 -->
<g id="edge1_Node000001_Node000002" class="edge">
<title>Node1&#45;&gt;Node2</title>
<g id="a_edge1_Node000001_Node000002"><a xlink:title=" ">
<path fill="none" stroke="#63b8ff" d="M729.26,-67.42C599,-61.24 337.25,-46.72 105.02,-20.18"/>
<polygon fill="#63b8ff" stroke="#63b8ff" points="105.48,-16.7 95.14,-19.04 104.67,-23.66 105.48,-16.7"/>
</a>
</g>
</g>
<!-- Node3 -->
<g id="Node000003" class="node">
<title>Node3</title>
<g id="a_Node000003"><a xlink:title=" ">
<polygon fill="#e0e0e0" stroke="#999999" points="233.88,-20 111.38,-20 111.38,0 233.88,0 233.88,-20"/>
<text xml:space="preserve" text-anchor="middle" x="172.62" y="-6.5" font-family="Helvetica,sans-Serif" font-size="10.00">javafx.fxml.FXMLLoader</text>
</a>
</g>
</g>
<!-- Node1&#45;&gt;Node3 -->
<g id="edge2_Node000001_Node000003" class="edge">
<title>Node1&#45;&gt;Node3</title>
<g id="a_edge2_Node000001_Node000003"><a xlink:title=" ">
<path fill="none" stroke="#63b8ff" d="M729.55,-64.64C621.13,-56.02 423.96,-39.56 245.27,-20.25"/>
<polygon fill="#63b8ff" stroke="#63b8ff" points="245.89,-16.8 235.57,-19.2 245.14,-23.76 245.89,-16.8"/>
</a>
</g>
</g>
<!-- Node4 -->
<g id="Node000004" class="node">
<title>Node4</title>
<g id="a_Node000004"><a xlink:title=" ">
<polygon fill="#e0e0e0" stroke="#999999" points="353.75,-20 251.5,-20 251.5,0 353.75,0 353.75,-20"/>
<text xml:space="preserve" text-anchor="middle" x="302.62" y="-6.5" font-family="Helvetica,sans-Serif" font-size="10.00">javafx.scene.Scene</text>
</a>
</g>
</g>
<!-- Node1&#45;&gt;Node4 -->
<g id="edge3_Node000001_Node000004" class="edge">
<title>Node1&#45;&gt;Node4</title>
<g id="a_edge3_Node000001_Node000004"><a xlink:title=" ">
<path fill="none" stroke="#63b8ff" d="M729.59,-62.57C641.95,-53.37 498.67,-37.74 365.22,-20.3"/>
<polygon fill="#63b8ff" stroke="#63b8ff" points="365.87,-16.86 355.5,-19.03 364.95,-23.8 365.87,-16.86"/>
</a>
</g>
</g>
<!-- Node5 -->
<g id="Node000005" class="node">
<title>Node5</title>
<g id="a_Node000005"><a xlink:title=" ">
<polygon fill="#e0e0e0" stroke="#999999" points="499.12,-20 372.12,-20 372.12,0 499.12,0 499.12,-20"/>
<text xml:space="preserve" text-anchor="middle" x="435.62" y="-6.5" font-family="Helvetica,sans-Serif" font-size="10.00">javafx.scene.control.Alert</text>
</a>
</g>
</g>
<!-- Node1&#45;&gt;Node5 -->
<g id="edge4_Node000001_Node000005" class="edge">
<title>Node1&#45;&gt;Node5</title>
<g id="a_edge4_Node000001_Node000005"><a xlink:title=" ">
<path fill="none" stroke="#63b8ff" d="M729.57,-57.91C662.82,-47.25 569.59,-32.38 506.15,-22.25"/>
<polygon fill="#63b8ff" stroke="#63b8ff" points="506.98,-18.84 496.55,-20.72 505.88,-25.75 506.98,-18.84"/>
</a>
</g>
</g>
<!-- Node6 -->
<g id="Node000006" class="node">
<title>Node6</title>
<g id="a_Node000006"><a xlink:title=" ">
<polygon fill="#e0e0e0" stroke="#999999" points="647.62,-20 517.62,-20 517.62,0 647.62,0 647.62,-20"/>
<text xml:space="preserve" text-anchor="middle" x="582.62" y="-6.5" font-family="Helvetica,sans-Serif" font-size="10.00">javafx.scene.control.Label</text>
</a>
</g>
</g>
<!-- Node1&#45;&gt;Node6 -->
<g id="edge5_Node000001_Node000006" class="edge">
<title>Node1&#45;&gt;Node6</title>
<g id="a_edge5_Node000001_Node000006"><a xlink:title=" ">
<path fill="none" stroke="#63b8ff" d="M752.65,-55.55C714.51,-45.55 665.51,-32.72 629.92,-23.39"/>
<polygon fill="#63b8ff" stroke="#63b8ff" points="630.89,-20.03 620.33,-20.88 629.12,-26.8 630.89,-20.03"/>
</a>
</g>
</g>
<!-- Node7 -->
<g id="Node000007" class="node">
<title>Node7</title>
<g id="a_Node000007"><a xlink:title=" ">
<polygon fill="#e0e0e0" stroke="#999999" points="797.38,-20 665.88,-20 665.88,0 797.38,0 797.38,-20"/>
<text xml:space="preserve" text-anchor="middle" x="731.62" y="-6.5" font-family="Helvetica,sans-Serif" font-size="10.00">javafx.scene.control.Slider</text>
</a>
</g>
</g>
<!-- Node1&#45;&gt;Node7 -->
<g id="edge6_Node000001_Node000007" class="edge">
<title>Node1&#45;&gt;Node7</title>
<g id="a_edge6_Node000001_Node000007"><a xlink:title=" ">
<path fill="none" stroke="#63b8ff" d="M791.02,-55.55C779.45,-46.87 765.02,-36.04 753.28,-27.24"/>
<polygon fill="#63b8ff" stroke="#63b8ff" points="755.48,-24.52 745.38,-21.32 751.28,-30.12 755.48,-24.52"/>
</a>
</g>
</g>
<!-- Node8 -->
<g id="Node000008" class="node">
<title>Node8</title>
<g id="a_Node000008"><a xlink:title=" ">
<polygon fill="#e0e0e0" stroke="#999999" points="970,-20 815.25,-20 815.25,0 970,0 970,-20"/>
<text xml:space="preserve" text-anchor="middle" x="892.62" y="-6.5" font-family="Helvetica,sans-Serif" font-size="10.00">javafx.scene.layout.BorderPane</text>
</a>
</g>
</g>
<!-- Node1&#45;&gt;Node8 -->
<g id="edge7_Node000001_Node000008" class="edge">
<title>Node1&#45;&gt;Node8</title>
<g id="a_edge7_Node000001_Node000008"><a xlink:title=" ">
<path fill="none" stroke="#63b8ff" d="M832.48,-55.55C844.2,-46.87 858.82,-36.04 870.7,-27.24"/>
<polygon fill="#63b8ff" stroke="#63b8ff" points="872.76,-30.07 878.71,-21.31 868.59,-24.45 872.76,-30.07"/>
</a>
</g>
</g>
<!-- Node9 -->
<g id="Node000009" class="node">
<title>Node9</title>
<g id="a_Node000009"><a xlink:title=" ">
<polygon fill="#e0e0e0" stroke="#999999" points="1085.5,-20 987.75,-20 987.75,0 1085.5,0 1085.5,-20"/>
<text xml:space="preserve" text-anchor="middle" x="1036.62" y="-6.5" font-family="Helvetica,sans-Serif" font-size="10.00">javafx.stage.Stage</text>
</a>
</g>
</g>
<!-- Node1&#45;&gt;Node9 -->
<g id="edge8_Node000001_Node000009" class="edge">
<title>Node1&#45;&gt;Node9</title>
<g id="a_edge8_Node000001_Node000009"><a xlink:title=" ">
<path fill="none" stroke="#63b8ff" d="M869.57,-55.55C907.05,-45.55 955.19,-32.72 990.15,-23.39"/>
<polygon fill="#63b8ff" stroke="#63b8ff" points="990.79,-26.84 999.55,-20.89 988.99,-20.08 990.79,-26.84"/>
</a>
</g>
</g>
<!-- Node10 -->
<g id="Node000010" class="node">
<title>Node10</title>
<g id="a_Node000010"><a xlink:title=" ">
<polygon fill="#e0e0e0" stroke="#999999" points="1218.12,-20 1103.12,-20 1103.12,0 1218.12,0 1218.12,-20"/>
<text xml:space="preserve" text-anchor="middle" x="1160.62" y="-6.5" font-family="Helvetica,sans-Serif" font-size="10.00">java.io.BufferedReader</text>
</a>
</g>
</g>
<!-- Node1&#45;&gt;Node10 -->
<g id="edge9_Node000001_Node000010" class="edge">
<title>Node1&#45;&gt;Node10</title>
<g id="a_edge9_Node000001_Node000010"><a xlink:title=" ">
<path fill="none" stroke="#63b8ff" d="M893.89,-56.86C955.1,-46.33 1037.57,-32.16 1094.52,-22.36"/>
<polygon fill="#63b8ff" stroke="#63b8ff" points="1094.8,-25.87 1104.06,-20.72 1093.62,-18.97 1094.8,-25.87"/>
</a>
</g>
</g>
<!-- Node11 -->
<g id="Node000011" class="node">
<title>Node11</title>
<g id="a_Node000011"><a xlink:title=" ">
<polygon fill="#e0e0e0" stroke="#999999" points="1337.38,-20 1235.88,-20 1235.88,0 1337.38,0 1337.38,-20"/>
<text xml:space="preserve" text-anchor="middle" x="1286.62" y="-6.5" font-family="Helvetica,sans-Serif" font-size="10.00">java.io.IOException</text>
</a>
</g>
</g>
<!-- Node1&#45;&gt;Node11 -->
<g id="edge10_Node000001_Node000011" class="edge">
<title>Node1&#45;&gt;Node11</title>
<g id="a_edge10_Node000001_Node000011"><a xlink:title=" ">
<path fill="none" stroke="#63b8ff" d="M893.81,-61.65C975.25,-52.21 1103.85,-36.88 1224.22,-20.44"/>
<polygon fill="#63b8ff" stroke="#63b8ff" points="1224.54,-23.93 1233.97,-19.1 1223.59,-16.99 1224.54,-23.93"/>
</a>
</g>
</g>
<!-- Node12 -->
<g id="Node000012" class="node">
<title>Node12</title>
<g id="a_Node000012"><a xlink:title=" ">
<polygon fill="#e0e0e0" stroke="#999999" points="1445.38,-20 1355.88,-20 1355.88,0 1445.38,0 1445.38,-20"/>
<text xml:space="preserve" text-anchor="middle" x="1400.62" y="-6.5" font-family="Helvetica,sans-Serif" font-size="10.00">java.nio.file.Files</text>
</a>
</g>
</g>
<!-- Node1&#45;&gt;Node12 -->
<g id="edge11_Node000001_Node000012" class="edge">
<title>Node1&#45;&gt;Node12</title>
<g id="a_edge11_Node000001_Node000012"><a xlink:title=" ">
<path fill="none" stroke="#63b8ff" d="M893.86,-64.96C996.7,-57.01 1178.41,-41.62 1344.18,-20.23"/>
<polygon fill="#63b8ff" stroke="#63b8ff" points="1344.61,-23.71 1354.08,-18.95 1343.71,-16.77 1344.61,-23.71"/>
</a>
</g>
</g>
<!-- Node13 -->
<g id="Node000013" class="node">
<title>Node13</title>
<g id="a_Node000013"><a xlink:title=" ">
<polygon fill="#e0e0e0" stroke="#999999" points="1552,-20 1463.25,-20 1463.25,0 1552,0 1552,-20"/>
<text xml:space="preserve" text-anchor="middle" x="1507.62" y="-6.5" font-family="Helvetica,sans-Serif" font-size="10.00">java.nio.file.Path</text>
</a>
</g>
</g>
<!-- Node1&#45;&gt;Node13 -->
<g id="edge12_Node000001_Node000013" class="edge">
<title>Node1&#45;&gt;Node13</title>
<g id="a_edge12_Node000001_Node000013"><a xlink:title=" ">
<path fill="none" stroke="#63b8ff" d="M893.82,-66.83C1014.11,-60.2 1245.35,-45.5 1451.5,-20.29"/>
<polygon fill="#63b8ff" stroke="#63b8ff" points="1451.85,-23.78 1461.34,-19.08 1450.99,-16.83 1451.85,-23.78"/>
</a>
</g>
</g>
</g>
</svg>
