<?xml version="1.0" encoding="UTF-8" standalone="no"?>
<!DOCTYPE svg PUBLIC "-//W3C//DTD SVG 1.1//EN"
 "http://www.w3.org/Graphics/SVG/1.1/DTD/svg11.dtd">
<!-- Generated by graphviz version 13.0.1 (20250615.1724)
 -->
<!-- Title: src/main/java/proj/selekcjanatur/SymulacjaPlik.java Pages: 1 -->
<svg width="399pt" height="96pt"
 viewBox="0.00 0.00 399.00 96.00" xmlns="http://www.w3.org/2000/svg" xmlns:xlink="http://www.w3.org/1999/xlink">
<g id="graph0" class="graph" transform="scale(1 1) rotate(0) translate(4 92)">
<title>src/main/java/proj/selekcjanatur/SymulacjaPlik.java</title>
<!-- Node1 -->
<g id="Node000001" class="node">
<title>Node1</title>
<g id="a_Node000001"><a xlink:title="Implementacja odtwarzania symulacji z pliku dziennika zdarzeń">
<polygon fill="#999999" stroke="#666666" points="299.25,-88 136.25,-88 136.25,-56 299.25,-56 299.25,-88"/>
<text xml:space="preserve" text-anchor="start" x="144.25" y="-74.5" font-family="Helvetica,sans-Serif" font-size="10.00">src/main/java/proj</text>
<text xml:space="preserve" text-anchor="middle" x="217.75" y="-62.5" font-family="Helvetica,sans-Serif" font-size="10.00">/selekcjanatur/SymulacjaPlik.java</text>
</a>
</g>
</g>
<!-- Node2 -->
<g id="Node000002" class="node">
<title>Node2</title>
<g id="a_Node000002"><a xlink:title=" ">
<polygon fill="#e0e0e0" stroke="#999999" points="101.5,-20 0,-20 0,0 101.5,0 101.5,-20"/>
<text xml:space="preserve" text-anchor="middle" x="50.75" y="-6.5" font-family="Helvetica,sans-Serif" font-size="10.00">java.io.IOException</text>
</a>
</g>
</g>
<!-- Node1&#45;&gt;Node2 -->
<g id="edge1_Node000001_Node000002" class="edge">
<title>Node1&#45;&gt;Node2</title>
<g id="a_edge1_Node000001_Node000002"><a xlink:title=" ">
<path fill="none" stroke="#63b8ff" d="M174.74,-55.55C147.8,-45.87 113.45,-33.53 87.73,-24.29"/>
<polygon fill="#63b8ff" stroke="#63b8ff" points="88.95,-21.01 78.36,-20.92 86.59,-27.59 88.95,-21.01"/>
</a>
</g>
</g>
<!-- Node3 -->
<g id="Node000003" class="node">
<title>Node3</title>
<g id="a_Node000003"><a xlink:title=" ">
<polygon fill="#e0e0e0" stroke="#999999" points="209.5,-20 120,-20 120,0 209.5,0 209.5,-20"/>
<text xml:space="preserve" text-anchor="middle" x="164.75" y="-6.5" font-family="Helvetica,sans-Serif" font-size="10.00">java.nio.file.Files</text>
</a>
</g>
</g>
<!-- Node1&#45;&gt;Node3 -->
<g id="edge2_Node000001_Node000003" class="edge">
<title>Node1&#45;&gt;Node3</title>
<g id="a_edge2_Node000001_Node000003"><a xlink:title=" ">
<path fill="none" stroke="#63b8ff" d="M204.1,-55.55C196.89,-47.39 188.01,-37.33 180.51,-28.84"/>
<polygon fill="#63b8ff" stroke="#63b8ff" points="183.31,-26.72 174.06,-21.54 178.06,-31.35 183.31,-26.72"/>
</a>
</g>
</g>
<!-- Node4 -->
<g id="Node000004" class="node">
<title>Node4</title>
<g id="a_Node000004"><a xlink:title=" ">
<polygon fill="#e0e0e0" stroke="#999999" points="316.12,-20 227.38,-20 227.38,0 316.12,0 316.12,-20"/>
<text xml:space="preserve" text-anchor="middle" x="271.75" y="-6.5" font-family="Helvetica,sans-Serif" font-size="10.00">java.nio.file.Path</text>
</a>
</g>
</g>
<!-- Node1&#45;&gt;Node4 -->
<g id="edge3_Node000001_Node000004" class="edge">
<title>Node1&#45;&gt;Node4</title>
<g id="a_edge3_Node000001_Node000004"><a xlink:title=" ">
<path fill="none" stroke="#63b8ff" d="M231.66,-55.55C239,-47.39 248.05,-37.33 255.69,-28.84"/>
<polygon fill="#63b8ff" stroke="#63b8ff" points="258.18,-31.31 262.27,-21.53 252.98,-26.62 258.18,-31.31"/>
</a>
</g>
</g>
<!-- Node5 -->
<g id="Node000005" class="node">
<title>Node5</title>
<g id="a_Node000005"><a xlink:title=" ">
<polygon fill="#e0e0e0" stroke="#999999" points="391,-20 334.5,-20 334.5,0 391,0 391,-20"/>
<text xml:space="preserve" text-anchor="middle" x="362.75" y="-6.5" font-family="Helvetica,sans-Serif" font-size="10.00">java.util.*</text>
</a>
</g>
</g>
<!-- Node1&#45;&gt;Node5 -->
<g id="edge4_Node000001_Node000005" class="edge">
<title>Node1&#45;&gt;Node5</title>
<g id="a_edge4_Node000001_Node000005"><a xlink:title=" ">
<path fill="none" stroke="#63b8ff" d="M255.09,-55.55C278.06,-46.04 307.25,-33.97 329.43,-24.79"/>
<polygon fill="#63b8ff" stroke="#63b8ff" points="330.71,-28.04 338.62,-20.99 328.04,-21.58 330.71,-28.04"/>
</a>
</g>
</g>
</g>
</svg>
