<?xml version="1.0" encoding="UTF-8" standalone="no"?>
<!DOCTYPE svg PUBLIC "-//W3C//DTD SVG 1.1//EN"
 "http://www.w3.org/Graphics/SVG/1.1/DTD/svg11.dtd">
<!-- Generated by graphviz version 13.0.1 (20250615.1724)
 -->
<!-- Title: src/main/java/proj/selekcjanatur/Symulacja.java Pages: 1 -->
<svg width="399pt" height="96pt"
 viewBox="0.00 0.00 399.00 96.00" xmlns="http://www.w3.org/2000/svg" xmlns:xlink="http://www.w3.org/1999/xlink">
<g id="graph0" class="graph" transform="scale(1 1) rotate(0) translate(4 92)">
<title>src/main/java/proj/selekcjanatur/Symulacja.java</title>
<!-- Node1 -->
<g id="Node000001" class="node">
<title>Node1</title>
<g id="a_Node000001"><a xlink:title="Główna klasa implementująca logikę symulacji ewolucyjnej.">
<polygon fill="#999999" stroke="#666666" points="255.5,-88 109,-88 109,-56 255.5,-56 255.5,-88"/>
<text xml:space="preserve" text-anchor="start" x="117" y="-74.5" font-family="Helvetica,sans-Serif" font-size="10.00">src/main/java/proj</text>
<text xml:space="preserve" text-anchor="middle" x="182.25" y="-62.5" font-family="Helvetica,sans-Serif" font-size="10.00">/selekcjanatur/Symulacja.java</text>
</a>
</g>
</g>
<!-- Node2 -->
<g id="Node000002" class="node">
<title>Node2</title>
<g id="a_Node000002"><a xlink:title=" ">
<polygon fill="#e0e0e0" stroke="#999999" points="56.5,-20 0,-20 0,0 56.5,0 56.5,-20"/>
<text xml:space="preserve" text-anchor="middle" x="28.25" y="-6.5" font-family="Helvetica,sans-Serif" font-size="10.00">java.util.*</text>
</a>
</g>
</g>
<!-- Node1&#45;&gt;Node2 -->
<g id="edge1_Node000001_Node000002" class="edge">
<title>Node1&#45;&gt;Node2</title>
<g id="a_edge1_Node000001_Node000002"><a xlink:title=" ">
<path fill="none" stroke="#63b8ff" d="M142.59,-55.55C117.97,-45.96 86.63,-33.75 62.99,-24.54"/>
<polygon fill="#63b8ff" stroke="#63b8ff" points="64.4,-21.33 53.81,-20.96 61.85,-27.85 64.4,-21.33"/>
</a>
</g>
</g>
<!-- Node3 -->
<g id="Node000003" class="node">
<title>Node3</title>
<g id="a_Node000003"><a xlink:title=" ">
<polygon fill="#e0e0e0" stroke="#999999" points="176,-20 74.5,-20 74.5,0 176,0 176,-20"/>
<text xml:space="preserve" text-anchor="middle" x="125.25" y="-6.5" font-family="Helvetica,sans-Serif" font-size="10.00">java.io.IOException</text>
</a>
</g>
</g>
<!-- Node1&#45;&gt;Node3 -->
<g id="edge2_Node000001_Node000003" class="edge">
<title>Node1&#45;&gt;Node3</title>
<g id="a_edge2_Node000001_Node000003"><a xlink:title=" ">
<path fill="none" stroke="#63b8ff" d="M167.57,-55.55C159.74,-47.3 150.06,-37.12 141.94,-28.57"/>
<polygon fill="#63b8ff" stroke="#63b8ff" points="144.66,-26.34 135.23,-21.51 139.58,-31.17 144.66,-26.34"/>
</a>
</g>
</g>
<!-- Node4 -->
<g id="Node000004" class="node">
<title>Node4</title>
<g id="a_Node000004"><a xlink:title=" ">
<polygon fill="#e0e0e0" stroke="#999999" points="284,-20 194.5,-20 194.5,0 284,0 284,-20"/>
<text xml:space="preserve" text-anchor="middle" x="239.25" y="-6.5" font-family="Helvetica,sans-Serif" font-size="10.00">java.nio.file.Files</text>
</a>
</g>
</g>
<!-- Node1&#45;&gt;Node4 -->
<g id="edge3_Node000001_Node000004" class="edge">
<title>Node1&#45;&gt;Node4</title>
<g id="a_edge3_Node000001_Node000004"><a xlink:title=" ">
<path fill="none" stroke="#63b8ff" d="M196.93,-55.55C204.76,-47.3 214.44,-37.12 222.56,-28.57"/>
<polygon fill="#63b8ff" stroke="#63b8ff" points="224.92,-31.17 229.27,-21.51 219.84,-26.34 224.92,-31.17"/>
</a>
</g>
</g>
<!-- Node5 -->
<g id="Node000005" class="node">
<title>Node5</title>
<g id="a_Node000005"><a xlink:title=" ">
<polygon fill="#e0e0e0" stroke="#999999" points="390.62,-20 301.88,-20 301.88,0 390.62,0 390.62,-20"/>
<text xml:space="preserve" text-anchor="middle" x="346.25" y="-6.5" font-family="Helvetica,sans-Serif" font-size="10.00">java.nio.file.Path</text>
</a>
</g>
</g>
<!-- Node1&#45;&gt;Node5 -->
<g id="edge4_Node000001_Node000005" class="edge">
<title>Node1&#45;&gt;Node5</title>
<g id="a_edge4_Node000001_Node000005"><a xlink:title=" ">
<path fill="none" stroke="#63b8ff" d="M224.48,-55.55C250.94,-45.87 284.68,-33.53 309.93,-24.29"/>
<polygon fill="#63b8ff" stroke="#63b8ff" points="310.92,-27.65 319.11,-20.93 308.52,-21.08 310.92,-27.65"/>
</a>
</g>
</g>
</g>
</svg>
