<?xml version="1.0" encoding="UTF-8" standalone="no"?>
<!DOCTYPE svg PUBLIC "-//W3C//DTD SVG 1.1//EN"
 "http://www.w3.org/Graphics/SVG/1.1/DTD/svg11.dtd">
<!-- Generated by graphviz version 13.0.1 (20250615.1724)
 -->
<!-- Title: proj.selekcjanatur.GenPredkoscChodzenia Pages: 1 -->
<svg width="155pt" height="236pt"
 viewBox="0.00 0.00 155.00 236.00" xmlns="http://www.w3.org/2000/svg" xmlns:xlink="http://www.w3.org/1999/xlink">
<g id="graph0" class="graph" transform="scale(1 1) rotate(0) translate(4 232)">
<title>proj.selekcjanatur.GenPredkoscChodzenia</title>
<!-- Node1 -->
<g id="Node000001" class="node">
<title>Node1</title>
<g id="a_Node000001"><a xlink:title="Klasa implementująca gen prędkości chodzenia.">
<polygon fill="#999999" stroke="none" points="146.75,-124 0,-124 0,0 146.75,0 146.75,-124"/>
<text xml:space="preserve" text-anchor="start" x="4" y="-110.5" font-family="Helvetica,sans-Serif" font-size="10.00">proj.selekcjanatur.GenPredkosc</text>
<text xml:space="preserve" text-anchor="start" x="50.12" y="-98.5" font-family="Helvetica,sans-Serif" font-size="10.00">Chodzenia</text>
<text xml:space="preserve" text-anchor="start" x="9.75" y="-82.5" font-family="Helvetica,sans-Serif" font-size="10.00">&#45;</text>
<text xml:space="preserve" text-anchor="start" x="22.5" y="-82.5" font-family="Helvetica,sans-Serif" font-size="10.00">final float wartosc</text>
<text xml:space="preserve" text-anchor="start" x="8.25" y="-66.5" font-family="Helvetica,sans-Serif" font-size="10.00">+</text>
<text xml:space="preserve" text-anchor="start" x="22.5" y="-66.5" font-family="Helvetica,sans-Serif" font-size="10.00">GenPredkoscChodzenia()</text>
<text xml:space="preserve" text-anchor="start" x="8.25" y="-50.5" font-family="Helvetica,sans-Serif" font-size="10.00">+</text>
<text xml:space="preserve" text-anchor="start" x="22.5" y="-50.5" font-family="Helvetica,sans-Serif" font-size="10.00">GenPredkoscChodzenia</text>
<text xml:space="preserve" text-anchor="start" x="22.5" y="-38.5" font-family="Helvetica,sans-Serif" font-size="10.00">(float wartosc)</text>
<text xml:space="preserve" text-anchor="start" x="8.25" y="-22.5" font-family="Helvetica,sans-Serif" font-size="10.00">+</text>
<text xml:space="preserve" text-anchor="start" x="22.5" y="-22.5" font-family="Helvetica,sans-Serif" font-size="10.00">float wartosc()</text>
<text xml:space="preserve" text-anchor="start" x="8.25" y="-6.5" font-family="Helvetica,sans-Serif" font-size="10.00">+</text>
<text xml:space="preserve" text-anchor="start" x="22.5" y="-6.5" font-family="Helvetica,sans-Serif" font-size="10.00">Gen odziedzicz()</text>
<polygon fill="#666666" stroke="#666666" points="0,-94 0,-94 146.75,-94 146.75,-94 0,-94"/>
<polygon fill="#666666" stroke="#666666" points="0,-78 0,-78 20.5,-78 20.5,-78 0,-78"/>
<polygon fill="#666666" stroke="#666666" points="20.5,-78 20.5,-78 146.75,-78 146.75,-78 20.5,-78"/>
<polygon fill="none" stroke="#666666" points="0,0 0,-124 146.75,-124 146.75,0 0,0"/>
</a>
</g>
</g>
<!-- Node2 -->
<g id="Node000002" class="node">
<title>Node2</title>
<g id="a_Node000002"><a xlink:href="interfaceproj_1_1selekcjanatur_1_1_gen.html" target="_top" xlink:title="Interfejs reprezentujący gen w symulacji ewolucyjnej.">
<polygon fill="white" stroke="none" points="126.12,-228 20.62,-228 20.62,-160 126.12,-160 126.12,-228"/>
<text xml:space="preserve" text-anchor="start" x="24.62" y="-214.5" font-family="Helvetica,sans-Serif" font-size="10.00">proj.selekcjanatur.Gen</text>
<text xml:space="preserve" text-anchor="start" x="71.88" y="-198.5" font-family="Helvetica,sans-Serif" font-size="10.00"> </text>
<text xml:space="preserve" text-anchor="start" x="28.12" y="-182.5" font-family="Helvetica,sans-Serif" font-size="10.00">+</text>
<text xml:space="preserve" text-anchor="start" x="41.62" y="-182.5" font-family="Helvetica,sans-Serif" font-size="10.00">float wartosc()</text>
<text xml:space="preserve" text-anchor="start" x="28.12" y="-166.5" font-family="Helvetica,sans-Serif" font-size="10.00">+</text>
<text xml:space="preserve" text-anchor="start" x="41.62" y="-166.5" font-family="Helvetica,sans-Serif" font-size="10.00">Gen odziedzicz()</text>
<polygon fill="#666666" stroke="#666666" points="20.62,-210 20.62,-210 126.12,-210 126.12,-210 20.62,-210"/>
<polygon fill="#666666" stroke="#666666" points="20.62,-194 20.62,-194 126.12,-194 126.12,-194 20.62,-194"/>
<polygon fill="none" stroke="#666666" points="20.62,-160 20.62,-228 126.12,-228 126.12,-160 20.62,-160"/>
</a>
</g>
</g>
<!-- Node2&#45;&gt;Node1 -->
<g id="edge1_Node000001_Node000002" class="edge">
<title>Node2&#45;&gt;Node1</title>
<g id="a_edge1_Node000001_Node000002"><a xlink:title=" ">
<path fill="none" stroke="#63b8ff" d="M73.38,-148.84C73.38,-140.81 73.38,-132.31 73.38,-123.9"/>
<polygon fill="none" stroke="#63b8ff" points="69.88,-148.68 73.38,-158.68 76.88,-148.68 69.88,-148.68"/>
</a>
</g>
</g>
</g>
</svg>
