<?xml version="1.0" encoding="UTF-8" standalone="no"?>
<!DOCTYPE svg PUBLIC "-//W3C//DTD SVG 1.1//EN"
 "http://www.w3.org/Graphics/SVG/1.1/DTD/svg11.dtd">
<!-- Generated by graphviz version 13.0.1 (20250615.1724)
 -->
<!-- Title: proj.selekcjanatur.Symulacja.Symulacja Pages: 1 -->
<svg width="559pt" height="105pt"
 viewBox="0.00 0.00 559.00 105.00" xmlns="http://www.w3.org/2000/svg" xmlns:xlink="http://www.w3.org/1999/xlink">
<g id="graph0" class="graph" transform="scale(1 1) rotate(0) translate(4 101.19)">
<title>proj.selekcjanatur.Symulacja.Symulacja</title>
<!-- Node1 -->
<g id="Node000001" class="node">
<title>Node1</title>
<g id="a_Node000001"><a xlink:title="Konstruktor inicjalizujący symulację">
<polygon fill="#999999" stroke="#666666" points="144.25,-82 0,-82 0,-50 144.25,-50 144.25,-82"/>
<text xml:space="preserve" text-anchor="start" x="8" y="-68.5" font-family="Helvetica,sans-Serif" font-size="10.00">proj.selekcjanatur.Symulacja.</text>
<text xml:space="preserve" text-anchor="middle" x="72.12" y="-56.5" font-family="Helvetica,sans-Serif" font-size="10.00">Symulacja</text>
</a>
</g>
</g>
<!-- Node2 -->
<g id="Node000002" class="node">
<title>Node2</title>
<g id="a_Node000002"><a xlink:href="classproj_1_1selekcjanatur_1_1_symulacja.html#adca30037183a0fade601724dd9b8f1bd" target="_top" xlink:title="Dodaje wpis do dziennika zdarzeń">
<polygon fill="white" stroke="#666666" points="551.25,-82 383.75,-82 383.75,-50 551.25,-50 551.25,-82"/>
<text xml:space="preserve" text-anchor="start" x="391.75" y="-68.5" font-family="Helvetica,sans-Serif" font-size="10.00">proj.selekcjanatur.Symulacja.dodaj</text>
<text xml:space="preserve" text-anchor="middle" x="467.5" y="-56.5" font-family="Helvetica,sans-Serif" font-size="10.00">DoDziennika</text>
</a>
</g>
</g>
<!-- Node1&#45;&gt;Node2 -->
<g id="edge1_Node000001_Node000002" class="edge">
<title>Node1&#45;&gt;Node2</title>
<g id="a_edge1_Node000001_Node000002"><a xlink:title=" ">
<path fill="none" stroke="#63b8ff" d="M132.76,-82.47C148.11,-86 164.69,-89.21 180.25,-91 254.21,-99.52 273.71,-98.71 347.75,-91 361.31,-89.59 375.6,-87.29 389.39,-84.65"/>
<polygon fill="#63b8ff" stroke="#63b8ff" points="389.71,-88.16 398.83,-82.77 388.33,-81.29 389.71,-88.16"/>
</a>
</g>
</g>
<!-- Node3 -->
<g id="Node000003" class="node">
<title>Node3</title>
<g id="a_Node000003"><a xlink:href="classproj_1_1selekcjanatur_1_1_symulacja.html#ab361a78b8ca5a29d85b023553d4490f5" target="_top" xlink:title="Dodaje losowe jedzenie na planszę">
<polygon fill="white" stroke="#666666" points="347.75,-82 180.25,-82 180.25,-50 347.75,-50 347.75,-82"/>
<text xml:space="preserve" text-anchor="start" x="188.25" y="-68.5" font-family="Helvetica,sans-Serif" font-size="10.00">proj.selekcjanatur.Symulacja.dodaj</text>
<text xml:space="preserve" text-anchor="middle" x="264" y="-56.5" font-family="Helvetica,sans-Serif" font-size="10.00">LosoweJedzenie</text>
</a>
</g>
</g>
<!-- Node1&#45;&gt;Node3 -->
<g id="edge2_Node000001_Node000003" class="edge">
<title>Node1&#45;&gt;Node3</title>
<g id="a_edge2_Node000001_Node000003"><a xlink:title=" ">
<path fill="none" stroke="#63b8ff" d="M144.64,-66C152.5,-66 160.59,-66 168.67,-66"/>
<polygon fill="#63b8ff" stroke="#63b8ff" points="168.55,-69.5 178.55,-66 168.55,-62.5 168.55,-69.5"/>
</a>
</g>
</g>
<!-- Node4 -->
<g id="Node000004" class="node">
<title>Node4</title>
<g id="a_Node000004"><a xlink:href="classproj_1_1selekcjanatur_1_1_symulacja.html#a2728068a09ceb38515acafb5547d86b3" target="_top" xlink:title="Dodaje losowych ludzi na planszę">
<polygon fill="white" stroke="#666666" points="347.75,-32 180.25,-32 180.25,0 347.75,0 347.75,-32"/>
<text xml:space="preserve" text-anchor="start" x="188.25" y="-18.5" font-family="Helvetica,sans-Serif" font-size="10.00">proj.selekcjanatur.Symulacja.dodaj</text>
<text xml:space="preserve" text-anchor="middle" x="264" y="-6.5" font-family="Helvetica,sans-Serif" font-size="10.00">LosowychLudzi</text>
</a>
</g>
</g>
<!-- Node1&#45;&gt;Node4 -->
<g id="edge4_Node000001_Node000004" class="edge">
<title>Node1&#45;&gt;Node4</title>
<g id="a_edge4_Node000001_Node000004"><a xlink:title=" ">
<path fill="none" stroke="#63b8ff" d="M135.56,-49.56C152.84,-45.01 171.74,-40.03 189.58,-35.33"/>
<polygon fill="#63b8ff" stroke="#63b8ff" points="190.28,-38.77 199.06,-32.84 188.5,-32 190.28,-38.77"/>
</a>
</g>
</g>
<!-- Node3&#45;&gt;Node2 -->
<g id="edge3_Node000003_Node000002" class="edge">
<title>Node3&#45;&gt;Node2</title>
<g id="a_edge3_Node000003_Node000002"><a xlink:title=" ">
<path fill="none" stroke="#63b8ff" d="M348.12,-66C356.08,-66 364.19,-66 372.24,-66"/>
<polygon fill="#63b8ff" stroke="#63b8ff" points="372.06,-69.5 382.06,-66 372.06,-62.5 372.06,-69.5"/>
</a>
</g>
</g>
<!-- Node4&#45;&gt;Node2 -->
<g id="edge6_Node000004_Node000002" class="edge">
<title>Node4&#45;&gt;Node2</title>
<g id="a_edge6_Node000004_Node000002"><a xlink:title=" ">
<path fill="none" stroke="#63b8ff" d="M331.26,-32.44C349.76,-37.03 370.04,-42.06 389.12,-46.8"/>
<polygon fill="#63b8ff" stroke="#63b8ff" points="388.18,-50.17 398.73,-49.18 389.87,-43.38 388.18,-50.17"/>
</a>
</g>
</g>
<!-- Node5 -->
<g id="Node000005" class="node">
<title>Node5</title>
<g id="a_Node000005"><a xlink:href="classproj_1_1selekcjanatur_1_1_czlowiek.html#ac88bbff18c715a98a16d48103b3b495b" target="_top" xlink:title="Sprawdza płeć człowieka.">
<polygon fill="white" stroke="#666666" points="544.88,-32 390.12,-32 390.12,0 544.88,0 544.88,-32"/>
<text xml:space="preserve" text-anchor="start" x="398.12" y="-18.5" font-family="Helvetica,sans-Serif" font-size="10.00">proj.selekcjanatur.Czlowiek.czy</text>
<text xml:space="preserve" text-anchor="middle" x="467.5" y="-6.5" font-family="Helvetica,sans-Serif" font-size="10.00">Mezczyzna</text>
</a>
</g>
</g>
<!-- Node4&#45;&gt;Node5 -->
<g id="edge5_Node000004_Node000005" class="edge">
<title>Node4&#45;&gt;Node5</title>
<g id="a_edge5_Node000004_Node000005"><a xlink:title=" ">
<path fill="none" stroke="#63b8ff" d="M348.12,-16C358.12,-16 368.37,-16 378.44,-16"/>
<polygon fill="#63b8ff" stroke="#63b8ff" points="378.2,-19.5 388.2,-16 378.2,-12.5 378.2,-19.5"/>
</a>
</g>
</g>
</g>
</svg>
