<?xml version="1.0" encoding="UTF-8" standalone="no"?>
<!DOCTYPE svg PUBLIC "-//W3C//DTD SVG 1.1//EN"
 "http://www.w3.org/Graphics/SVG/1.1/DTD/svg11.dtd">
<!-- Generated by graphviz version 13.0.1 (20250615.1724)
 -->
<!-- Title: proj.selekcjanatur.GenWzrok Pages: 1 -->
<svg width="142pt" height="212pt"
 viewBox="0.00 0.00 142.00 212.00" xmlns="http://www.w3.org/2000/svg" xmlns:xlink="http://www.w3.org/1999/xlink">
<g id="graph0" class="graph" transform="scale(1 1) rotate(0) translate(4 208)">
<title>proj.selekcjanatur.GenWzrok</title>
<!-- Node1 -->
<g id="Node000001" class="node">
<title>Node1</title>
<g id="a_Node000001"><a xlink:title="Klasa implementująca gen zasięgu wzroku.">
<polygon fill="#999999" stroke="none" points="134,-100 0,-100 0,0 134,0 134,-100"/>
<text xml:space="preserve" text-anchor="start" x="4" y="-86.5" font-family="Helvetica,sans-Serif" font-size="10.00">proj.selekcjanatur.GenWzrok</text>
<text xml:space="preserve" text-anchor="start" x="7.31" y="-70.5" font-family="Helvetica,sans-Serif" font-size="10.00">&#45;</text>
<text xml:space="preserve" text-anchor="start" x="17.62" y="-70.5" font-family="Helvetica,sans-Serif" font-size="10.00">final float wartosc</text>
<text xml:space="preserve" text-anchor="start" x="5.81" y="-54.5" font-family="Helvetica,sans-Serif" font-size="10.00">+</text>
<text xml:space="preserve" text-anchor="start" x="17.62" y="-54.5" font-family="Helvetica,sans-Serif" font-size="10.00">GenWzrok()</text>
<text xml:space="preserve" text-anchor="start" x="5.81" y="-38.5" font-family="Helvetica,sans-Serif" font-size="10.00">+</text>
<text xml:space="preserve" text-anchor="start" x="17.62" y="-38.5" font-family="Helvetica,sans-Serif" font-size="10.00">float wartosc()</text>
<text xml:space="preserve" text-anchor="start" x="5.81" y="-22.5" font-family="Helvetica,sans-Serif" font-size="10.00">+</text>
<text xml:space="preserve" text-anchor="start" x="17.62" y="-22.5" font-family="Helvetica,sans-Serif" font-size="10.00">Gen odziedzicz()</text>
<text xml:space="preserve" text-anchor="start" x="7.31" y="-6.5" font-family="Helvetica,sans-Serif" font-size="10.00">&#45;</text>
<text xml:space="preserve" text-anchor="start" x="17.62" y="-6.5" font-family="Helvetica,sans-Serif" font-size="10.00">GenWzrok(float wartosc)</text>
<polygon fill="#666666" stroke="#666666" points="0,-82 0,-82 134,-82 134,-82 0,-82"/>
<polygon fill="#666666" stroke="#666666" points="0,-66 0,-66 15.62,-66 15.62,-66 0,-66"/>
<polygon fill="#666666" stroke="#666666" points="15.62,-66 15.62,-66 134,-66 134,-66 15.62,-66"/>
<polygon fill="none" stroke="#666666" points="0,0 0,-100 134,-100 134,0 0,0"/>
</a>
</g>
</g>
<!-- Node2 -->
<g id="Node000002" class="node">
<title>Node2</title>
<g id="a_Node000002"><a xlink:href="interfaceproj_1_1selekcjanatur_1_1_gen.html" target="_top" xlink:title="Interfejs reprezentujący gen w symulacji ewolucyjnej.">
<polygon fill="white" stroke="none" points="119.75,-204 14.25,-204 14.25,-136 119.75,-136 119.75,-204"/>
<text xml:space="preserve" text-anchor="start" x="18.25" y="-190.5" font-family="Helvetica,sans-Serif" font-size="10.00">proj.selekcjanatur.Gen</text>
<text xml:space="preserve" text-anchor="start" x="65.5" y="-174.5" font-family="Helvetica,sans-Serif" font-size="10.00"> </text>
<text xml:space="preserve" text-anchor="start" x="21.75" y="-158.5" font-family="Helvetica,sans-Serif" font-size="10.00">+</text>
<text xml:space="preserve" text-anchor="start" x="35.25" y="-158.5" font-family="Helvetica,sans-Serif" font-size="10.00">float wartosc()</text>
<text xml:space="preserve" text-anchor="start" x="21.75" y="-142.5" font-family="Helvetica,sans-Serif" font-size="10.00">+</text>
<text xml:space="preserve" text-anchor="start" x="35.25" y="-142.5" font-family="Helvetica,sans-Serif" font-size="10.00">Gen odziedzicz()</text>
<polygon fill="#666666" stroke="#666666" points="14.25,-186 14.25,-186 119.75,-186 119.75,-186 14.25,-186"/>
<polygon fill="#666666" stroke="#666666" points="14.25,-170 14.25,-170 119.75,-170 119.75,-170 14.25,-170"/>
<polygon fill="none" stroke="#666666" points="14.25,-136 14.25,-204 119.75,-204 119.75,-136 14.25,-136"/>
</a>
</g>
</g>
<!-- Node2&#45;&gt;Node1 -->
<g id="edge1_Node000001_Node000002" class="edge">
<title>Node2&#45;&gt;Node1</title>
<g id="a_edge1_Node000001_Node000002"><a xlink:title=" ">
<path fill="none" stroke="#63b8ff" d="M67,-124.83C67,-116.59 67,-107.94 67,-99.58"/>
<polygon fill="none" stroke="#63b8ff" points="63.5,-124.62 67,-134.62 70.5,-124.62 63.5,-124.62"/>
</a>
</g>
</g>
</g>
</svg>
