<?xml version="1.0" encoding="UTF-8" standalone="no"?>
<!DOCTYPE svg PUBLIC "-//W3C//DTD SVG 1.1//EN"
 "http://www.w3.org/Graphics/SVG/1.1/DTD/svg11.dtd">
<!-- Generated by graphviz version 13.0.1 (20250615.1724)
 -->
<!-- Title: proj.selekcjanatur.GenZapotrzebowanieEnergetyczne Pages: 1 -->
<svg width="188pt" height="236pt"
 viewBox="0.00 0.00 188.00 236.00" xmlns="http://www.w3.org/2000/svg" xmlns:xlink="http://www.w3.org/1999/xlink">
<g id="graph0" class="graph" transform="scale(1 1) rotate(0) translate(4 232)">
<title>proj.selekcjanatur.GenZapotrzebowanieEnergetyczne</title>
<!-- Node1 -->
<g id="Node000001" class="node">
<title>Node1</title>
<g id="a_Node000001"><a xlink:title="Klasa implementująca gen zapotrzebowania energetycznego.">
<polygon fill="#999999" stroke="none" points="179.75,-124 0,-124 0,0 179.75,0 179.75,-124"/>
<text xml:space="preserve" text-anchor="start" x="4" y="-110.5" font-family="Helvetica,sans-Serif" font-size="10.00">proj.selekcjanatur.GenZapotrzebowanie</text>
<text xml:space="preserve" text-anchor="start" x="59.88" y="-98.5" font-family="Helvetica,sans-Serif" font-size="10.00">Energetyczne</text>
<text xml:space="preserve" text-anchor="start" x="6.38" y="-82.5" font-family="Helvetica,sans-Serif" font-size="10.00">&#45;</text>
<text xml:space="preserve" text-anchor="start" x="15.75" y="-82.5" font-family="Helvetica,sans-Serif" font-size="10.00">final float wartosc</text>
<text xml:space="preserve" text-anchor="start" x="4.88" y="-66.5" font-family="Helvetica,sans-Serif" font-size="10.00">+</text>
<text xml:space="preserve" text-anchor="start" x="15.75" y="-66.5" font-family="Helvetica,sans-Serif" font-size="10.00">GenZapotrzebowanieEnergetyczne()</text>
<text xml:space="preserve" text-anchor="start" x="4.88" y="-50.5" font-family="Helvetica,sans-Serif" font-size="10.00">+</text>
<text xml:space="preserve" text-anchor="start" x="15.75" y="-50.5" font-family="Helvetica,sans-Serif" font-size="10.00">GenZapotrzebowanieEnergetyczne</text>
<text xml:space="preserve" text-anchor="start" x="15.75" y="-38.5" font-family="Helvetica,sans-Serif" font-size="10.00">(float wartosc)</text>
<text xml:space="preserve" text-anchor="start" x="4.88" y="-22.5" font-family="Helvetica,sans-Serif" font-size="10.00">+</text>
<text xml:space="preserve" text-anchor="start" x="15.75" y="-22.5" font-family="Helvetica,sans-Serif" font-size="10.00">float wartosc()</text>
<text xml:space="preserve" text-anchor="start" x="4.88" y="-6.5" font-family="Helvetica,sans-Serif" font-size="10.00">+</text>
<text xml:space="preserve" text-anchor="start" x="15.75" y="-6.5" font-family="Helvetica,sans-Serif" font-size="10.00">Gen odziedzicz()</text>
<polygon fill="#666666" stroke="#666666" points="0,-94 0,-94 179.75,-94 179.75,-94 0,-94"/>
<polygon fill="#666666" stroke="#666666" points="0,-78 0,-78 13.75,-78 13.75,-78 0,-78"/>
<polygon fill="#666666" stroke="#666666" points="13.75,-78 13.75,-78 179.75,-78 179.75,-78 13.75,-78"/>
<polygon fill="none" stroke="#666666" points="0,0 0,-124 179.75,-124 179.75,0 0,0"/>
</a>
</g>
</g>
<!-- Node2 -->
<g id="Node000002" class="node">
<title>Node2</title>
<g id="a_Node000002"><a xlink:href="interfaceproj_1_1selekcjanatur_1_1_gen.html" target="_top" xlink:title="Interfejs reprezentujący gen w symulacji ewolucyjnej.">
<polygon fill="white" stroke="none" points="142.62,-228 37.12,-228 37.12,-160 142.62,-160 142.62,-228"/>
<text xml:space="preserve" text-anchor="start" x="41.12" y="-214.5" font-family="Helvetica,sans-Serif" font-size="10.00">proj.selekcjanatur.Gen</text>
<text xml:space="preserve" text-anchor="start" x="88.38" y="-198.5" font-family="Helvetica,sans-Serif" font-size="10.00"> </text>
<text xml:space="preserve" text-anchor="start" x="44.62" y="-182.5" font-family="Helvetica,sans-Serif" font-size="10.00">+</text>
<text xml:space="preserve" text-anchor="start" x="58.12" y="-182.5" font-family="Helvetica,sans-Serif" font-size="10.00">float wartosc()</text>
<text xml:space="preserve" text-anchor="start" x="44.62" y="-166.5" font-family="Helvetica,sans-Serif" font-size="10.00">+</text>
<text xml:space="preserve" text-anchor="start" x="58.12" y="-166.5" font-family="Helvetica,sans-Serif" font-size="10.00">Gen odziedzicz()</text>
<polygon fill="#666666" stroke="#666666" points="37.12,-210 37.12,-210 142.62,-210 142.62,-210 37.12,-210"/>
<polygon fill="#666666" stroke="#666666" points="37.12,-194 37.12,-194 142.62,-194 142.62,-194 37.12,-194"/>
<polygon fill="none" stroke="#666666" points="37.12,-160 37.12,-228 142.62,-228 142.62,-160 37.12,-160"/>
</a>
</g>
</g>
<!-- Node2&#45;&gt;Node1 -->
<g id="edge1_Node000001_Node000002" class="edge">
<title>Node2&#45;&gt;Node1</title>
<g id="a_edge1_Node000001_Node000002"><a xlink:title=" ">
<path fill="none" stroke="#63b8ff" d="M89.88,-148.84C89.88,-140.81 89.88,-132.31 89.88,-123.9"/>
<polygon fill="none" stroke="#63b8ff" points="86.38,-148.68 89.88,-158.68 93.38,-148.68 86.38,-148.68"/>
</a>
</g>
</g>
</g>
</svg>
