<?xml version="1.0" encoding="UTF-8" standalone="no"?>
<!DOCTYPE svg PUBLIC "-//W3C//DTD SVG 1.1//EN"
 "http://www.w3.org/Graphics/SVG/1.1/DTD/svg11.dtd">
<!-- Generated by graphviz version 13.0.1 (20250615.1724)
 -->
<!-- Title: proj.selekcjanatur.Symulacja.zapiszDziennikDoPliku Pages: 1 -->
<svg width="401pt" height="78pt"
 viewBox="0.00 0.00 401.00 78.00" xmlns="http://www.w3.org/2000/svg" xmlns:xlink="http://www.w3.org/1999/xlink">
<g id="graph0" class="graph" transform="scale(1 1) rotate(0) translate(4 74)">
<title>proj.selekcjanatur.Symulacja.zapiszDziennikDoPliku</title>
<!-- Node1 -->
<g id="Node000001" class="node">
<title>Node1</title>
<g id="a_Node000001"><a xlink:title="Zapisuje dziennik zdarzeń do pliku.">
<polygon fill="#999999" stroke="#666666" points="392.75,-54 220,-54 220,-22 392.75,-22 392.75,-54"/>
<text xml:space="preserve" text-anchor="start" x="228" y="-40.5" font-family="Helvetica,sans-Serif" font-size="10.00">proj.selekcjanatur.Symulacja.zapisz</text>
<text xml:space="preserve" text-anchor="middle" x="306.38" y="-28.5" font-family="Helvetica,sans-Serif" font-size="10.00">DziennikDoPliku</text>
</a>
</g>
</g>
<!-- Node2 -->
<g id="Node000002" class="node">
<title>Node2</title>
<g id="a_Node000002"><a xlink:href="classproj_1_1selekcjanatur_1_1_app.html#a5b449f0612c86ffe7eaa088a307e9a3b" target="_top" xlink:title="Główna metoda uruchamiająca aplikację.">
<polygon fill="white" stroke="#666666" points="160.38,-70 23.62,-70 23.62,-50 160.38,-50 160.38,-70"/>
<text xml:space="preserve" text-anchor="middle" x="92" y="-56.5" font-family="Helvetica,sans-Serif" font-size="10.00">proj.selekcjanatur.App.main</text>
</a>
</g>
</g>
<!-- Node1&#45;&gt;Node2 -->
<g id="edge1_Node000001_Node000002" class="edge">
<title>Node1&#45;&gt;Node2</title>
<g id="a_edge1_Node000001_Node000002"><a xlink:title=" ">
<path fill="none" stroke="#63b8ff" d="M208.51,-48.03C192.4,-49.7 176,-51.4 160.81,-52.98"/>
<polygon fill="#63b8ff" stroke="#63b8ff" points="208.51,-51.55 218.1,-47.04 207.79,-44.59 208.51,-51.55"/>
</a>
</g>
</g>
<!-- Node3 -->
<g id="Node000003" class="node">
<title>Node3</title>
<g id="a_Node000003"><a xlink:href="classproj_1_1selekcjanatur_1_1_app_controller.html#a6c1db90f850fed3c52f9e23270864b1a" target="_top" xlink:title="Wyświetla okno dialogowe po zakończeniu symulacji.">
<polygon fill="white" stroke="#666666" points="184,-32 0,-32 0,0 184,0 184,-32"/>
<text xml:space="preserve" text-anchor="start" x="8" y="-18.5" font-family="Helvetica,sans-Serif" font-size="10.00">proj.selekcjanatur.AppController.pokaz</text>
<text xml:space="preserve" text-anchor="middle" x="92" y="-6.5" font-family="Helvetica,sans-Serif" font-size="10.00">OknoZakonczenia</text>
</a>
</g>
</g>
<!-- Node1&#45;&gt;Node3 -->
<g id="edge2_Node000001_Node000003" class="edge">
<title>Node1&#45;&gt;Node3</title>
<g id="a_edge2_Node000001_Node000003"><a xlink:title=" ">
<path fill="none" stroke="#63b8ff" d="M208.35,-27.95C200.34,-27.12 192.26,-26.28 184.29,-25.46"/>
<polygon fill="#63b8ff" stroke="#63b8ff" points="207.79,-31.41 218.1,-28.96 208.51,-24.45 207.79,-31.41"/>
</a>
</g>
</g>
</g>
</svg>
