<?xml version="1.0" encoding="UTF-8" standalone="no"?>
<!DOCTYPE svg PUBLIC "-//W3C//DTD SVG 1.1//EN"
 "http://www.w3.org/Graphics/SVG/1.1/DTD/svg11.dtd">
<!-- Generated by graphviz version 13.0.1 (20250615.1724)
 -->
<!-- Title: proj.selekcjanatur.Symulacja.dodajLosoweJedzenie Pages: 1 -->
<svg width="639pt" height="78pt"
 viewBox="0.00 0.00 639.00 78.00" xmlns="http://www.w3.org/2000/svg" xmlns:xlink="http://www.w3.org/1999/xlink">
<g id="graph0" class="graph" transform="scale(1 1) rotate(0) translate(4 74)">
<title>proj.selekcjanatur.Symulacja.dodajLosoweJedzenie</title>
<!-- Node1 -->
<g id="Node000001" class="node">
<title>Node1</title>
<g id="a_Node000001"><a xlink:title="Dodaje losowe jedzenie na planszę">
<polygon fill="#999999" stroke="#666666" points="630.75,-54 463.25,-54 463.25,-22 630.75,-22 630.75,-54"/>
<text xml:space="preserve" text-anchor="start" x="471.25" y="-40.5" font-family="Helvetica,sans-Serif" font-size="10.00">proj.selekcjanatur.Symulacja.dodaj</text>
<text xml:space="preserve" text-anchor="middle" x="547" y="-28.5" font-family="Helvetica,sans-Serif" font-size="10.00">LosoweJedzenie</text>
</a>
</g>
</g>
<!-- Node2 -->
<g id="Node000002" class="node">
<title>Node2</title>
<g id="a_Node000002"><a xlink:href="classproj_1_1selekcjanatur_1_1_symulacja.html#af140417936a5d3f7ca9c02af9dbb2814" target="_top" xlink:title="Aktualizuje stan symulacji (co 3 klatki)">
<polygon fill="white" stroke="#666666" points="427.25,-70 221.5,-70 221.5,-50 427.25,-50 427.25,-70"/>
<text xml:space="preserve" text-anchor="middle" x="324.38" y="-56.5" font-family="Helvetica,sans-Serif" font-size="10.00">proj.selekcjanatur.Symulacja.aktualizujStan</text>
</a>
</g>
</g>
<!-- Node1&#45;&gt;Node2 -->
<g id="edge1_Node000001_Node000002" class="edge">
<title>Node1&#45;&gt;Node2</title>
<g id="a_edge1_Node000001_Node000002"><a xlink:title=" ">
<path fill="none" stroke="#63b8ff" d="M451.49,-47.42C443.63,-48.21 435.66,-49 427.74,-49.79"/>
<polygon fill="#63b8ff" stroke="#63b8ff" points="451.8,-50.91 461.4,-46.44 451.1,-43.95 451.8,-50.91"/>
</a>
</g>
</g>
<!-- Node4 -->
<g id="Node000004" class="node">
<title>Node4</title>
<g id="a_Node000004"><a xlink:href="classproj_1_1selekcjanatur_1_1_symulacja.html#a41de65a2199621bc5386131e337629f5" target="_top" xlink:title="Konstruktor inicjalizujący symulację">
<polygon fill="white" stroke="#666666" points="396.5,-32 252.25,-32 252.25,0 396.5,0 396.5,-32"/>
<text xml:space="preserve" text-anchor="start" x="260.25" y="-18.5" font-family="Helvetica,sans-Serif" font-size="10.00">proj.selekcjanatur.Symulacja.</text>
<text xml:space="preserve" text-anchor="middle" x="324.38" y="-6.5" font-family="Helvetica,sans-Serif" font-size="10.00">Symulacja</text>
</a>
</g>
</g>
<!-- Node1&#45;&gt;Node4 -->
<g id="edge3_Node000001_Node000004" class="edge">
<title>Node1&#45;&gt;Node4</title>
<g id="a_edge3_Node000001_Node000004"><a xlink:title=" ">
<path fill="none" stroke="#63b8ff" d="M451.58,-28.58C433.24,-26.76 414.29,-24.87 396.84,-23.13"/>
<polygon fill="#63b8ff" stroke="#63b8ff" points="451.1,-32.05 461.4,-29.56 451.8,-25.09 451.1,-32.05"/>
</a>
</g>
</g>
<!-- Node3 -->
<g id="Node000003" class="node">
<title>Node3</title>
<g id="a_Node000003"><a xlink:href="classproj_1_1selekcjanatur_1_1_symulacja.html#adec9a02326fa916fa822eddad509050f" target="_top" xlink:title="Aktualizuje stan symulacji o jeden krok.">
<polygon fill="white" stroke="#666666" points="185.5,-70 0,-70 0,-50 185.5,-50 185.5,-70"/>
<text xml:space="preserve" text-anchor="middle" x="92.75" y="-56.5" font-family="Helvetica,sans-Serif" font-size="10.00">proj.selekcjanatur.Symulacja.aktualizuj</text>
</a>
</g>
</g>
<!-- Node2&#45;&gt;Node3 -->
<g id="edge2_Node000002_Node000003" class="edge">
<title>Node2&#45;&gt;Node3</title>
<g id="a_edge2_Node000002_Node000003"><a xlink:title=" ">
<path fill="none" stroke="#63b8ff" d="M209.89,-60C201.78,-60 193.67,-60 185.71,-60"/>
<polygon fill="#63b8ff" stroke="#63b8ff" points="209.81,-63.5 219.81,-60 209.81,-56.5 209.81,-63.5"/>
</a>
</g>
</g>
</g>
</svg>
