<?xml version="1.0" encoding="UTF-8" standalone="no"?>
<!DOCTYPE svg PUBLIC "-//W3C//DTD SVG 1.1//EN"
 "http://www.w3.org/Graphics/SVG/1.1/DTD/svg11.dtd">
<!-- Generated by graphviz version 13.0.1 (20250615.1724)
 -->
<!-- Title: proj.selekcjanatur.SymulacjaPlik.aktualizuj Pages: 1 -->
<svg width="327pt" height="190pt"
 viewBox="0.00 0.00 327.00 190.00" xmlns="http://www.w3.org/2000/svg" xmlns:xlink="http://www.w3.org/1999/xlink">
<g id="graph0" class="graph" transform="scale(1 1) rotate(0) translate(4 186)">
<title>proj.selekcjanatur.SymulacjaPlik.aktualizuj</title>
<!-- Node1 -->
<g id="Node000001" class="node">
<title>Node1</title>
<g id="a_Node000001"><a xlink:title="Aktualizuje stan symulacji o jeden krok.">
<polygon fill="#999999" stroke="#666666" points="141.25,-107 0,-107 0,-75 141.25,-75 141.25,-107"/>
<text xml:space="preserve" text-anchor="start" x="8" y="-93.5" font-family="Helvetica,sans-Serif" font-size="10.00">proj.selekcjanatur.Symulacja</text>
<text xml:space="preserve" text-anchor="middle" x="70.62" y="-81.5" font-family="Helvetica,sans-Serif" font-size="10.00">Plik.aktualizuj</text>
</a>
</g>
</g>
<!-- Node2 -->
<g id="Node000002" class="node">
<title>Node2</title>
<g id="a_Node000002"><a xlink:href="classproj_1_1selekcjanatur_1_1_symulacja_plik.html#ac2f0839c0c8670ed3801690546d03d23" target="_top" xlink:title="Dodaje człowieka na podstawie danych z dziennika.">
<polygon fill="white" stroke="#666666" points="318.5,-182 177.25,-182 177.25,-150 318.5,-150 318.5,-182"/>
<text xml:space="preserve" text-anchor="start" x="185.25" y="-168.5" font-family="Helvetica,sans-Serif" font-size="10.00">proj.selekcjanatur.Symulacja</text>
<text xml:space="preserve" text-anchor="middle" x="247.88" y="-156.5" font-family="Helvetica,sans-Serif" font-size="10.00">Plik.dodajCzlowieka</text>
</a>
</g>
</g>
<!-- Node1&#45;&gt;Node2 -->
<g id="edge1_Node000001_Node000002" class="edge">
<title>Node1&#45;&gt;Node2</title>
<g id="a_edge1_Node000001_Node000002"><a xlink:title=" ">
<path fill="none" stroke="#63b8ff" d="M104.08,-107.37C124.79,-117.56 152.33,-130.66 177.25,-141 180.86,-142.5 184.59,-143.99 188.37,-145.46"/>
<polygon fill="#63b8ff" stroke="#63b8ff" points="187.07,-148.71 197.66,-148.99 189.55,-142.17 187.07,-148.71"/>
</a>
</g>
</g>
<!-- Node3 -->
<g id="Node000003" class="node">
<title>Node3</title>
<g id="a_Node000003"><a xlink:href="classproj_1_1selekcjanatur_1_1_symulacja_plik.html#affa9dff3c1ffc985a3ca96055b4534ca" target="_top" xlink:title="Przenosi człowieka na nową pozycję">
<polygon fill="white" stroke="#666666" points="318.5,-132 177.25,-132 177.25,-100 318.5,-100 318.5,-132"/>
<text xml:space="preserve" text-anchor="start" x="185.25" y="-118.5" font-family="Helvetica,sans-Serif" font-size="10.00">proj.selekcjanatur.Symulacja</text>
<text xml:space="preserve" text-anchor="middle" x="247.88" y="-106.5" font-family="Helvetica,sans-Serif" font-size="10.00">Plik.przemiescCzlowieka</text>
</a>
</g>
</g>
<!-- Node1&#45;&gt;Node3 -->
<g id="edge2_Node000001_Node000003" class="edge">
<title>Node1&#45;&gt;Node3</title>
<g id="a_edge2_Node000001_Node000003"><a xlink:title=" ">
<path fill="none" stroke="#63b8ff" d="M141.64,-100.99C149.55,-102.12 157.65,-103.27 165.69,-104.42"/>
<polygon fill="#63b8ff" stroke="#63b8ff" points="165.07,-107.87 175.47,-105.81 166.06,-100.94 165.07,-107.87"/>
</a>
</g>
</g>
<!-- Node4 -->
<g id="Node000004" class="node">
<title>Node4</title>
<g id="a_Node000004"><a xlink:href="classproj_1_1selekcjanatur_1_1_symulacja_plik.html#a50a8cd7b56c409d4f312d49ed30bd42f" target="_top" xlink:title="Usuwa martwego człowieka.">
<polygon fill="white" stroke="#666666" points="318.5,-82 177.25,-82 177.25,-50 318.5,-50 318.5,-82"/>
<text xml:space="preserve" text-anchor="start" x="185.25" y="-68.5" font-family="Helvetica,sans-Serif" font-size="10.00">proj.selekcjanatur.Symulacja</text>
<text xml:space="preserve" text-anchor="middle" x="247.88" y="-56.5" font-family="Helvetica,sans-Serif" font-size="10.00">Plik.usunCzlowieka</text>
</a>
</g>
</g>
<!-- Node1&#45;&gt;Node4 -->
<g id="edge3_Node000001_Node000004" class="edge">
<title>Node1&#45;&gt;Node4</title>
<g id="a_edge3_Node000001_Node000004"><a xlink:title=" ">
<path fill="none" stroke="#63b8ff" d="M141.64,-81.01C149.55,-79.88 157.65,-78.73 165.69,-77.58"/>
<polygon fill="#63b8ff" stroke="#63b8ff" points="166.06,-81.06 175.47,-76.19 165.07,-74.13 166.06,-81.06"/>
</a>
</g>
</g>
<!-- Node5 -->
<g id="Node000005" class="node">
<title>Node5</title>
<g id="a_Node000005"><a xlink:href="classproj_1_1selekcjanatur_1_1_symulacja_plik.html#a5fd6171c7fa48a7581c013b7a852550d" target="_top" xlink:title="Usuwa zjedzone jedzenie.">
<polygon fill="white" stroke="#666666" points="318.5,-32 177.25,-32 177.25,0 318.5,0 318.5,-32"/>
<text xml:space="preserve" text-anchor="start" x="185.25" y="-18.5" font-family="Helvetica,sans-Serif" font-size="10.00">proj.selekcjanatur.Symulacja</text>
<text xml:space="preserve" text-anchor="middle" x="247.88" y="-6.5" font-family="Helvetica,sans-Serif" font-size="10.00">Plik.usunJedzenie</text>
</a>
</g>
</g>
<!-- Node1&#45;&gt;Node5 -->
<g id="edge4_Node000001_Node000005" class="edge">
<title>Node1&#45;&gt;Node5</title>
<g id="a_edge4_Node000001_Node000005"><a xlink:title=" ">
<path fill="none" stroke="#63b8ff" d="M104.08,-74.63C124.79,-64.44 152.33,-51.34 177.25,-41 180.86,-39.5 184.59,-38.01 188.37,-36.54"/>
<polygon fill="#63b8ff" stroke="#63b8ff" points="189.55,-39.83 197.66,-33.01 187.07,-33.29 189.55,-39.83"/>
</a>
</g>
</g>
</g>
</svg>
