<?xml version="1.0" encoding="UTF-8" standalone="no"?>
<!DOCTYPE svg PUBLIC "-//W3C//DTD SVG 1.1//EN"
 "http://www.w3.org/Graphics/SVG/1.1/DTD/svg11.dtd">
<!-- Generated by graphviz version 13.0.1 (20250615.1724)
 -->
<!-- Title: proj.selekcjanatur.Symulacja.aktualizuj Pages: 1 -->
<svg width="870pt" height="420pt"
 viewBox="0.00 0.00 870.00 420.00" xmlns="http://www.w3.org/2000/svg" xmlns:xlink="http://www.w3.org/1999/xlink">
<g id="graph0" class="graph" transform="scale(1 1) rotate(0) translate(4 416)">
<title>proj.selekcjanatur.Symulacja.aktualizuj</title>
<!-- Node1 -->
<g id="Node000001" class="node">
<title>Node1</title>
<g id="a_Node000001"><a xlink:title="Aktualizuje stan symulacji o jeden krok.">
<polygon fill="#999999" stroke="#666666" points="185.5,-224 0,-224 0,-204 185.5,-204 185.5,-224"/>
<text xml:space="preserve" text-anchor="middle" x="92.75" y="-210.5" font-family="Helvetica,sans-Serif" font-size="10.00">proj.selekcjanatur.Symulacja.aktualizuj</text>
</a>
</g>
</g>
<!-- Node2 -->
<g id="Node000002" class="node">
<title>Node2</title>
<g id="a_Node000002"><a xlink:href="classproj_1_1selekcjanatur_1_1_symulacja.html#af140417936a5d3f7ca9c02af9dbb2814" target="_top" xlink:title="Aktualizuje stan symulacji (co 3 klatki)">
<polygon fill="white" stroke="#666666" points="427.25,-158 221.5,-158 221.5,-138 427.25,-138 427.25,-158"/>
<text xml:space="preserve" text-anchor="middle" x="324.38" y="-144.5" font-family="Helvetica,sans-Serif" font-size="10.00">proj.selekcjanatur.Symulacja.aktualizujStan</text>
</a>
</g>
</g>
<!-- Node1&#45;&gt;Node2 -->
<g id="edge1_Node000001_Node000002" class="edge">
<title>Node1&#45;&gt;Node2</title>
<g id="a_edge1_Node000001_Node000002"><a xlink:title=" ">
<path fill="none" stroke="#63b8ff" d="M130.13,-203.54C169.69,-192.17 233.03,-173.97 276.34,-161.52"/>
<polygon fill="#63b8ff" stroke="#63b8ff" points="277.06,-164.95 285.71,-158.83 275.13,-158.23 277.06,-164.95"/>
</a>
</g>
</g>
<!-- Node4 -->
<g id="Node000004" class="node">
<title>Node4</title>
<g id="a_Node000004"><a xlink:href="classproj_1_1selekcjanatur_1_1_symulacja.html#adca30037183a0fade601724dd9b8f1bd" target="_top" xlink:title="Dodaje wpis do dziennika zdarzeń">
<polygon fill="white" stroke="#666666" points="859.38,-183 691.88,-183 691.88,-151 859.38,-151 859.38,-183"/>
<text xml:space="preserve" text-anchor="start" x="699.88" y="-169.5" font-family="Helvetica,sans-Serif" font-size="10.00">proj.selekcjanatur.Symulacja.dodaj</text>
<text xml:space="preserve" text-anchor="middle" x="775.62" y="-157.5" font-family="Helvetica,sans-Serif" font-size="10.00">DoDziennika</text>
</a>
</g>
</g>
<!-- Node1&#45;&gt;Node4 -->
<g id="edge10_Node000001_Node000004" class="edge">
<title>Node1&#45;&gt;Node4</title>
<g id="a_edge10_Node000001_Node000004"><a xlink:title=" ">
<path fill="none" stroke="#63b8ff" d="M185.78,-216.28C297.02,-217.8 489.67,-216.44 653.25,-195 669.37,-192.89 686.48,-189.6 702.62,-186.01"/>
<polygon fill="#63b8ff" stroke="#63b8ff" points="703.17,-189.48 712.13,-183.83 701.6,-182.66 703.17,-189.48"/>
</a>
</g>
</g>
<!-- Node10 -->
<g id="Node000010" class="node">
<title>Node10</title>
<g id="a_Node000010"><a xlink:href="classproj_1_1selekcjanatur_1_1_symulacja.html#a52f53070719050f572593ac7c6908ebd" target="_top" xlink:title="Wykonuje ruch dla danego człowieka.">
<polygon fill="white" stroke="#666666" points="426.12,-312 222.62,-312 222.62,-292 426.12,-292 426.12,-312"/>
<text xml:space="preserve" text-anchor="middle" x="324.38" y="-298.5" font-family="Helvetica,sans-Serif" font-size="10.00">proj.selekcjanatur.Symulacja.wykonajRuch</text>
</a>
</g>
</g>
<!-- Node1&#45;&gt;Node10 -->
<g id="edge11_Node000001_Node000010" class="edge">
<title>Node1&#45;&gt;Node10</title>
<g id="a_edge11_Node000001_Node000010"><a xlink:title=" ">
<path fill="none" stroke="#63b8ff" d="M120.99,-224.44C161.91,-240.12 239.35,-269.8 285.66,-287.55"/>
<polygon fill="#63b8ff" stroke="#63b8ff" points="284.16,-290.72 294.75,-291.03 286.67,-284.18 284.16,-290.72"/>
</a>
</g>
</g>
<!-- Node3 -->
<g id="Node000003" class="node">
<title>Node3</title>
<g id="a_Node000003"><a xlink:href="classproj_1_1selekcjanatur_1_1_czlowiek.html#ac88bbff18c715a98a16d48103b3b495b" target="_top" xlink:title="Sprawdza płeć człowieka.">
<polygon fill="white" stroke="#666666" points="853,-352 698.25,-352 698.25,-320 853,-320 853,-352"/>
<text xml:space="preserve" text-anchor="start" x="706.25" y="-338.5" font-family="Helvetica,sans-Serif" font-size="10.00">proj.selekcjanatur.Czlowiek.czy</text>
<text xml:space="preserve" text-anchor="middle" x="775.62" y="-326.5" font-family="Helvetica,sans-Serif" font-size="10.00">Mezczyzna</text>
</a>
</g>
</g>
<!-- Node2&#45;&gt;Node3 -->
<g id="edge2_Node000002_Node000003" class="edge">
<title>Node2&#45;&gt;Node3</title>
<g id="a_edge2_Node000002_Node000003"><a xlink:title=" ">
<path fill="none" stroke="#63b8ff" d="M332.33,-158.22C350.46,-184 402.07,-251.79 463.25,-283 482.97,-293.06 601.73,-311.52 686.72,-323.78"/>
<polygon fill="#63b8ff" stroke="#63b8ff" points="686.06,-327.22 696.46,-325.18 687.05,-320.29 686.06,-327.22"/>
</a>
</g>
</g>
<!-- Node2&#45;&gt;Node4 -->
<g id="edge3_Node000002_Node000004" class="edge">
<title>Node2&#45;&gt;Node4</title>
<g id="a_edge3_Node000002_Node000004"><a xlink:title=" ">
<path fill="none" stroke="#63b8ff" d="M427.49,-141.89C492.29,-139.3 577.84,-138.22 653.25,-145 663.27,-145.9 673.71,-147.21 684.07,-148.75"/>
<polygon fill="#63b8ff" stroke="#63b8ff" points="683.33,-152.18 693.76,-150.27 684.42,-145.27 683.33,-152.18"/>
</a>
</g>
</g>
<!-- Node5 -->
<g id="Node000005" class="node">
<title>Node5</title>
<g id="a_Node000005"><a xlink:href="classproj_1_1selekcjanatur_1_1_symulacja.html#ab361a78b8ca5a29d85b023553d4490f5" target="_top" xlink:title="Dodaje losowe jedzenie na planszę">
<polygon fill="white" stroke="#666666" points="642,-98 474.5,-98 474.5,-66 642,-66 642,-98"/>
<text xml:space="preserve" text-anchor="start" x="482.5" y="-84.5" font-family="Helvetica,sans-Serif" font-size="10.00">proj.selekcjanatur.Symulacja.dodaj</text>
<text xml:space="preserve" text-anchor="middle" x="558.25" y="-72.5" font-family="Helvetica,sans-Serif" font-size="10.00">LosoweJedzenie</text>
</a>
</g>
</g>
<!-- Node2&#45;&gt;Node5 -->
<g id="edge4_Node000002_Node000005" class="edge">
<title>Node2&#45;&gt;Node5</title>
<g id="a_edge4_Node000002_Node000005"><a xlink:title=" ">
<path fill="none" stroke="#63b8ff" d="M362.12,-137.54C395.99,-127.9 447.15,-113.34 488.59,-101.54"/>
<polygon fill="#63b8ff" stroke="#63b8ff" points="489.33,-104.97 497.99,-98.87 487.42,-98.24 489.33,-104.97"/>
</a>
</g>
</g>
<!-- Node6 -->
<g id="Node000006" class="node">
<title>Node6</title>
<g id="a_Node000006"><a xlink:href="classproj_1_1selekcjanatur_1_1_czlowiek.html#a104718c5aefe504867235fa48c03a645" target="_top" xlink:title="Sprawdza możliwość rozmnożenia.">
<polygon fill="white" stroke="#666666" points="639.75,-186 476.75,-186 476.75,-154 639.75,-154 639.75,-186"/>
<text xml:space="preserve" text-anchor="start" x="484.75" y="-172.5" font-family="Helvetica,sans-Serif" font-size="10.00">proj.selekcjanatur.Czlowiek.moze</text>
<text xml:space="preserve" text-anchor="middle" x="558.25" y="-160.5" font-family="Helvetica,sans-Serif" font-size="10.00">Rozmnazac</text>
</a>
</g>
</g>
<!-- Node2&#45;&gt;Node6 -->
<g id="edge6_Node000002_Node000006" class="edge">
<title>Node2&#45;&gt;Node6</title>
<g id="a_edge6_Node000002_Node000006"><a xlink:title=" ">
<path fill="none" stroke="#63b8ff" d="M427.42,-157.68C439.97,-158.87 452.75,-160.09 465.15,-161.26"/>
<polygon fill="#63b8ff" stroke="#63b8ff" points="464.62,-164.73 474.91,-162.19 465.28,-157.76 464.62,-164.73"/>
</a>
</g>
</g>
<!-- Node7 -->
<g id="Node000007" class="node">
<title>Node7</title>
<g id="a_Node000007"><a xlink:href="classproj_1_1selekcjanatur_1_1_czlowiek.html#ac542fecf860b53af21ee3063be486d27" target="_top" xlink:title="Rozmnaża się z innym człowiekiem.">
<polygon fill="white" stroke="#666666" points="653.25,-48 463.25,-48 463.25,-28 653.25,-28 653.25,-48"/>
<text xml:space="preserve" text-anchor="middle" x="558.25" y="-34.5" font-family="Helvetica,sans-Serif" font-size="10.00">proj.selekcjanatur.Czlowiek.rozmnazajZ</text>
</a>
</g>
</g>
<!-- Node2&#45;&gt;Node7 -->
<g id="edge7_Node000002_Node000007" class="edge">
<title>Node2&#45;&gt;Node7</title>
<g id="a_edge7_Node000002_Node000007"><a xlink:title=" ">
<path fill="none" stroke="#63b8ff" d="M337.37,-137.72C360.24,-118.69 412.35,-78.01 463.25,-57 468.14,-54.98 473.26,-53.17 478.49,-51.55"/>
<polygon fill="#63b8ff" stroke="#63b8ff" points="479.19,-54.99 487.85,-48.89 477.27,-48.26 479.19,-54.99"/>
</a>
</g>
</g>
<!-- Node5&#45;&gt;Node4 -->
<g id="edge5_Node000005_Node000004" class="edge">
<title>Node5&#45;&gt;Node4</title>
<g id="a_edge5_Node000005_Node000004"><a xlink:title=" ">
<path fill="none" stroke="#63b8ff" d="M614.3,-98.38C627.18,-102.54 640.78,-107.2 653.25,-112 679.35,-122.04 707.85,-134.86 730.68,-145.59"/>
<polygon fill="#63b8ff" stroke="#63b8ff" points="729.16,-148.75 739.7,-149.87 732.16,-142.42 729.16,-148.75"/>
</a>
</g>
</g>
<!-- Node8 -->
<g id="Node000008" class="node">
<title>Node8</title>
<g id="a_Node000008"><a xlink:href="classproj_1_1selekcjanatur_1_1_czlowiek.html#a341bb3b95da388b296452c4155c1c773" target="_top" xlink:title="Konstruktor tworzący nowego człowieka.">
<polygon fill="white" stroke="#666666" points="845.12,-32 706.12,-32 706.12,0 845.12,0 845.12,-32"/>
<text xml:space="preserve" text-anchor="start" x="714.12" y="-18.5" font-family="Helvetica,sans-Serif" font-size="10.00">proj.selekcjanatur.Czlowiek.</text>
<text xml:space="preserve" text-anchor="middle" x="775.62" y="-6.5" font-family="Helvetica,sans-Serif" font-size="10.00">Czlowiek</text>
</a>
</g>
</g>
<!-- Node7&#45;&gt;Node8 -->
<g id="edge8_Node000007_Node000008" class="edge">
<title>Node7&#45;&gt;Node8</title>
<g id="a_edge8_Node000007_Node000008"><a xlink:title=" ">
<path fill="none" stroke="#63b8ff" d="M653.72,-28.35C667.4,-26.95 681.38,-25.52 694.74,-24.16"/>
<polygon fill="#63b8ff" stroke="#63b8ff" points="694.7,-27.68 704.3,-23.18 693.99,-20.72 694.7,-27.68"/>
</a>
</g>
</g>
<!-- Node9 -->
<g id="Node000009" class="node">
<title>Node9</title>
<g id="a_Node000009"><a xlink:href="interfaceproj_1_1selekcjanatur_1_1_gen.html#a7dbd3fed6d9dee504bf8217028b50493" target="_top" xlink:title="Tworzy nowy gen poprzez dziedziczenie z mutacją">
<polygon fill="white" stroke="#666666" points="857.12,-70 694.12,-70 694.12,-50 857.12,-50 857.12,-70"/>
<text xml:space="preserve" text-anchor="middle" x="775.62" y="-56.5" font-family="Helvetica,sans-Serif" font-size="10.00">proj.selekcjanatur.Gen.odziedzicz</text>
</a>
</g>
</g>
<!-- Node7&#45;&gt;Node9 -->
<g id="edge9_Node000007_Node000009" class="edge">
<title>Node7&#45;&gt;Node9</title>
<g id="a_edge9_Node000007_Node000009"><a xlink:title=" ">
<path fill="none" stroke="#63b8ff" d="M653.72,-47.65C663.2,-48.62 672.82,-49.6 682.28,-50.57"/>
<polygon fill="#63b8ff" stroke="#63b8ff" points="681.91,-54.05 692.21,-51.58 682.62,-47.08 681.91,-54.05"/>
</a>
</g>
</g>
<!-- Node11 -->
<g id="Node000011" class="node">
<title>Node11</title>
<g id="a_Node000011"><a xlink:href="classproj_1_1selekcjanatur_1_1_symulacja.html#a1d1661b0578afad91d9b4807d8122e39" target="_top" xlink:title="Przenosi człowieka na nowe pole.">
<polygon fill="white" stroke="#666666" points="652.88,-274 463.62,-274 463.62,-242 652.88,-242 652.88,-274"/>
<text xml:space="preserve" text-anchor="start" x="471.62" y="-260.5" font-family="Helvetica,sans-Serif" font-size="10.00">proj.selekcjanatur.Symulacja.przemiesc</text>
<text xml:space="preserve" text-anchor="middle" x="558.25" y="-248.5" font-family="Helvetica,sans-Serif" font-size="10.00">SieNaPole</text>
</a>
</g>
</g>
<!-- Node10&#45;&gt;Node11 -->
<g id="edge12_Node000010_Node000011" class="edge">
<title>Node10&#45;&gt;Node11</title>
<g id="a_edge12_Node000010_Node000011"><a xlink:title=" ">
<path fill="none" stroke="#63b8ff" d="M380.62,-291.52C404.28,-287.03 432.65,-281.64 459.65,-276.52"/>
<polygon fill="#63b8ff" stroke="#63b8ff" points="460.06,-280.01 469.23,-274.7 458.75,-273.13 460.06,-280.01"/>
</a>
</g>
</g>
<!-- Node14 -->
<g id="Node000014" class="node">
<title>Node14</title>
<g id="a_Node000014"><a xlink:href="classproj_1_1selekcjanatur_1_1_symulacja.html#a09362c7d34ee3e4c0ffd46d4b3c8bd17" target="_top" xlink:title="Znajduje najbliższe jedzenie w zasięgu wzroku.">
<polygon fill="white" stroke="#666666" points="644.62,-412 471.88,-412 471.88,-380 644.62,-380 644.62,-412"/>
<text xml:space="preserve" text-anchor="start" x="479.88" y="-398.5" font-family="Helvetica,sans-Serif" font-size="10.00">proj.selekcjanatur.Symulacja.znajdz</text>
<text xml:space="preserve" text-anchor="middle" x="558.25" y="-386.5" font-family="Helvetica,sans-Serif" font-size="10.00">NajblizszeJedzenie</text>
</a>
</g>
</g>
<!-- Node10&#45;&gt;Node14 -->
<g id="edge16_Node000010_Node000014" class="edge">
<title>Node10&#45;&gt;Node14</title>
<g id="a_edge16_Node000010_Node000014"><a xlink:title=" ">
<path fill="none" stroke="#63b8ff" d="M343.13,-312.37C368.89,-327.06 418.44,-354.03 463.25,-371 467.95,-372.78 472.83,-374.48 477.78,-376.11"/>
<polygon fill="#63b8ff" stroke="#63b8ff" points="476.67,-379.43 487.26,-379.07 478.76,-372.74 476.67,-379.43"/>
</a>
</g>
</g>
<!-- Node16 -->
<g id="Node000016" class="node">
<title>Node16</title>
<g id="a_Node000016"><a xlink:href="classproj_1_1selekcjanatur_1_1_symulacja.html#a308b1488a3d7d83887fc3aea6c4ca4ee" target="_top" xlink:title="Znajduje partnera do rozmnażania w zasięgu wzroku.">
<polygon fill="white" stroke="#666666" points="644.62,-362 471.88,-362 471.88,-330 644.62,-330 644.62,-362"/>
<text xml:space="preserve" text-anchor="start" x="479.88" y="-348.5" font-family="Helvetica,sans-Serif" font-size="10.00">proj.selekcjanatur.Symulacja.znajdz</text>
<text xml:space="preserve" text-anchor="middle" x="558.25" y="-336.5" font-family="Helvetica,sans-Serif" font-size="10.00">Partnera</text>
</a>
</g>
</g>
<!-- Node10&#45;&gt;Node16 -->
<g id="edge18_Node000010_Node000016" class="edge">
<title>Node10&#45;&gt;Node16</title>
<g id="a_edge18_Node000010_Node000016"><a xlink:title=" ">
<path fill="none" stroke="#63b8ff" d="M380.62,-312.48C404.52,-317.02 433.21,-322.46 460.45,-327.63"/>
<polygon fill="#63b8ff" stroke="#63b8ff" points="459.65,-331.04 470.13,-329.47 460.95,-324.16 459.65,-331.04"/>
</a>
</g>
</g>
<!-- Node11&#45;&gt;Node4 -->
<g id="edge13_Node000011_Node000004" class="edge">
<title>Node11&#45;&gt;Node4</title>
<g id="a_edge13_Node000011_Node000004"><a xlink:title=" ">
<path fill="none" stroke="#63b8ff" d="M615.44,-241.66C628.01,-237.56 641.2,-232.92 653.25,-228 681.4,-216.52 711.98,-201.13 735.4,-188.68"/>
<polygon fill="#63b8ff" stroke="#63b8ff" points="736.81,-191.9 743.97,-184.09 733.5,-185.73 736.81,-191.9"/>
</a>
</g>
</g>
<!-- Node12 -->
<g id="Node000012" class="node">
<title>Node12</title>
<g id="a_Node000012"><a xlink:href="classproj_1_1selekcjanatur_1_1_czlowiek.html#a19de94d2ab10d64910307b71bf45ed2e" target="_top" xlink:title="Zjada podane jedzenie.">
<polygon fill="white" stroke="#666666" points="856.75,-243 694.5,-243 694.5,-223 856.75,-223 856.75,-243"/>
<text xml:space="preserve" text-anchor="middle" x="775.62" y="-229.5" font-family="Helvetica,sans-Serif" font-size="10.00">proj.selekcjanatur.Czlowiek.zjedz</text>
</a>
</g>
</g>
<!-- Node11&#45;&gt;Node12 -->
<g id="edge14_Node000011_Node000012" class="edge">
<title>Node11&#45;&gt;Node12</title>
<g id="a_edge14_Node000011_Node000012"><a xlink:title=" ">
<path fill="none" stroke="#63b8ff" d="M653.09,-247.11C663.06,-245.95 673.18,-244.78 683.12,-243.62"/>
<polygon fill="#63b8ff" stroke="#63b8ff" points="683.21,-247.13 692.74,-242.5 682.4,-240.18 683.21,-247.13"/>
</a>
</g>
</g>
<!-- Node13 -->
<g id="Node000013" class="node">
<title>Node13</title>
<g id="a_Node000013"><a xlink:href="classproj_1_1selekcjanatur_1_1_symulacja.html#ac24b817f5f0ae590ecd7e988b3f78c56" target="_top" xlink:title="Sprawdza czy na danym polu jest jedzenie.">
<polygon fill="white" stroke="#666666" points="862,-293 689.25,-293 689.25,-261 862,-261 862,-293"/>
<text xml:space="preserve" text-anchor="start" x="697.25" y="-279.5" font-family="Helvetica,sans-Serif" font-size="10.00">proj.selekcjanatur.Symulacja.znajdz</text>
<text xml:space="preserve" text-anchor="middle" x="775.62" y="-267.5" font-family="Helvetica,sans-Serif" font-size="10.00">JedzenieNaPolu</text>
</a>
</g>
</g>
<!-- Node11&#45;&gt;Node13 -->
<g id="edge15_Node000011_Node000013" class="edge">
<title>Node11&#45;&gt;Node13</title>
<g id="a_edge15_Node000011_Node000013"><a xlink:title=" ">
<path fill="none" stroke="#63b8ff" d="M653.09,-266.28C661.18,-266.99 669.38,-267.72 677.49,-268.43"/>
<polygon fill="#63b8ff" stroke="#63b8ff" points="677.11,-271.91 687.38,-269.3 677.73,-264.94 677.11,-271.91"/>
</a>
</g>
</g>
<!-- Node15 -->
<g id="Node000015" class="node">
<title>Node15</title>
<g id="a_Node000015"><a xlink:href="classproj_1_1selekcjanatur_1_1_czlowiek.html#aabd1eb0726b65fce7b6bab1f894904cf" target="_top" xlink:title="Oblicza zasięg wzroku na podstawie genów.">
<polygon fill="white" stroke="#666666" points="859.38,-407 691.88,-407 691.88,-375 859.38,-375 859.38,-407"/>
<text xml:space="preserve" text-anchor="start" x="699.88" y="-393.5" font-family="Helvetica,sans-Serif" font-size="10.00">proj.selekcjanatur.Czlowiek.zasieg</text>
<text xml:space="preserve" text-anchor="middle" x="775.62" y="-381.5" font-family="Helvetica,sans-Serif" font-size="10.00">Wzroku</text>
</a>
</g>
</g>
<!-- Node14&#45;&gt;Node15 -->
<g id="edge17_Node000014_Node000015" class="edge">
<title>Node14&#45;&gt;Node15</title>
<g id="a_edge17_Node000014_Node000015"><a xlink:title=" ">
<path fill="none" stroke="#63b8ff" d="M644.99,-394.01C656.64,-393.74 668.64,-393.46 680.42,-393.19"/>
<polygon fill="#63b8ff" stroke="#63b8ff" points="680.21,-396.69 690.12,-392.96 680.04,-389.69 680.21,-396.69"/>
</a>
</g>
</g>
<!-- Node16&#45;&gt;Node3 -->
<g id="edge19_Node000016_Node000003" class="edge">
<title>Node16&#45;&gt;Node3</title>
<g id="a_edge19_Node000016_Node000003"><a xlink:title=" ">
<path fill="none" stroke="#63b8ff" d="M644.99,-342.02C658.65,-341.38 672.79,-340.73 686.5,-340.09"/>
<polygon fill="#63b8ff" stroke="#63b8ff" points="686.56,-343.59 696.38,-339.63 686.23,-336.6 686.56,-343.59"/>
</a>
</g>
</g>
<!-- Node16&#45;&gt;Node15 -->
<g id="edge20_Node000016_Node000015" class="edge">
<title>Node16&#45;&gt;Node15</title>
<g id="a_edge20_Node000016_Node000015"><a xlink:title=" ">
<path fill="none" stroke="#63b8ff" d="M637.92,-362.44C653.1,-365.61 669.11,-368.95 684.62,-372.2"/>
<polygon fill="#63b8ff" stroke="#63b8ff" points="683.82,-375.6 694.33,-374.22 685.25,-368.75 683.82,-375.6"/>
</a>
</g>
</g>
</g>
</svg>
