<?xml version="1.0" encoding="UTF-8" standalone="no"?>
<!DOCTYPE svg PUBLIC "-//W3C//DTD SVG 1.1//EN"
 "http://www.w3.org/Graphics/SVG/1.1/DTD/svg11.dtd">
<!-- Generated by graphviz version 13.0.1 (20250615.1724)
 -->
<!-- Title: proj.selekcjanatur.Symulacja.wykonajRuch Pages: 1 -->
<svg width="646pt" height="228pt"
 viewBox="0.00 0.00 646.00 228.00" xmlns="http://www.w3.org/2000/svg" xmlns:xlink="http://www.w3.org/1999/xlink">
<g id="graph0" class="graph" transform="scale(1 1) rotate(0) translate(4 224)">
<title>proj.selekcjanatur.Symulacja.wykonajRuch</title>
<!-- Node1 -->
<g id="Node000001" class="node">
<title>Node1</title>
<g id="a_Node000001"><a xlink:title="Wykonuje ruch dla danego człowieka.">
<polygon fill="#999999" stroke="#666666" points="203.5,-76 0,-76 0,-56 203.5,-56 203.5,-76"/>
<text xml:space="preserve" text-anchor="middle" x="101.75" y="-62.5" font-family="Helvetica,sans-Serif" font-size="10.00">proj.selekcjanatur.Symulacja.wykonajRuch</text>
</a>
</g>
</g>
<!-- Node2 -->
<g id="Node000002" class="node">
<title>Node2</title>
<g id="a_Node000002"><a xlink:href="classproj_1_1selekcjanatur_1_1_symulacja.html#a1d1661b0578afad91d9b4807d8122e39" target="_top" xlink:title="Przenosi człowieka na nowe pole.">
<polygon fill="white" stroke="#666666" points="428.75,-154 239.5,-154 239.5,-122 428.75,-122 428.75,-154"/>
<text xml:space="preserve" text-anchor="start" x="247.5" y="-140.5" font-family="Helvetica,sans-Serif" font-size="10.00">proj.selekcjanatur.Symulacja.przemiesc</text>
<text xml:space="preserve" text-anchor="middle" x="334.12" y="-128.5" font-family="Helvetica,sans-Serif" font-size="10.00">SieNaPole</text>
</a>
</g>
</g>
<!-- Node1&#45;&gt;Node2 -->
<g id="edge1_Node000001_Node000002" class="edge">
<title>Node1&#45;&gt;Node2</title>
<g id="a_edge1_Node000001_Node000002"><a xlink:title=" ">
<path fill="none" stroke="#63b8ff" d="M136.25,-76.47C171.03,-87.34 226.29,-104.61 269.43,-118.09"/>
<polygon fill="#63b8ff" stroke="#63b8ff" points="268.36,-121.43 278.95,-121.07 270.45,-114.74 268.36,-121.43"/>
</a>
</g>
</g>
<!-- Node6 -->
<g id="Node000006" class="node">
<title>Node6</title>
<g id="a_Node000006"><a xlink:href="classproj_1_1selekcjanatur_1_1_symulacja.html#a09362c7d34ee3e4c0ffd46d4b3c8bd17" target="_top" xlink:title="Znajduje najbliższe jedzenie w zasięgu wzroku.">
<polygon fill="white" stroke="#666666" points="420.5,-82 247.75,-82 247.75,-50 420.5,-50 420.5,-82"/>
<text xml:space="preserve" text-anchor="start" x="255.75" y="-68.5" font-family="Helvetica,sans-Serif" font-size="10.00">proj.selekcjanatur.Symulacja.znajdz</text>
<text xml:space="preserve" text-anchor="middle" x="334.12" y="-56.5" font-family="Helvetica,sans-Serif" font-size="10.00">NajblizszeJedzenie</text>
</a>
</g>
</g>
<!-- Node1&#45;&gt;Node6 -->
<g id="edge5_Node000001_Node000006" class="edge">
<title>Node1&#45;&gt;Node6</title>
<g id="a_edge5_Node000001_Node000006"><a xlink:title=" ">
<path fill="none" stroke="#63b8ff" d="M203.8,-66C214.45,-66 225.27,-66 235.88,-66"/>
<polygon fill="#63b8ff" stroke="#63b8ff" points="235.78,-69.5 245.78,-66 235.78,-62.5 235.78,-69.5"/>
</a>
</g>
</g>
<!-- Node8 -->
<g id="Node000008" class="node">
<title>Node8</title>
<g id="a_Node000008"><a xlink:href="classproj_1_1selekcjanatur_1_1_symulacja.html#a308b1488a3d7d83887fc3aea6c4ca4ee" target="_top" xlink:title="Znajduje partnera do rozmnażania w zasięgu wzroku.">
<polygon fill="white" stroke="#666666" points="420.5,-32 247.75,-32 247.75,0 420.5,0 420.5,-32"/>
<text xml:space="preserve" text-anchor="start" x="255.75" y="-18.5" font-family="Helvetica,sans-Serif" font-size="10.00">proj.selekcjanatur.Symulacja.znajdz</text>
<text xml:space="preserve" text-anchor="middle" x="334.12" y="-6.5" font-family="Helvetica,sans-Serif" font-size="10.00">Partnera</text>
</a>
</g>
</g>
<!-- Node1&#45;&gt;Node8 -->
<g id="edge7_Node000001_Node000008" class="edge">
<title>Node1&#45;&gt;Node8</title>
<g id="a_edge7_Node000001_Node000008"><a xlink:title=" ">
<path fill="none" stroke="#63b8ff" d="M151.04,-55.52C178.54,-49.55 213.83,-41.89 246,-34.91"/>
<polygon fill="#63b8ff" stroke="#63b8ff" points="246.72,-38.33 255.75,-32.79 245.24,-31.49 246.72,-38.33"/>
</a>
</g>
</g>
<!-- Node3 -->
<g id="Node000003" class="node">
<title>Node3</title>
<g id="a_Node000003"><a xlink:href="classproj_1_1selekcjanatur_1_1_symulacja.html#adca30037183a0fade601724dd9b8f1bd" target="_top" xlink:title="Dodaje wpis do dziennika zdarzeń">
<polygon fill="white" stroke="#666666" points="634.88,-220 467.38,-220 467.38,-188 634.88,-188 634.88,-220"/>
<text xml:space="preserve" text-anchor="start" x="475.38" y="-206.5" font-family="Helvetica,sans-Serif" font-size="10.00">proj.selekcjanatur.Symulacja.dodaj</text>
<text xml:space="preserve" text-anchor="middle" x="551.12" y="-194.5" font-family="Helvetica,sans-Serif" font-size="10.00">DoDziennika</text>
</a>
</g>
</g>
<!-- Node2&#45;&gt;Node3 -->
<g id="edge2_Node000002_Node000003" class="edge">
<title>Node2&#45;&gt;Node3</title>
<g id="a_edge2_Node000002_Node000003"><a xlink:title=" ">
<path fill="none" stroke="#63b8ff" d="M386.15,-154.42C409.99,-162.02 438.78,-171.09 464.75,-179 470.57,-180.77 476.62,-182.59 482.68,-184.4"/>
<polygon fill="#63b8ff" stroke="#63b8ff" points="481.55,-187.71 492.14,-187.2 483.54,-181 481.55,-187.71"/>
</a>
</g>
</g>
<!-- Node4 -->
<g id="Node000004" class="node">
<title>Node4</title>
<g id="a_Node000004"><a xlink:href="classproj_1_1selekcjanatur_1_1_czlowiek.html#a19de94d2ab10d64910307b71bf45ed2e" target="_top" xlink:title="Zjada podane jedzenie.">
<polygon fill="white" stroke="#666666" points="632.25,-170 470,-170 470,-150 632.25,-150 632.25,-170"/>
<text xml:space="preserve" text-anchor="middle" x="551.12" y="-156.5" font-family="Helvetica,sans-Serif" font-size="10.00">proj.selekcjanatur.Czlowiek.zjedz</text>
</a>
</g>
</g>
<!-- Node2&#45;&gt;Node4 -->
<g id="edge3_Node000002_Node000004" class="edge">
<title>Node2&#45;&gt;Node4</title>
<g id="a_edge3_Node000002_Node000004"><a xlink:title=" ">
<path fill="none" stroke="#63b8ff" d="M429.11,-147.62C438.86,-148.61 448.76,-149.63 458.48,-150.62"/>
<polygon fill="#63b8ff" stroke="#63b8ff" points="457.98,-154.09 468.28,-151.63 458.69,-147.13 457.98,-154.09"/>
</a>
</g>
</g>
<!-- Node5 -->
<g id="Node000005" class="node">
<title>Node5</title>
<g id="a_Node000005"><a xlink:href="classproj_1_1selekcjanatur_1_1_symulacja.html#ac24b817f5f0ae590ecd7e988b3f78c56" target="_top" xlink:title="Sprawdza czy na danym polu jest jedzenie.">
<polygon fill="white" stroke="#666666" points="637.5,-132 464.75,-132 464.75,-100 637.5,-100 637.5,-132"/>
<text xml:space="preserve" text-anchor="start" x="472.75" y="-118.5" font-family="Helvetica,sans-Serif" font-size="10.00">proj.selekcjanatur.Symulacja.znajdz</text>
<text xml:space="preserve" text-anchor="middle" x="551.12" y="-106.5" font-family="Helvetica,sans-Serif" font-size="10.00">JedzenieNaPolu</text>
</a>
</g>
</g>
<!-- Node2&#45;&gt;Node5 -->
<g id="edge4_Node000002_Node000005" class="edge">
<title>Node2&#45;&gt;Node5</title>
<g id="a_edge4_Node000002_Node000005"><a xlink:title=" ">
<path fill="none" stroke="#63b8ff" d="M429.11,-128.38C437.1,-127.57 445.19,-126.74 453.2,-125.92"/>
<polygon fill="#63b8ff" stroke="#63b8ff" points="453.35,-129.42 462.95,-124.92 452.64,-122.46 453.35,-129.42"/>
</a>
</g>
</g>
<!-- Node7 -->
<g id="Node000007" class="node">
<title>Node7</title>
<g id="a_Node000007"><a xlink:href="classproj_1_1selekcjanatur_1_1_czlowiek.html#aabd1eb0726b65fce7b6bab1f894904cf" target="_top" xlink:title="Oblicza zasięg wzroku na podstawie genów.">
<polygon fill="white" stroke="#666666" points="634.88,-82 467.38,-82 467.38,-50 634.88,-50 634.88,-82"/>
<text xml:space="preserve" text-anchor="start" x="475.38" y="-68.5" font-family="Helvetica,sans-Serif" font-size="10.00">proj.selekcjanatur.Czlowiek.zasieg</text>
<text xml:space="preserve" text-anchor="middle" x="551.12" y="-56.5" font-family="Helvetica,sans-Serif" font-size="10.00">Wzroku</text>
</a>
</g>
</g>
<!-- Node6&#45;&gt;Node7 -->
<g id="edge6_Node000006_Node000007" class="edge">
<title>Node6&#45;&gt;Node7</title>
<g id="a_edge6_Node000006_Node000007"><a xlink:title=" ">
<path fill="none" stroke="#63b8ff" d="M420.72,-66C432.13,-66 443.9,-66 455.46,-66"/>
<polygon fill="#63b8ff" stroke="#63b8ff" points="455.42,-69.5 465.42,-66 455.42,-62.5 455.42,-69.5"/>
</a>
</g>
</g>
<!-- Node8&#45;&gt;Node7 -->
<g id="edge9_Node000008_Node000007" class="edge">
<title>Node8&#45;&gt;Node7</title>
<g id="a_edge9_Node000008_Node000007"><a xlink:title=" ">
<path fill="none" stroke="#63b8ff" d="M405.82,-32.44C425.84,-37.1 447.8,-42.2 468.42,-47"/>
<polygon fill="#63b8ff" stroke="#63b8ff" points="467.38,-50.35 477.91,-49.21 468.96,-43.53 467.38,-50.35"/>
</a>
</g>
</g>
<!-- Node9 -->
<g id="Node000009" class="node">
<title>Node9</title>
<g id="a_Node000009"><a xlink:href="classproj_1_1selekcjanatur_1_1_czlowiek.html#ac88bbff18c715a98a16d48103b3b495b" target="_top" xlink:title="Sprawdza płeć człowieka.">
<polygon fill="white" stroke="#666666" points="628.5,-32 473.75,-32 473.75,0 628.5,0 628.5,-32"/>
<text xml:space="preserve" text-anchor="start" x="481.75" y="-18.5" font-family="Helvetica,sans-Serif" font-size="10.00">proj.selekcjanatur.Czlowiek.czy</text>
<text xml:space="preserve" text-anchor="middle" x="551.12" y="-6.5" font-family="Helvetica,sans-Serif" font-size="10.00">Mezczyzna</text>
</a>
</g>
</g>
<!-- Node8&#45;&gt;Node9 -->
<g id="edge8_Node000008_Node000009" class="edge">
<title>Node8&#45;&gt;Node9</title>
<g id="a_edge8_Node000008_Node000009"><a xlink:title=" ">
<path fill="none" stroke="#63b8ff" d="M420.72,-16C434.35,-16 448.47,-16 462.16,-16"/>
<polygon fill="#63b8ff" stroke="#63b8ff" points="462.01,-19.5 472.01,-16 462.01,-12.5 462.01,-19.5"/>
</a>
</g>
</g>
</g>
</svg>
