<?xml version="1.0" encoding="UTF-8" standalone="no"?>
<!DOCTYPE svg PUBLIC "-//W3C//DTD SVG 1.1//EN"
 "http://www.w3.org/Graphics/SVG/1.1/DTD/svg11.dtd">
<!-- Generated by graphviz version 13.0.1 (20250615.1724)
 -->
<!-- Title: proj.selekcjanatur.Jedzenie Pages: 1 -->
<svg width="135pt" height="92pt"
 viewBox="0.00 0.00 135.00 92.00" xmlns="http://www.w3.org/2000/svg" xmlns:xlink="http://www.w3.org/1999/xlink">
<g id="graph0" class="graph" transform="scale(1 1) rotate(0) translate(4 88)">
<title>proj.selekcjanatur.Jedzenie</title>
<!-- Node1 -->
<g id="Node000001" class="node">
<title>Node1</title>
<g id="a_Node000001"><a xlink:title="Klasa modelująca pożywienie w symulacji ewolucyjnej.">
<polygon fill="#999999" stroke="none" points="126.5,-84 0,-84 0,0 126.5,0 126.5,-84"/>
<text xml:space="preserve" text-anchor="start" x="4" y="-70.5" font-family="Helvetica,sans-Serif" font-size="10.00">proj.selekcjanatur.Jedzenie</text>
<text xml:space="preserve" text-anchor="start" x="9" y="-54.5" font-family="Helvetica,sans-Serif" font-size="10.00">+</text>
<text xml:space="preserve" text-anchor="start" x="24" y="-54.5" font-family="Helvetica,sans-Serif" font-size="10.00">int x</text>
<text xml:space="preserve" text-anchor="start" x="9" y="-38.5" font-family="Helvetica,sans-Serif" font-size="10.00">+</text>
<text xml:space="preserve" text-anchor="start" x="24" y="-38.5" font-family="Helvetica,sans-Serif" font-size="10.00">int y</text>
<text xml:space="preserve" text-anchor="start" x="9" y="-22.5" font-family="Helvetica,sans-Serif" font-size="10.00">+</text>
<text xml:space="preserve" text-anchor="start" x="24" y="-22.5" font-family="Helvetica,sans-Serif" font-size="10.00">int wartosc</text>
<text xml:space="preserve" text-anchor="start" x="9" y="-6.5" font-family="Helvetica,sans-Serif" font-size="10.00">+</text>
<text xml:space="preserve" text-anchor="start" x="24" y="-6.5" font-family="Helvetica,sans-Serif" font-size="10.00">Jedzenie(int x, int y)</text>
<polygon fill="#666666" stroke="#666666" points="0,-66 0,-66 126.5,-66 126.5,-66 0,-66"/>
<polygon fill="#666666" stroke="#666666" points="0,-18 0,-18 22,-18 22,-18 0,-18"/>
<polygon fill="#666666" stroke="#666666" points="22,-18 22,-18 126.5,-18 126.5,-18 22,-18"/>
<polygon fill="none" stroke="#666666" points="0,0 0,-84 126.5,-84 126.5,0 0,0"/>
</a>
</g>
</g>
</g>
</svg>
