<?xml version="1.0" encoding="UTF-8" standalone="no"?>
<!DOCTYPE svg PUBLIC "-//W3C//DTD SVG 1.1//EN"
 "http://www.w3.org/Graphics/SVG/1.1/DTD/svg11.dtd">
<!-- Generated by graphviz version 13.0.1 (20250615.1724)
 -->
<!-- Title: proj.selekcjanatur.Czlowiek.mozeRozmnazac Pages: 1 -->
<svg width="634pt" height="40pt"
 viewBox="0.00 0.00 634.00 40.00" xmlns="http://www.w3.org/2000/svg" xmlns:xlink="http://www.w3.org/1999/xlink">
<g id="graph0" class="graph" transform="scale(1 1) rotate(0) translate(4 36)">
<title>proj.selekcjanatur.Czlowiek.mozeRozmnazac</title>
<!-- Node1 -->
<g id="Node000001" class="node">
<title>Node1</title>
<g id="a_Node000001"><a xlink:title="Sprawdza możliwość rozmnożenia.">
<polygon fill="#999999" stroke="#666666" points="626.25,-32 463.25,-32 463.25,0 626.25,0 626.25,-32"/>
<text xml:space="preserve" text-anchor="start" x="471.25" y="-18.5" font-family="Helvetica,sans-Serif" font-size="10.00">proj.selekcjanatur.Czlowiek.moze</text>
<text xml:space="preserve" text-anchor="middle" x="544.75" y="-6.5" font-family="Helvetica,sans-Serif" font-size="10.00">Rozmnazac</text>
</a>
</g>
</g>
<!-- Node2 -->
<g id="Node000002" class="node">
<title>Node2</title>
<g id="a_Node000002"><a xlink:href="classproj_1_1selekcjanatur_1_1_symulacja.html#af140417936a5d3f7ca9c02af9dbb2814" target="_top" xlink:title="Aktualizuje stan symulacji (co 3 klatki)">
<polygon fill="white" stroke="#666666" points="427.25,-26 221.5,-26 221.5,-6 427.25,-6 427.25,-26"/>
<text xml:space="preserve" text-anchor="middle" x="324.38" y="-12.5" font-family="Helvetica,sans-Serif" font-size="10.00">proj.selekcjanatur.Symulacja.aktualizujStan</text>
</a>
</g>
</g>
<!-- Node1&#45;&gt;Node2 -->
<g id="edge1_Node000001_Node000002" class="edge">
<title>Node1&#45;&gt;Node2</title>
<g id="a_edge1_Node000001_Node000002"><a xlink:title=" ">
<path fill="none" stroke="#63b8ff" d="M451.57,-16C443.65,-16 435.61,-16 427.63,-16"/>
<polygon fill="#63b8ff" stroke="#63b8ff" points="451.54,-19.5 461.54,-16 451.54,-12.5 451.54,-19.5"/>
</a>
</g>
</g>
<!-- Node3 -->
<g id="Node000003" class="node">
<title>Node3</title>
<g id="a_Node000003"><a xlink:href="classproj_1_1selekcjanatur_1_1_symulacja.html#adec9a02326fa916fa822eddad509050f" target="_top" xlink:title="Aktualizuje stan symulacji o jeden krok.">
<polygon fill="white" stroke="#666666" points="185.5,-26 0,-26 0,-6 185.5,-6 185.5,-26"/>
<text xml:space="preserve" text-anchor="middle" x="92.75" y="-12.5" font-family="Helvetica,sans-Serif" font-size="10.00">proj.selekcjanatur.Symulacja.aktualizuj</text>
</a>
</g>
</g>
<!-- Node2&#45;&gt;Node3 -->
<g id="edge2_Node000002_Node000003" class="edge">
<title>Node2&#45;&gt;Node3</title>
<g id="a_edge2_Node000002_Node000003"><a xlink:title=" ">
<path fill="none" stroke="#63b8ff" d="M209.89,-16C201.78,-16 193.67,-16 185.71,-16"/>
<polygon fill="#63b8ff" stroke="#63b8ff" points="209.81,-19.5 219.81,-16 209.81,-12.5 209.81,-19.5"/>
</a>
</g>
</g>
</g>
</svg>
