<?xml version="1.0" encoding="UTF-8" standalone="no"?>
<!DOCTYPE svg PUBLIC "-//W3C//DTD SVG 1.1//EN"
 "http://www.w3.org/Graphics/SVG/1.1/DTD/svg11.dtd">
<!-- Generated by graphviz version 13.0.1 (20250615.1724)
 -->
<!-- Title: proj.selekcjanatur.Czlowiek.zasiegWzroku Pages: 1 -->
<svg width="845pt" height="90pt"
 viewBox="0.00 0.00 845.00 90.00" xmlns="http://www.w3.org/2000/svg" xmlns:xlink="http://www.w3.org/1999/xlink">
<g id="graph0" class="graph" transform="scale(1 1) rotate(0) translate(4 86)">
<title>proj.selekcjanatur.Czlowiek.zasiegWzroku</title>
<!-- Node1 -->
<g id="Node000001" class="node">
<title>Node1</title>
<g id="a_Node000001"><a xlink:title="Oblicza zasięg wzroku na podstawie genów.">
<polygon fill="#999999" stroke="#666666" points="837.25,-57 669.75,-57 669.75,-25 837.25,-25 837.25,-57"/>
<text xml:space="preserve" text-anchor="start" x="677.75" y="-43.5" font-family="Helvetica,sans-Serif" font-size="10.00">proj.selekcjanatur.Czlowiek.zasieg</text>
<text xml:space="preserve" text-anchor="middle" x="753.5" y="-31.5" font-family="Helvetica,sans-Serif" font-size="10.00">Wzroku</text>
</a>
</g>
</g>
<!-- Node2 -->
<g id="Node000002" class="node">
<title>Node2</title>
<g id="a_Node000002"><a xlink:href="classproj_1_1selekcjanatur_1_1_symulacja.html#a09362c7d34ee3e4c0ffd46d4b3c8bd17" target="_top" xlink:title="Znajduje najbliższe jedzenie w zasięgu wzroku.">
<polygon fill="white" stroke="#666666" points="633.75,-82 461,-82 461,-50 633.75,-50 633.75,-82"/>
<text xml:space="preserve" text-anchor="start" x="469" y="-68.5" font-family="Helvetica,sans-Serif" font-size="10.00">proj.selekcjanatur.Symulacja.znajdz</text>
<text xml:space="preserve" text-anchor="middle" x="547.38" y="-56.5" font-family="Helvetica,sans-Serif" font-size="10.00">NajblizszeJedzenie</text>
</a>
</g>
</g>
<!-- Node1&#45;&gt;Node2 -->
<g id="edge1_Node000001_Node000002" class="edge">
<title>Node1&#45;&gt;Node2</title>
<g id="a_edge1_Node000001_Node000002"><a xlink:title=" ">
<path fill="none" stroke="#63b8ff" d="M658.15,-52.56C650.09,-53.54 641.97,-54.54 633.98,-55.52"/>
<polygon fill="#63b8ff" stroke="#63b8ff" points="658.47,-56.04 667.97,-51.35 657.62,-49.09 658.47,-56.04"/>
</a>
</g>
</g>
<!-- Node5 -->
<g id="Node000005" class="node">
<title>Node5</title>
<g id="a_Node000005"><a xlink:href="classproj_1_1selekcjanatur_1_1_symulacja.html#a308b1488a3d7d83887fc3aea6c4ca4ee" target="_top" xlink:title="Znajduje partnera do rozmnażania w zasięgu wzroku.">
<polygon fill="white" stroke="#666666" points="633.75,-32 461,-32 461,0 633.75,0 633.75,-32"/>
<text xml:space="preserve" text-anchor="start" x="469" y="-18.5" font-family="Helvetica,sans-Serif" font-size="10.00">proj.selekcjanatur.Symulacja.znajdz</text>
<text xml:space="preserve" text-anchor="middle" x="547.38" y="-6.5" font-family="Helvetica,sans-Serif" font-size="10.00">Partnera</text>
</a>
</g>
</g>
<!-- Node1&#45;&gt;Node5 -->
<g id="edge4_Node000001_Node000005" class="edge">
<title>Node1&#45;&gt;Node5</title>
<g id="a_edge4_Node000001_Node000005"><a xlink:title=" ">
<path fill="none" stroke="#63b8ff" d="M658.15,-29.44C650.09,-28.46 641.97,-27.46 633.98,-26.48"/>
<polygon fill="#63b8ff" stroke="#63b8ff" points="657.62,-32.91 667.97,-30.65 658.47,-25.96 657.62,-32.91"/>
</a>
</g>
</g>
<!-- Node3 -->
<g id="Node000003" class="node">
<title>Node3</title>
<g id="a_Node000003"><a xlink:href="classproj_1_1selekcjanatur_1_1_symulacja.html#a52f53070719050f572593ac7c6908ebd" target="_top" xlink:title="Wykonuje ruch dla danego człowieka.">
<polygon fill="white" stroke="#666666" points="425,-51 221.5,-51 221.5,-31 425,-31 425,-51"/>
<text xml:space="preserve" text-anchor="middle" x="323.25" y="-37.5" font-family="Helvetica,sans-Serif" font-size="10.00">proj.selekcjanatur.Symulacja.wykonajRuch</text>
</a>
</g>
</g>
<!-- Node2&#45;&gt;Node3 -->
<g id="edge2_Node000002_Node000003" class="edge">
<title>Node2&#45;&gt;Node3</title>
<g id="a_edge2_Node000002_Node000003"><a xlink:title=" ">
<path fill="none" stroke="#63b8ff" d="M449.41,-55.09C438.82,-53.9 428.06,-52.68 417.52,-51.5"/>
<polygon fill="#63b8ff" stroke="#63b8ff" points="448.98,-58.56 459.31,-56.2 449.76,-51.6 448.98,-58.56"/>
</a>
</g>
</g>
<!-- Node4 -->
<g id="Node000004" class="node">
<title>Node4</title>
<g id="a_Node000004"><a xlink:href="classproj_1_1selekcjanatur_1_1_symulacja.html#adec9a02326fa916fa822eddad509050f" target="_top" xlink:title="Aktualizuje stan symulacji o jeden krok.">
<polygon fill="white" stroke="#666666" points="185.5,-51 0,-51 0,-31 185.5,-31 185.5,-51"/>
<text xml:space="preserve" text-anchor="middle" x="92.75" y="-37.5" font-family="Helvetica,sans-Serif" font-size="10.00">proj.selekcjanatur.Symulacja.aktualizuj</text>
</a>
</g>
</g>
<!-- Node3&#45;&gt;Node4 -->
<g id="edge3_Node000003_Node000004" class="edge">
<title>Node3&#45;&gt;Node4</title>
<g id="a_edge3_Node000003_Node000004"><a xlink:title=" ">
<path fill="none" stroke="#63b8ff" d="M209.75,-41C201.75,-41 193.74,-41 185.88,-41"/>
<polygon fill="#63b8ff" stroke="#63b8ff" points="209.52,-44.5 219.52,-41 209.52,-37.5 209.52,-44.5"/>
</a>
</g>
</g>
<!-- Node5&#45;&gt;Node3 -->
<g id="edge5_Node000005_Node000003" class="edge">
<title>Node5&#45;&gt;Node3</title>
<g id="a_edge5_Node000005_Node000003"><a xlink:title=" ">
<path fill="none" stroke="#63b8ff" d="M449.41,-26.91C438.82,-28.1 428.06,-29.32 417.52,-30.5"/>
<polygon fill="#63b8ff" stroke="#63b8ff" points="449.76,-30.4 459.31,-25.8 448.98,-23.44 449.76,-30.4"/>
</a>
</g>
</g>
</g>
</svg>
