<?xml version="1.0" encoding="UTF-8" standalone="no"?>
<!DOCTYPE svg PUBLIC "-//W3C//DTD SVG 1.1//EN"
 "http://www.w3.org/Graphics/SVG/1.1/DTD/svg11.dtd">
<!-- Generated by graphviz version 13.0.1 (20250615.1724)
 -->
<!-- Title: proj.selekcjanatur.Symulacja.przemiescSieNaPole Pages: 1 -->
<svg width="406pt" height="128pt"
 viewBox="0.00 0.00 406.00 128.00" xmlns="http://www.w3.org/2000/svg" xmlns:xlink="http://www.w3.org/1999/xlink">
<g id="graph0" class="graph" transform="scale(1 1) rotate(0) translate(4 124)">
<title>proj.selekcjanatur.Symulacja.przemiescSieNaPole</title>
<!-- Node1 -->
<g id="Node000001" class="node">
<title>Node1</title>
<g id="a_Node000001"><a xlink:title="Przenosi człowieka na nowe pole.">
<polygon fill="#999999" stroke="#666666" points="189.25,-76 0,-76 0,-44 189.25,-44 189.25,-76"/>
<text xml:space="preserve" text-anchor="start" x="8" y="-62.5" font-family="Helvetica,sans-Serif" font-size="10.00">proj.selekcjanatur.Symulacja.przemiesc</text>
<text xml:space="preserve" text-anchor="middle" x="94.62" y="-50.5" font-family="Helvetica,sans-Serif" font-size="10.00">SieNaPole</text>
</a>
</g>
</g>
<!-- Node2 -->
<g id="Node000002" class="node">
<title>Node2</title>
<g id="a_Node000002"><a xlink:href="classproj_1_1selekcjanatur_1_1_symulacja.html#adca30037183a0fade601724dd9b8f1bd" target="_top" xlink:title="Dodaje wpis do dziennika zdarzeń">
<polygon fill="white" stroke="#666666" points="395.38,-120 227.88,-120 227.88,-88 395.38,-88 395.38,-120"/>
<text xml:space="preserve" text-anchor="start" x="235.88" y="-106.5" font-family="Helvetica,sans-Serif" font-size="10.00">proj.selekcjanatur.Symulacja.dodaj</text>
<text xml:space="preserve" text-anchor="middle" x="311.62" y="-94.5" font-family="Helvetica,sans-Serif" font-size="10.00">DoDziennika</text>
</a>
</g>
</g>
<!-- Node1&#45;&gt;Node2 -->
<g id="edge1_Node000001_Node000002" class="edge">
<title>Node1&#45;&gt;Node2</title>
<g id="a_edge1_Node000001_Node000002"><a xlink:title=" ">
<path fill="none" stroke="#63b8ff" d="M175.99,-76.45C190.06,-79.33 204.79,-82.34 219.13,-85.27"/>
<polygon fill="#63b8ff" stroke="#63b8ff" points="218.02,-88.62 228.52,-87.2 219.42,-81.76 218.02,-88.62"/>
</a>
</g>
</g>
<!-- Node3 -->
<g id="Node000003" class="node">
<title>Node3</title>
<g id="a_Node000003"><a xlink:href="classproj_1_1selekcjanatur_1_1_czlowiek.html#a19de94d2ab10d64910307b71bf45ed2e" target="_top" xlink:title="Zjada podane jedzenie.">
<polygon fill="white" stroke="#666666" points="392.75,-70 230.5,-70 230.5,-50 392.75,-50 392.75,-70"/>
<text xml:space="preserve" text-anchor="middle" x="311.62" y="-56.5" font-family="Helvetica,sans-Serif" font-size="10.00">proj.selekcjanatur.Czlowiek.zjedz</text>
</a>
</g>
</g>
<!-- Node1&#45;&gt;Node3 -->
<g id="edge2_Node000001_Node000003" class="edge">
<title>Node1&#45;&gt;Node3</title>
<g id="a_edge2_Node000001_Node000003"><a xlink:title=" ">
<path fill="none" stroke="#63b8ff" d="M189.61,-60C199.36,-60 209.26,-60 218.98,-60"/>
<polygon fill="#63b8ff" stroke="#63b8ff" points="218.77,-63.5 228.77,-60 218.77,-56.5 218.77,-63.5"/>
</a>
</g>
</g>
<!-- Node4 -->
<g id="Node000004" class="node">
<title>Node4</title>
<g id="a_Node000004"><a xlink:href="classproj_1_1selekcjanatur_1_1_symulacja.html#ac24b817f5f0ae590ecd7e988b3f78c56" target="_top" xlink:title="Sprawdza czy na danym polu jest jedzenie.">
<polygon fill="white" stroke="#666666" points="398,-32 225.25,-32 225.25,0 398,0 398,-32"/>
<text xml:space="preserve" text-anchor="start" x="233.25" y="-18.5" font-family="Helvetica,sans-Serif" font-size="10.00">proj.selekcjanatur.Symulacja.znajdz</text>
<text xml:space="preserve" text-anchor="middle" x="311.62" y="-6.5" font-family="Helvetica,sans-Serif" font-size="10.00">JedzenieNaPolu</text>
</a>
</g>
</g>
<!-- Node1&#45;&gt;Node4 -->
<g id="edge3_Node000001_Node000004" class="edge">
<title>Node1&#45;&gt;Node4</title>
<g id="a_edge3_Node000001_Node000004"><a xlink:title=" ">
<path fill="none" stroke="#63b8ff" d="M175.99,-43.55C190.06,-40.67 204.79,-37.66 219.13,-34.73"/>
<polygon fill="#63b8ff" stroke="#63b8ff" points="219.42,-38.24 228.52,-32.8 218.02,-31.38 219.42,-38.24"/>
</a>
</g>
</g>
</g>
</svg>
