<?xml version="1.0" encoding="UTF-8" standalone="no"?>
<!DOCTYPE svg PUBLIC "-//W3C//DTD SVG 1.1//EN"
 "http://www.w3.org/Graphics/SVG/1.1/DTD/svg11.dtd">
<!-- Generated by graphviz version 13.0.1 (20250615.1724)
 -->
<!-- Title: proj.selekcjanatur.Czlowiek.rozmnazajZ Pages: 1 -->
<svg width="397pt" height="78pt"
 viewBox="0.00 0.00 397.00 78.00" xmlns="http://www.w3.org/2000/svg" xmlns:xlink="http://www.w3.org/1999/xlink">
<g id="graph0" class="graph" transform="scale(1 1) rotate(0) translate(4 74)">
<title>proj.selekcjanatur.Czlowiek.rozmnazajZ</title>
<!-- Node1 -->
<g id="Node000001" class="node">
<title>Node1</title>
<g id="a_Node000001"><a xlink:title="Rozmnaża się z innym człowiekiem.">
<polygon fill="#999999" stroke="#666666" points="190,-42 0,-42 0,-22 190,-22 190,-42"/>
<text xml:space="preserve" text-anchor="middle" x="95" y="-28.5" font-family="Helvetica,sans-Serif" font-size="10.00">proj.selekcjanatur.Czlowiek.rozmnazajZ</text>
</a>
</g>
</g>
<!-- Node2 -->
<g id="Node000002" class="node">
<title>Node2</title>
<g id="a_Node000002"><a xlink:href="classproj_1_1selekcjanatur_1_1_czlowiek.html#a341bb3b95da388b296452c4155c1c773" target="_top" xlink:title="Konstruktor tworzący nowego człowieka.">
<polygon fill="white" stroke="#666666" points="377,-70 238,-70 238,-38 377,-38 377,-70"/>
<text xml:space="preserve" text-anchor="start" x="246" y="-56.5" font-family="Helvetica,sans-Serif" font-size="10.00">proj.selekcjanatur.Czlowiek.</text>
<text xml:space="preserve" text-anchor="middle" x="307.5" y="-44.5" font-family="Helvetica,sans-Serif" font-size="10.00">Czlowiek</text>
</a>
</g>
</g>
<!-- Node1&#45;&gt;Node2 -->
<g id="edge1_Node000001_Node000002" class="edge">
<title>Node1&#45;&gt;Node2</title>
<g id="a_edge1_Node000001_Node000002"><a xlink:title=" ">
<path fill="none" stroke="#63b8ff" d="M190.47,-41.87C202.48,-43.13 214.68,-44.4 226.44,-45.63"/>
<polygon fill="#63b8ff" stroke="#63b8ff" points="225.73,-49.08 236.04,-46.64 226.46,-42.12 225.73,-49.08"/>
</a>
</g>
</g>
<!-- Node3 -->
<g id="Node000003" class="node">
<title>Node3</title>
<g id="a_Node000003"><a xlink:href="interfaceproj_1_1selekcjanatur_1_1_gen.html#a7dbd3fed6d9dee504bf8217028b50493" target="_top" xlink:title="Tworzy nowy gen poprzez dziedziczenie z mutacją">
<polygon fill="white" stroke="#666666" points="389,-20 226,-20 226,0 389,0 389,-20"/>
<text xml:space="preserve" text-anchor="middle" x="307.5" y="-6.5" font-family="Helvetica,sans-Serif" font-size="10.00">proj.selekcjanatur.Gen.odziedzicz</text>
</a>
</g>
</g>
<!-- Node1&#45;&gt;Node3 -->
<g id="edge2_Node000001_Node000003" class="edge">
<title>Node1&#45;&gt;Node3</title>
<g id="a_edge2_Node000001_Node000003"><a xlink:title=" ">
<path fill="none" stroke="#63b8ff" d="M190.47,-22.13C198.33,-21.3 206.27,-20.48 214.11,-19.66"/>
<polygon fill="#63b8ff" stroke="#63b8ff" points="214.42,-23.14 224.01,-18.62 213.7,-16.18 214.42,-23.14"/>
</a>
</g>
</g>
</g>
</svg>
