<?xml version="1.0" encoding="UTF-8" standalone="no"?>
<!DOCTYPE svg PUBLIC "-//W3C//DTD SVG 1.1//EN"
 "http://www.w3.org/Graphics/SVG/1.1/DTD/svg11.dtd">
<!-- Generated by graphviz version 13.0.1 (20250615.1724)
 -->
<!-- Title: proj.selekcjanatur.App Pages: 1 -->
<svg width="125pt" height="176pt"
 viewBox="0.00 0.00 125.00 176.00" xmlns="http://www.w3.org/2000/svg" xmlns:xlink="http://www.w3.org/1999/xlink">
<g id="graph0" class="graph" transform="scale(1 1) rotate(0) translate(4 172)">
<title>proj.selekcjanatur.App</title>
<!-- Node1 -->
<g id="Node000001" class="node">
<title>Node1</title>
<g id="a_Node000001"><a xlink:title="Główna klasa aplikacji dziedzicząca po Application z JavaFX.">
<polygon fill="#999999" stroke="none" points="117,-80 0,-80 0,0 117,0 117,-80"/>
<text xml:space="preserve" text-anchor="start" x="10.12" y="-66.5" font-family="Helvetica,sans-Serif" font-size="10.00">proj.selekcjanatur.App</text>
<text xml:space="preserve" text-anchor="start" x="4" y="-50.5" font-family="Helvetica,sans-Serif" font-size="10.00">+</text>
<text xml:space="preserve" text-anchor="start" x="14" y="-50.5" font-family="Helvetica,sans-Serif" font-size="10.00">static Random random</text>
<text xml:space="preserve" text-anchor="start" x="4" y="-34.5" font-family="Helvetica,sans-Serif" font-size="10.00">+</text>
<text xml:space="preserve" text-anchor="start" x="14" y="-34.5" font-family="Helvetica,sans-Serif" font-size="10.00">void start(Stage stage)</text>
<text xml:space="preserve" text-anchor="start" x="4" y="-18.5" font-family="Helvetica,sans-Serif" font-size="10.00">+</text>
<text xml:space="preserve" text-anchor="start" x="14" y="-18.5" font-family="Helvetica,sans-Serif" font-size="10.00">static void main(String</text>
<text xml:space="preserve" text-anchor="start" x="14" y="-6.5" font-family="Helvetica,sans-Serif" font-size="10.00">[] args)</text>
<polygon fill="#666666" stroke="#666666" points="0,-62 0,-62 117,-62 117,-62 0,-62"/>
<polygon fill="#666666" stroke="#666666" points="0,-46 0,-46 12,-46 12,-46 0,-46"/>
<polygon fill="#666666" stroke="#666666" points="12,-46 12,-46 117,-46 117,-46 12,-46"/>
<polygon fill="none" stroke="#666666" points="0,0 0,-80 117,-80 117,0 0,0"/>
</a>
</g>
</g>
<!-- Node2 -->
<g id="Node000002" class="node">
<title>Node2</title>
<g id="a_Node000002"><a xlink:title=" ">
<polygon fill="white" stroke="none" points="86.5,-168 30.5,-168 30.5,-116 86.5,-116 86.5,-168"/>
<text xml:space="preserve" text-anchor="start" x="34.5" y="-154.5" font-family="Helvetica,sans-Serif" font-size="10.00">Application</text>
<text xml:space="preserve" text-anchor="start" x="57" y="-138.5" font-family="Helvetica,sans-Serif" font-size="10.00"> </text>
<text xml:space="preserve" text-anchor="start" x="57" y="-122.5" font-family="Helvetica,sans-Serif" font-size="10.00"> </text>
<polygon fill="#666666" stroke="#666666" points="30.5,-150 30.5,-150 86.5,-150 86.5,-150 30.5,-150"/>
<polygon fill="#666666" stroke="#666666" points="30.5,-134 30.5,-134 86.5,-134 86.5,-134 30.5,-134"/>
<polygon fill="none" stroke="#666666" points="30.5,-116 30.5,-168 86.5,-168 86.5,-116 30.5,-116"/>
</a>
</g>
</g>
<!-- Node2&#45;&gt;Node1 -->
<g id="edge1_Node000001_Node000002" class="edge">
<title>Node2&#45;&gt;Node1</title>
<g id="a_edge1_Node000001_Node000002"><a xlink:title=" ">
<path fill="none" stroke="#63b8ff" d="M58.5,-104.61C58.5,-96.5 58.5,-87.86 58.5,-79.65"/>
<polygon fill="none" stroke="#63b8ff" points="55,-104.51 58.5,-114.51 62,-104.51 55,-104.51"/>
</a>
</g>
</g>
</g>
</svg>
