<?xml version="1.0" encoding="UTF-8" standalone="no"?>
<!DOCTYPE svg PUBLIC "-//W3C//DTD SVG 1.1//EN"
 "http://www.w3.org/Graphics/SVG/1.1/DTD/svg11.dtd">
<!-- Generated by graphviz version 13.0.1 (20250615.1724)
 -->
<!-- Title: proj.selekcjanatur.Czlowiek.aktualizuj Pages: 1 -->
<svg width="397pt" height="90pt"
 viewBox="0.00 0.00 397.00 90.00" xmlns="http://www.w3.org/2000/svg" xmlns:xlink="http://www.w3.org/1999/xlink">
<g id="graph0" class="graph" transform="scale(1 1) rotate(0) translate(4 86)">
<title>proj.selekcjanatur.Czlowiek.aktualizuj</title>
<!-- Node1 -->
<g id="Node000001" class="node">
<title>Node1</title>
<g id="a_Node000001"><a xlink:title="Aktualizuje stan człowieka w każdym cyklu symulacji.">
<polygon fill="#999999" stroke="#666666" points="180.25,-51 0,-51 0,-31 180.25,-31 180.25,-51"/>
<text xml:space="preserve" text-anchor="middle" x="90.12" y="-37.5" font-family="Helvetica,sans-Serif" font-size="10.00">proj.selekcjanatur.Czlowiek.aktualizuj</text>
</a>
</g>
</g>
<!-- Node2 -->
<g id="Node000002" class="node">
<title>Node2</title>
<g id="a_Node000002"><a xlink:href="classproj_1_1selekcjanatur_1_1_czlowiek.html#a877a9787e423b1279430dc1f952fea04" target="_top" xlink:title="Sprawdza czy człowiek umiera ze starości.">
<polygon fill="white" stroke="#666666" points="380,-82 225.25,-82 225.25,-50 380,-50 380,-82"/>
<text xml:space="preserve" text-anchor="start" x="233.25" y="-68.5" font-family="Helvetica,sans-Serif" font-size="10.00">proj.selekcjanatur.Czlowiek.czy</text>
<text xml:space="preserve" text-anchor="middle" x="302.62" y="-56.5" font-family="Helvetica,sans-Serif" font-size="10.00">UmieraZeStarosci</text>
</a>
</g>
</g>
<!-- Node1&#45;&gt;Node2 -->
<g id="edge1_Node000001_Node000002" class="edge">
<title>Node1&#45;&gt;Node2</title>
<g id="a_edge1_Node000001_Node000002"><a xlink:title=" ">
<path fill="none" stroke="#63b8ff" d="M179.48,-51.49C190.79,-52.84 202.36,-54.21 213.66,-55.55"/>
<polygon fill="#63b8ff" stroke="#63b8ff" points="213.01,-59 223.35,-56.7 213.83,-52.05 213.01,-59"/>
</a>
</g>
</g>
<!-- Node3 -->
<g id="Node000003" class="node">
<title>Node3</title>
<g id="a_Node000003"><a xlink:href="classproj_1_1selekcjanatur_1_1_czlowiek.html#a53d97caac471e136d612c2eb28f02c2d" target="_top" xlink:title="Oblicza zużycie energii na cykl.">
<polygon fill="white" stroke="#666666" points="389,-32 216.25,-32 216.25,0 389,0 389,-32"/>
<text xml:space="preserve" text-anchor="start" x="224.25" y="-18.5" font-family="Helvetica,sans-Serif" font-size="10.00">proj.selekcjanatur.Czlowiek.zuzycie</text>
<text xml:space="preserve" text-anchor="middle" x="302.62" y="-6.5" font-family="Helvetica,sans-Serif" font-size="10.00">Energii</text>
</a>
</g>
</g>
<!-- Node1&#45;&gt;Node3 -->
<g id="edge2_Node000001_Node000003" class="edge">
<title>Node1&#45;&gt;Node3</title>
<g id="a_edge2_Node000001_Node000003"><a xlink:title=" ">
<path fill="none" stroke="#63b8ff" d="M179.48,-30.51C187.76,-29.52 196.18,-28.52 204.53,-27.53"/>
<polygon fill="#63b8ff" stroke="#63b8ff" points="204.83,-31.02 214.35,-26.37 204.01,-24.07 204.83,-31.02"/>
</a>
</g>
</g>
</g>
</svg>
