<?xml version="1.0" encoding="UTF-8" standalone="no"?>
<!DOCTYPE svg PUBLIC "-//W3C//DTD SVG 1.1//EN"
 "http://www.w3.org/Graphics/SVG/1.1/DTD/svg11.dtd">
<!-- Generated by graphviz version 13.0.1 (20250615.1724)
 -->
<!-- Title: proj.selekcjanatur.Symulacja.dodajDoDziennika Pages: 1 -->
<svg width="864pt" height="230pt"
 viewBox="0.00 0.00 864.00 230.00" xmlns="http://www.w3.org/2000/svg" xmlns:xlink="http://www.w3.org/1999/xlink">
<g id="graph0" class="graph" transform="scale(1 1) rotate(0) translate(4 226.36)">
<title>proj.selekcjanatur.Symulacja.dodajDoDziennika</title>
<!-- Node1 -->
<g id="Node000001" class="node">
<title>Node1</title>
<g id="a_Node000001"><a xlink:title="Dodaje wpis do dziennika zdarzeń">
<polygon fill="#999999" stroke="#666666" points="856,-148 688.5,-148 688.5,-116 856,-116 856,-148"/>
<text xml:space="preserve" text-anchor="start" x="696.5" y="-134.5" font-family="Helvetica,sans-Serif" font-size="10.00">proj.selekcjanatur.Symulacja.dodaj</text>
<text xml:space="preserve" text-anchor="middle" x="772.25" y="-122.5" font-family="Helvetica,sans-Serif" font-size="10.00">DoDziennika</text>
</a>
</g>
</g>
<!-- Node2 -->
<g id="Node000002" class="node">
<title>Node2</title>
<g id="a_Node000002"><a xlink:href="classproj_1_1selekcjanatur_1_1_symulacja.html#adec9a02326fa916fa822eddad509050f" target="_top" xlink:title="Aktualizuje stan symulacji o jeden krok.">
<polygon fill="white" stroke="#666666" points="185.5,-186 0,-186 0,-166 185.5,-166 185.5,-186"/>
<text xml:space="preserve" text-anchor="middle" x="92.75" y="-172.5" font-family="Helvetica,sans-Serif" font-size="10.00">proj.selekcjanatur.Symulacja.aktualizuj</text>
</a>
</g>
</g>
<!-- Node1&#45;&gt;Node2 -->
<g id="edge1_Node000001_Node000002" class="edge">
<title>Node1&#45;&gt;Node2</title>
<g id="a_edge1_Node000001_Node000002"><a xlink:title=" ">
<path fill="none" stroke="#63b8ff" d="M741.22,-154.74C718.28,-170.61 685.15,-190.42 652.5,-199 466.34,-247.89 233.42,-207.27 137.8,-186.45"/>
<polygon fill="#63b8ff" stroke="#63b8ff" points="743.04,-157.74 749.16,-149.1 738.98,-152.03 743.04,-157.74"/>
</a>
</g>
</g>
<!-- Node3 -->
<g id="Node000003" class="node">
<title>Node3</title>
<g id="a_Node000003"><a xlink:href="classproj_1_1selekcjanatur_1_1_symulacja.html#af140417936a5d3f7ca9c02af9dbb2814" target="_top" xlink:title="Aktualizuje stan symulacji (co 3 klatki)">
<polygon fill="white" stroke="#666666" points="427.25,-186 221.5,-186 221.5,-166 427.25,-166 427.25,-186"/>
<text xml:space="preserve" text-anchor="middle" x="324.38" y="-172.5" font-family="Helvetica,sans-Serif" font-size="10.00">proj.selekcjanatur.Symulacja.aktualizujStan</text>
</a>
</g>
</g>
<!-- Node1&#45;&gt;Node3 -->
<g id="edge2_Node000001_Node000003" class="edge">
<title>Node1&#45;&gt;Node3</title>
<g id="a_edge2_Node000001_Node000003"><a xlink:title=" ">
<path fill="none" stroke="#63b8ff" d="M729.09,-153.19C706.9,-163.17 678.89,-173.97 652.5,-179 574.53,-193.87 484.21,-191.61 418.25,-186.49"/>
<polygon fill="#63b8ff" stroke="#63b8ff" points="730.5,-156.4 738.11,-149.02 727.56,-150.04 730.5,-156.4"/>
</a>
</g>
</g>
<!-- Node4 -->
<g id="Node000004" class="node">
<title>Node4</title>
<g id="a_Node000004"><a xlink:href="classproj_1_1selekcjanatur_1_1_symulacja.html#ab361a78b8ca5a29d85b023553d4490f5" target="_top" xlink:title="Dodaje losowe jedzenie na planszę">
<polygon fill="white" stroke="#666666" points="641.62,-170 474.12,-170 474.12,-138 641.62,-138 641.62,-170"/>
<text xml:space="preserve" text-anchor="start" x="482.12" y="-156.5" font-family="Helvetica,sans-Serif" font-size="10.00">proj.selekcjanatur.Symulacja.dodaj</text>
<text xml:space="preserve" text-anchor="middle" x="557.88" y="-144.5" font-family="Helvetica,sans-Serif" font-size="10.00">LosoweJedzenie</text>
</a>
</g>
</g>
<!-- Node1&#45;&gt;Node4 -->
<g id="edge4_Node000001_Node000004" class="edge">
<title>Node1&#45;&gt;Node4</title>
<g id="a_edge4_Node000001_Node000004"><a xlink:title=" ">
<path fill="none" stroke="#63b8ff" d="M677.06,-141.76C665.32,-142.97 653.39,-144.21 641.84,-145.41"/>
<polygon fill="#63b8ff" stroke="#63b8ff" points="677.14,-145.27 686.72,-140.76 676.41,-138.31 677.14,-145.27"/>
</a>
</g>
</g>
<!-- Node5 -->
<g id="Node000005" class="node">
<title>Node5</title>
<g id="a_Node000005"><a xlink:href="classproj_1_1selekcjanatur_1_1_symulacja.html#a41de65a2199621bc5386131e337629f5" target="_top" xlink:title="Konstruktor inicjalizujący symulację">
<polygon fill="white" stroke="#666666" points="396.5,-126 252.25,-126 252.25,-94 396.5,-94 396.5,-126"/>
<text xml:space="preserve" text-anchor="start" x="260.25" y="-112.5" font-family="Helvetica,sans-Serif" font-size="10.00">proj.selekcjanatur.Symulacja.</text>
<text xml:space="preserve" text-anchor="middle" x="324.38" y="-100.5" font-family="Helvetica,sans-Serif" font-size="10.00">Symulacja</text>
</a>
</g>
</g>
<!-- Node1&#45;&gt;Node5 -->
<g id="edge12_Node000001_Node000005" class="edge">
<title>Node1&#45;&gt;Node5</title>
<g id="a_edge12_Node000001_Node000005"><a xlink:title=" ">
<path fill="none" stroke="#63b8ff" d="M676.88,-127.34C593.24,-123.22 472.93,-117.28 396.99,-113.53"/>
<polygon fill="#63b8ff" stroke="#63b8ff" points="676.5,-130.83 686.66,-127.83 676.84,-123.84 676.5,-130.83"/>
</a>
</g>
</g>
<!-- Node6 -->
<g id="Node000006" class="node">
<title>Node6</title>
<g id="a_Node000006"><a xlink:href="classproj_1_1selekcjanatur_1_1_symulacja.html#a2728068a09ceb38515acafb5547d86b3" target="_top" xlink:title="Dodaje losowych ludzi na planszę">
<polygon fill="white" stroke="#666666" points="641.62,-82 474.12,-82 474.12,-50 641.62,-50 641.62,-82"/>
<text xml:space="preserve" text-anchor="start" x="482.12" y="-68.5" font-family="Helvetica,sans-Serif" font-size="10.00">proj.selekcjanatur.Symulacja.dodaj</text>
<text xml:space="preserve" text-anchor="middle" x="557.88" y="-56.5" font-family="Helvetica,sans-Serif" font-size="10.00">LosowychLudzi</text>
</a>
</g>
</g>
<!-- Node1&#45;&gt;Node6 -->
<g id="edge7_Node000001_Node000006" class="edge">
<title>Node1&#45;&gt;Node6</title>
<g id="a_edge7_Node000001_Node000006"><a xlink:title=" ">
<path fill="none" stroke="#63b8ff" d="M707.22,-112.1C676.67,-102.61 640.56,-91.38 611.61,-82.39"/>
<polygon fill="#63b8ff" stroke="#63b8ff" points="706.17,-115.44 716.76,-115.07 708.25,-108.76 706.17,-115.44"/>
</a>
</g>
</g>
<!-- Node7 -->
<g id="Node000007" class="node">
<title>Node7</title>
<g id="a_Node000007"><a xlink:href="classproj_1_1selekcjanatur_1_1_symulacja.html#a1d1661b0578afad91d9b4807d8122e39" target="_top" xlink:title="Przenosi człowieka na nowe pole.">
<polygon fill="white" stroke="#666666" points="652.5,-32 463.25,-32 463.25,0 652.5,0 652.5,-32"/>
<text xml:space="preserve" text-anchor="start" x="471.25" y="-18.5" font-family="Helvetica,sans-Serif" font-size="10.00">proj.selekcjanatur.Symulacja.przemiesc</text>
<text xml:space="preserve" text-anchor="middle" x="557.88" y="-6.5" font-family="Helvetica,sans-Serif" font-size="10.00">SieNaPole</text>
</a>
</g>
</g>
<!-- Node1&#45;&gt;Node7 -->
<g id="edge9_Node000001_Node000007" class="edge">
<title>Node1&#45;&gt;Node7</title>
<g id="a_edge9_Node000001_Node000007"><a xlink:title=" ">
<path fill="none" stroke="#63b8ff" d="M746.24,-108.07C723.48,-87.52 688.09,-58.52 652.5,-41 646.01,-37.81 639.06,-34.98 631.98,-32.49"/>
<polygon fill="#63b8ff" stroke="#63b8ff" points="743.76,-110.55 753.5,-114.74 748.5,-105.4 743.76,-110.55"/>
</a>
</g>
</g>
<!-- Node3&#45;&gt;Node2 -->
<g id="edge3_Node000003_Node000002" class="edge">
<title>Node3&#45;&gt;Node2</title>
<g id="a_edge3_Node000003_Node000002"><a xlink:title=" ">
<path fill="none" stroke="#63b8ff" d="M209.89,-176C201.78,-176 193.67,-176 185.71,-176"/>
<polygon fill="#63b8ff" stroke="#63b8ff" points="209.81,-179.5 219.81,-176 209.81,-172.5 209.81,-179.5"/>
</a>
</g>
</g>
<!-- Node4&#45;&gt;Node3 -->
<g id="edge5_Node000004_Node000003" class="edge">
<title>Node4&#45;&gt;Node3</title>
<g id="a_edge5_Node000004_Node000003"><a xlink:title=" ">
<path fill="none" stroke="#63b8ff" d="M462.32,-162.99C450.89,-164.07 439.19,-165.18 427.66,-166.28"/>
<polygon fill="#63b8ff" stroke="#63b8ff" points="462.49,-166.49 472.12,-162.05 461.83,-159.52 462.49,-166.49"/>
</a>
</g>
</g>
<!-- Node4&#45;&gt;Node5 -->
<g id="edge6_Node000004_Node000005" class="edge">
<title>Node4&#45;&gt;Node5</title>
<g id="a_edge6_Node000004_Node000005"><a xlink:title=" ">
<path fill="none" stroke="#63b8ff" d="M462.6,-136.08C440.63,-131.91 417.59,-127.53 396.8,-123.58"/>
<polygon fill="#63b8ff" stroke="#63b8ff" points="461.66,-139.47 472.14,-137.89 462.97,-132.59 461.66,-139.47"/>
</a>
</g>
</g>
<!-- Node6&#45;&gt;Node5 -->
<g id="edge8_Node000006_Node000005" class="edge">
<title>Node6&#45;&gt;Node5</title>
<g id="a_edge8_Node000006_Node000005"><a xlink:title=" ">
<path fill="none" stroke="#63b8ff" d="M462.6,-83.92C440.63,-88.09 417.59,-92.47 396.8,-96.42"/>
<polygon fill="#63b8ff" stroke="#63b8ff" points="462.97,-87.41 472.14,-82.11 461.66,-80.53 462.97,-87.41"/>
</a>
</g>
</g>
<!-- Node8 -->
<g id="Node000008" class="node">
<title>Node8</title>
<g id="a_Node000008"><a xlink:href="classproj_1_1selekcjanatur_1_1_symulacja.html#a52f53070719050f572593ac7c6908ebd" target="_top" xlink:title="Wykonuje ruch dla danego człowieka.">
<polygon fill="white" stroke="#666666" points="426.12,-51 222.62,-51 222.62,-31 426.12,-31 426.12,-51"/>
<text xml:space="preserve" text-anchor="middle" x="324.38" y="-37.5" font-family="Helvetica,sans-Serif" font-size="10.00">proj.selekcjanatur.Symulacja.wykonajRuch</text>
</a>
</g>
</g>
<!-- Node7&#45;&gt;Node8 -->
<g id="edge10_Node000007_Node000008" class="edge">
<title>Node7&#45;&gt;Node8</title>
<g id="a_edge10_Node000007_Node000008"><a xlink:title=" ">
<path fill="none" stroke="#63b8ff" d="M451.65,-27.36C441.89,-28.42 432.03,-29.48 422.35,-30.53"/>
<polygon fill="#63b8ff" stroke="#63b8ff" points="451.98,-30.85 461.54,-26.29 451.23,-23.89 451.98,-30.85"/>
</a>
</g>
</g>
<!-- Node8&#45;&gt;Node2 -->
<g id="edge11_Node000008_Node000002" class="edge">
<title>Node8&#45;&gt;Node2</title>
<g id="a_edge11_Node000008_Node000002"><a xlink:title=" ">
<path fill="none" stroke="#63b8ff" d="M284.36,-55.59C264.99,-63.4 241.51,-73.72 221.5,-85 176.67,-110.27 128.4,-147.83 106.21,-165.76"/>
<polygon fill="#63b8ff" stroke="#63b8ff" points="285.52,-58.9 293.53,-51.97 282.94,-52.39 285.52,-58.9"/>
</a>
</g>
</g>
</g>
</svg>
