<?xml version="1.0" encoding="UTF-8" standalone="no"?>
<!DOCTYPE svg PUBLIC "-//W3C//DTD SVG 1.1//EN"
 "http://www.w3.org/Graphics/SVG/1.1/DTD/svg11.dtd">
<!-- Generated by graphviz version 13.0.1 (20250615.1724)
 -->
<!-- Title: proj.selekcjanatur.App Pages: 1 -->
<svg width="153pt" height="192pt"
 viewBox="0.00 0.00 153.00 192.00" xmlns="http://www.w3.org/2000/svg" xmlns:xlink="http://www.w3.org/1999/xlink">
<g id="graph0" class="graph" transform="scale(1 1) rotate(0) translate(4 188)">
<title>proj.selekcjanatur.App</title>
<!-- Node1 -->
<g id="Node000001" class="node">
<title>Node1</title>
<g id="a_Node000001"><a xlink:title="Główna klasa aplikacji dziedzicząca po Application z JavaFX.">
<polygon fill="#999999" stroke="none" points="144.75,-96 0,-96 0,0 144.75,0 144.75,-96"/>
<text xml:space="preserve" text-anchor="start" x="24" y="-82.5" font-family="Helvetica,sans-Serif" font-size="10.00">proj.selekcjanatur.App</text>
<text xml:space="preserve" text-anchor="start" x="4" y="-66.5" font-family="Helvetica,sans-Serif" font-size="10.00">+</text>
<text xml:space="preserve" text-anchor="start" x="14" y="-66.5" font-family="Helvetica,sans-Serif" font-size="10.00">static Random random</text>
<text xml:space="preserve" text-anchor="start" x="4" y="-50.5" font-family="Helvetica,sans-Serif" font-size="10.00">+</text>
<text xml:space="preserve" text-anchor="start" x="14" y="-50.5" font-family="Helvetica,sans-Serif" font-size="10.00">static String dziennikZdarzen</text>
<text xml:space="preserve" text-anchor="start" x="4" y="-34.5" font-family="Helvetica,sans-Serif" font-size="10.00">+</text>
<text xml:space="preserve" text-anchor="start" x="14" y="-34.5" font-family="Helvetica,sans-Serif" font-size="10.00">void start(Stage stage)</text>
<text xml:space="preserve" text-anchor="start" x="4" y="-18.5" font-family="Helvetica,sans-Serif" font-size="10.00">+</text>
<text xml:space="preserve" text-anchor="start" x="14" y="-18.5" font-family="Helvetica,sans-Serif" font-size="10.00">static void main(String</text>
<text xml:space="preserve" text-anchor="start" x="14" y="-6.5" font-family="Helvetica,sans-Serif" font-size="10.00">[] args)</text>
<polygon fill="#666666" stroke="#666666" points="0,-78 0,-78 144.75,-78 144.75,-78 0,-78"/>
<polygon fill="#666666" stroke="#666666" points="0,-46 0,-46 12,-46 12,-46 0,-46"/>
<polygon fill="#666666" stroke="#666666" points="12,-46 12,-46 144.75,-46 144.75,-46 12,-46"/>
<polygon fill="none" stroke="#666666" points="0,0 0,-96 144.75,-96 144.75,0 0,0"/>
</a>
</g>
</g>
<!-- Node2 -->
<g id="Node000002" class="node">
<title>Node2</title>
<g id="a_Node000002"><a xlink:title=" ">
<polygon fill="white" stroke="none" points="100.38,-184 44.38,-184 44.38,-132 100.38,-132 100.38,-184"/>
<text xml:space="preserve" text-anchor="start" x="48.38" y="-170.5" font-family="Helvetica,sans-Serif" font-size="10.00">Application</text>
<text xml:space="preserve" text-anchor="start" x="70.88" y="-154.5" font-family="Helvetica,sans-Serif" font-size="10.00"> </text>
<text xml:space="preserve" text-anchor="start" x="70.88" y="-138.5" font-family="Helvetica,sans-Serif" font-size="10.00"> </text>
<polygon fill="#666666" stroke="#666666" points="44.38,-166 44.38,-166 100.38,-166 100.38,-166 44.38,-166"/>
<polygon fill="#666666" stroke="#666666" points="44.38,-150 44.38,-150 100.38,-150 100.38,-150 44.38,-150"/>
<polygon fill="none" stroke="#666666" points="44.38,-132 44.38,-184 100.38,-184 100.38,-132 44.38,-132"/>
</a>
</g>
</g>
<!-- Node2&#45;&gt;Node1 -->
<g id="edge1_Node000001_Node000002" class="edge">
<title>Node2&#45;&gt;Node1</title>
<g id="a_edge1_Node000001_Node000002"><a xlink:title=" ">
<path fill="none" stroke="#63b8ff" d="M72.38,-120.93C72.38,-112.86 72.38,-104.19 72.38,-95.75"/>
<polygon fill="none" stroke="#63b8ff" points="68.88,-120.71 72.38,-130.71 75.88,-120.71 68.88,-120.71"/>
</a>
</g>
</g>
</g>
</svg>
