<?xml version="1.0" encoding="UTF-8" standalone="no"?>
<!DOCTYPE svg PUBLIC "-//W3C//DTD SVG 1.1//EN"
 "http://www.w3.org/Graphics/SVG/1.1/DTD/svg11.dtd">
<!-- Generated by graphviz version 13.0.1 (20250615.1724)
 -->
<!-- Title: proj.selekcjanatur.Kobieta Pages: 1 -->
<svg width="184pt" height="643pt"
 viewBox="0.00 0.00 184.00 643.00" xmlns="http://www.w3.org/2000/svg" xmlns:xlink="http://www.w3.org/1999/xlink">
<g id="graph0" class="graph" transform="scale(1 1) rotate(0) translate(4 639)">
<title>proj.selekcjanatur.Kobieta</title>
<!-- Node1 -->
<g id="Node000001" class="node">
<title>Node1</title>
<g id="a_Node000001"><a xlink:title="Specjalizacja klasy Czlowiek reprezentująca kobietę">
<polygon fill="#999999" stroke="none" points="156.38,-84 19.12,-84 19.12,0 156.38,0 156.38,-84"/>
<text xml:space="preserve" text-anchor="start" x="31.5" y="-70.5" font-family="Helvetica,sans-Serif" font-size="10.00">proj.selekcjanatur.Kobieta</text>
<text xml:space="preserve" text-anchor="start" x="86.25" y="-54.5" font-family="Helvetica,sans-Serif" font-size="10.00"> </text>
<text xml:space="preserve" text-anchor="start" x="23.12" y="-38.5" font-family="Helvetica,sans-Serif" font-size="10.00">+</text>
<text xml:space="preserve" text-anchor="start" x="33.12" y="-38.5" font-family="Helvetica,sans-Serif" font-size="10.00">Kobieta(int x, int y)</text>
<text xml:space="preserve" text-anchor="start" x="23.12" y="-22.5" font-family="Helvetica,sans-Serif" font-size="10.00">+</text>
<text xml:space="preserve" text-anchor="start" x="33.12" y="-22.5" font-family="Helvetica,sans-Serif" font-size="10.00">boolean czyMezczyzna()</text>
<text xml:space="preserve" text-anchor="start" x="23.12" y="-6.5" font-family="Helvetica,sans-Serif" font-size="10.00">+</text>
<text xml:space="preserve" text-anchor="start" x="33.12" y="-6.5" font-family="Helvetica,sans-Serif" font-size="10.00">boolean mozeRozmnazac()</text>
<polygon fill="#666666" stroke="#666666" points="19.12,-66 19.12,-66 156.38,-66 156.38,-66 19.12,-66"/>
<polygon fill="#666666" stroke="#666666" points="19.12,-50 19.12,-50 156.38,-50 156.38,-50 19.12,-50"/>
<polygon fill="none" stroke="#666666" points="19.12,0 19.12,-84 156.38,-84 156.38,0 19.12,0"/>
</a>
</g>
</g>
<!-- Node2 -->
<g id="Node000002" class="node">
<title>Node2</title>
<g id="a_Node000002"><a xlink:href="classproj_1_1selekcjanatur_1_1_czlowiek.html" target="_top" xlink:title="Abstrakcyjna klasa reprezentująca człowieka w symulacji ewolucyjnej.">
<polygon fill="white" stroke="none" points="175.5,-513 0,-513 0,-121 175.5,-121 175.5,-513"/>
<text xml:space="preserve" text-anchor="start" x="27.75" y="-499.5" font-family="Helvetica,sans-Serif" font-size="10.00">proj.selekcjanatur.Czlowiek</text>
<text xml:space="preserve" text-anchor="start" x="4" y="-483.5" font-family="Helvetica,sans-Serif" font-size="10.00">+</text>
<text xml:space="preserve" text-anchor="start" x="14" y="-483.5" font-family="Helvetica,sans-Serif" font-size="10.00">int x</text>
<text xml:space="preserve" text-anchor="start" x="4" y="-467.5" font-family="Helvetica,sans-Serif" font-size="10.00">+</text>
<text xml:space="preserve" text-anchor="start" x="14" y="-467.5" font-family="Helvetica,sans-Serif" font-size="10.00">int y</text>
<text xml:space="preserve" text-anchor="start" x="4" y="-451.5" font-family="Helvetica,sans-Serif" font-size="10.00">+</text>
<text xml:space="preserve" text-anchor="start" x="14" y="-451.5" font-family="Helvetica,sans-Serif" font-size="10.00">final int id</text>
<text xml:space="preserve" text-anchor="start" x="4.38" y="-435.5" font-family="Helvetica,sans-Serif" font-size="10.00">#</text>
<text xml:space="preserve" text-anchor="start" x="14" y="-435.5" font-family="Helvetica,sans-Serif" font-size="10.00">boolean zywy</text>
<text xml:space="preserve" text-anchor="start" x="4.38" y="-419.5" font-family="Helvetica,sans-Serif" font-size="10.00">#</text>
<text xml:space="preserve" text-anchor="start" x="14" y="-419.5" font-family="Helvetica,sans-Serif" font-size="10.00">float poziomGlodu</text>
<text xml:space="preserve" text-anchor="start" x="4.38" y="-403.5" font-family="Helvetica,sans-Serif" font-size="10.00">#</text>
<text xml:space="preserve" text-anchor="start" x="14" y="-403.5" font-family="Helvetica,sans-Serif" font-size="10.00">int czasOdRozmnazania</text>
<text xml:space="preserve" text-anchor="start" x="4.38" y="-387.5" font-family="Helvetica,sans-Serif" font-size="10.00">#</text>
<text xml:space="preserve" text-anchor="start" x="14" y="-387.5" font-family="Helvetica,sans-Serif" font-size="10.00">int wiek</text>
<text xml:space="preserve" text-anchor="start" x="5.5" y="-371.5" font-family="Helvetica,sans-Serif" font-size="10.00">&#45;</text>
<text xml:space="preserve" text-anchor="start" x="14" y="-371.5" font-family="Helvetica,sans-Serif" font-size="10.00">static int globalneId</text>
<text xml:space="preserve" text-anchor="start" x="4" y="-355.5" font-family="Helvetica,sans-Serif" font-size="10.00">+</text>
<text xml:space="preserve" text-anchor="start" x="14" y="-355.5" font-family="Helvetica,sans-Serif" font-size="10.00">Czlowiek(int x, int y)</text>
<text xml:space="preserve" text-anchor="start" x="4" y="-339.5" font-family="Helvetica,sans-Serif" font-size="10.00">+</text>
<text xml:space="preserve" text-anchor="start" x="14" y="-339.5" font-family="Helvetica,sans-Serif" font-size="10.00">boolean jestDzieckiem()</text>
<text xml:space="preserve" text-anchor="start" x="4" y="-323.5" font-family="Helvetica,sans-Serif" font-size="10.00">+</text>
<text xml:space="preserve" text-anchor="start" x="14" y="-323.5" font-family="Helvetica,sans-Serif" font-size="10.00">int zasiegWzroku()</text>
<text xml:space="preserve" text-anchor="start" x="4" y="-307.5" font-family="Helvetica,sans-Serif" font-size="10.00">+</text>
<text xml:space="preserve" text-anchor="start" x="14" y="-307.5" font-family="Helvetica,sans-Serif" font-size="10.00">int predkosc()</text>
<text xml:space="preserve" text-anchor="start" x="4" y="-291.5" font-family="Helvetica,sans-Serif" font-size="10.00">+</text>
<text xml:space="preserve" text-anchor="start" x="14" y="-291.5" font-family="Helvetica,sans-Serif" font-size="10.00">float zuzycieEnergii()</text>
<text xml:space="preserve" text-anchor="start" x="4" y="-275.5" font-family="Helvetica,sans-Serif" font-size="10.00">+</text>
<text xml:space="preserve" text-anchor="start" x="14" y="-275.5" font-family="Helvetica,sans-Serif" font-size="10.00">void aktualizuj()</text>
<text xml:space="preserve" text-anchor="start" x="4" y="-259.5" font-family="Helvetica,sans-Serif" font-size="10.00">+</text>
<text xml:space="preserve" text-anchor="start" x="14" y="-259.5" font-family="Helvetica,sans-Serif" font-size="10.00">boolean powinnienSieRuszyc</text>
<text xml:space="preserve" text-anchor="start" x="14" y="-247.5" font-family="Helvetica,sans-Serif" font-size="10.00">(int klatki)</text>
<text xml:space="preserve" text-anchor="start" x="4" y="-231.5" font-family="Helvetica,sans-Serif" font-size="10.00">+</text>
<text xml:space="preserve" text-anchor="start" x="14" y="-231.5" font-family="Helvetica,sans-Serif" font-size="10.00">abstract boolean mozeRozmnazac()</text>
<text xml:space="preserve" text-anchor="start" x="4" y="-215.5" font-family="Helvetica,sans-Serif" font-size="10.00">+</text>
<text xml:space="preserve" text-anchor="start" x="14" y="-215.5" font-family="Helvetica,sans-Serif" font-size="10.00">void zjedz(Jedzenie</text>
<text xml:space="preserve" text-anchor="start" x="14" y="-203.5" font-family="Helvetica,sans-Serif" font-size="10.00"> jedzenie)</text>
<text xml:space="preserve" text-anchor="start" x="4" y="-187.5" font-family="Helvetica,sans-Serif" font-size="10.00">+</text>
<text xml:space="preserve" text-anchor="start" x="14" y="-187.5" font-family="Helvetica,sans-Serif" font-size="10.00">abstract boolean czyMezczyzna()</text>
<text xml:space="preserve" text-anchor="start" x="4" y="-171.5" font-family="Helvetica,sans-Serif" font-size="10.00">+</text>
<text xml:space="preserve" text-anchor="start" x="14" y="-171.5" font-family="Helvetica,sans-Serif" font-size="10.00">boolean czyUmieraZeStarosci()</text>
<text xml:space="preserve" text-anchor="start" x="4" y="-155.5" font-family="Helvetica,sans-Serif" font-size="10.00">+</text>
<text xml:space="preserve" text-anchor="start" x="14" y="-155.5" font-family="Helvetica,sans-Serif" font-size="10.00">Czlowiek rozmnazajZ</text>
<text xml:space="preserve" text-anchor="start" x="14" y="-143.5" font-family="Helvetica,sans-Serif" font-size="10.00">(Czlowiek inny)</text>
<text xml:space="preserve" text-anchor="start" x="4" y="-127.5" font-family="Helvetica,sans-Serif" font-size="10.00">+</text>
<text xml:space="preserve" text-anchor="start" x="14" y="-127.5" font-family="Helvetica,sans-Serif" font-size="10.00">String toString()</text>
<polygon fill="#666666" stroke="#666666" points="0,-495 0,-495 175.5,-495 175.5,-495 0,-495"/>
<polygon fill="#666666" stroke="#666666" points="0,-367 0,-367 12,-367 12,-367 0,-367"/>
<polygon fill="#666666" stroke="#666666" points="12,-367 12,-367 175.5,-367 175.5,-367 12,-367"/>
<polygon fill="none" stroke="#666666" points="0,-121 0,-513 175.5,-513 175.5,-121 0,-121"/>
</a>
</g>
</g>
<!-- Node2&#45;&gt;Node1 -->
<g id="edge1_Node000001_Node000002" class="edge">
<title>Node2&#45;&gt;Node1</title>
<g id="a_edge1_Node000001_Node000002"><a xlink:title=" ">
<path fill="none" stroke="#63b8ff" d="M87.75,-109.99C87.75,-100.63 87.75,-91.86 87.75,-83.96"/>
<polygon fill="none" stroke="#63b8ff" points="84.25,-109.72 87.75,-119.72 91.25,-109.72 84.25,-109.72"/>
</a>
</g>
</g>
<!-- Node3 -->
<g id="Node000003" class="node">
<title>Node3</title>
<g id="a_Node000003"><a xlink:href="interfaceproj_1_1selekcjanatur_1_1_gen.html" target="_top" xlink:title="Interfejs reprezentujący gen w symulacji ewolucyjnej.">
<polygon fill="white" stroke="none" points="140.5,-635 35,-635 35,-567 140.5,-567 140.5,-635"/>
<text xml:space="preserve" text-anchor="start" x="39" y="-621.5" font-family="Helvetica,sans-Serif" font-size="10.00">proj.selekcjanatur.Gen</text>
<text xml:space="preserve" text-anchor="start" x="86.25" y="-605.5" font-family="Helvetica,sans-Serif" font-size="10.00"> </text>
<text xml:space="preserve" text-anchor="start" x="42.5" y="-589.5" font-family="Helvetica,sans-Serif" font-size="10.00">+</text>
<text xml:space="preserve" text-anchor="start" x="56" y="-589.5" font-family="Helvetica,sans-Serif" font-size="10.00">float wartosc()</text>
<text xml:space="preserve" text-anchor="start" x="42.5" y="-573.5" font-family="Helvetica,sans-Serif" font-size="10.00">+</text>
<text xml:space="preserve" text-anchor="start" x="56" y="-573.5" font-family="Helvetica,sans-Serif" font-size="10.00">Gen odziedzicz()</text>
<polygon fill="#666666" stroke="#666666" points="35,-617 35,-617 140.5,-617 140.5,-617 35,-617"/>
<polygon fill="#666666" stroke="#666666" points="35,-601 35,-601 140.5,-601 140.5,-601 35,-601"/>
<polygon fill="none" stroke="#666666" points="35,-567 35,-635 140.5,-635 140.5,-567 35,-567"/>
</a>
</g>
</g>
<!-- Node3&#45;&gt;Node2 -->
<g id="edge2_Node000002_Node000003" class="edge">
<title>Node3&#45;&gt;Node2</title>
<g id="a_edge2_Node000002_Node000003"><a xlink:title=" ">
<path fill="none" stroke="#63b8ff" d="M87.75,-567.1C87.75,-555.41 87.75,-541.23 87.75,-525.65"/>
<polygon fill="none" stroke="#63b8ff" points="87.75,-525.77 83.75,-519.77 87.75,-513.77 91.75,-519.77 87.75,-525.77"/>
</a>
</g>
<text xml:space="preserve" text-anchor="start" x="90.75" y="-536.5" font-family="Helvetica,sans-Serif" font-size="10.00" fill="grey">#geny</text>
</g>
</g>
</svg>
