<?xml version="1.0" encoding="UTF-8" standalone="no"?>
<!DOCTYPE svg PUBLIC "-//W3C//DTD SVG 1.1//EN"
 "http://www.w3.org/Graphics/SVG/1.1/DTD/svg11.dtd">
<!-- Generated by graphviz version 13.0.1 (20250615.1724)
 -->
<!-- Title: proj.selekcjanatur.Czlowiek.czyMezczyzna Pages: 1 -->
<svg width="835pt" height="128pt"
 viewBox="0.00 0.00 835.00 128.00" xmlns="http://www.w3.org/2000/svg" xmlns:xlink="http://www.w3.org/1999/xlink">
<g id="graph0" class="graph" transform="scale(1 1) rotate(0) translate(4 124)">
<title>proj.selekcjanatur.Czlowiek.czyMezczyzna</title>
<!-- Node1 -->
<g id="Node000001" class="node">
<title>Node1</title>
<g id="a_Node000001"><a xlink:title="Sprawdza płeć człowieka.">
<polygon fill="#999999" stroke="#666666" points="826.75,-82 672,-82 672,-50 826.75,-50 826.75,-82"/>
<text xml:space="preserve" text-anchor="start" x="680" y="-68.5" font-family="Helvetica,sans-Serif" font-size="10.00">proj.selekcjanatur.Czlowiek.czy</text>
<text xml:space="preserve" text-anchor="middle" x="749.38" y="-56.5" font-family="Helvetica,sans-Serif" font-size="10.00">Mezczyzna</text>
</a>
</g>
</g>
<!-- Node2 -->
<g id="Node000002" class="node">
<title>Node2</title>
<g id="a_Node000002"><a xlink:href="classproj_1_1selekcjanatur_1_1_symulacja.html#af140417936a5d3f7ca9c02af9dbb2814" target="_top" xlink:title="Aktualizuje stan symulacji (co 3 klatki)">
<polygon fill="white" stroke="#666666" points="427.25,-120 221.5,-120 221.5,-100 427.25,-100 427.25,-120"/>
<text xml:space="preserve" text-anchor="middle" x="324.38" y="-106.5" font-family="Helvetica,sans-Serif" font-size="10.00">proj.selekcjanatur.Symulacja.aktualizujStan</text>
</a>
</g>
</g>
<!-- Node1&#45;&gt;Node2 -->
<g id="edge1_Node000001_Node000002" class="edge">
<title>Node1&#45;&gt;Node2</title>
<g id="a_edge1_Node000001_Node000002"><a xlink:title=" ">
<path fill="none" stroke="#63b8ff" d="M671.27,-84.83C659.51,-87.22 647.47,-89.38 636,-91 566.85,-100.74 488.35,-105.49 427.56,-107.81"/>
<polygon fill="#63b8ff" stroke="#63b8ff" points="671.89,-88.28 680.96,-82.8 670.45,-81.43 671.89,-88.28"/>
</a>
</g>
</g>
<!-- Node4 -->
<g id="Node000004" class="node">
<title>Node4</title>
<g id="a_Node000004"><a xlink:href="classproj_1_1selekcjanatur_1_1_symulacja.html#a2728068a09ceb38515acafb5547d86b3" target="_top" xlink:title="Dodaje losowych ludzi na planszę">
<polygon fill="white" stroke="#666666" points="633.38,-82 465.88,-82 465.88,-50 633.38,-50 633.38,-82"/>
<text xml:space="preserve" text-anchor="start" x="473.88" y="-68.5" font-family="Helvetica,sans-Serif" font-size="10.00">proj.selekcjanatur.Symulacja.dodaj</text>
<text xml:space="preserve" text-anchor="middle" x="549.62" y="-56.5" font-family="Helvetica,sans-Serif" font-size="10.00">LosowychLudzi</text>
</a>
</g>
</g>
<!-- Node1&#45;&gt;Node4 -->
<g id="edge3_Node000001_Node000004" class="edge">
<title>Node1&#45;&gt;Node4</title>
<g id="a_edge3_Node000001_Node000004"><a xlink:title=" ">
<path fill="none" stroke="#63b8ff" d="M660.21,-66C651.45,-66 642.58,-66 633.87,-66"/>
<polygon fill="#63b8ff" stroke="#63b8ff" points="660.12,-69.5 670.12,-66 660.12,-62.5 660.12,-69.5"/>
</a>
</g>
</g>
<!-- Node6 -->
<g id="Node000006" class="node">
<title>Node6</title>
<g id="a_Node000006"><a xlink:href="classproj_1_1selekcjanatur_1_1_symulacja.html#a308b1488a3d7d83887fc3aea6c4ca4ee" target="_top" xlink:title="Znajduje partnera do rozmnażania w zasięgu wzroku.">
<polygon fill="white" stroke="#666666" points="636,-32 463.25,-32 463.25,0 636,0 636,-32"/>
<text xml:space="preserve" text-anchor="start" x="471.25" y="-18.5" font-family="Helvetica,sans-Serif" font-size="10.00">proj.selekcjanatur.Symulacja.znajdz</text>
<text xml:space="preserve" text-anchor="middle" x="549.62" y="-6.5" font-family="Helvetica,sans-Serif" font-size="10.00">Partnera</text>
</a>
</g>
</g>
<!-- Node1&#45;&gt;Node6 -->
<g id="edge5_Node000001_Node000006" class="edge">
<title>Node1&#45;&gt;Node6</title>
<g id="a_edge5_Node000001_Node000006"><a xlink:title=" ">
<path fill="none" stroke="#63b8ff" d="M672.22,-46.74C653.56,-42.03 633.77,-37.02 615.69,-32.45"/>
<polygon fill="#63b8ff" stroke="#63b8ff" points="671.33,-50.13 681.88,-49.19 673.05,-43.34 671.33,-50.13"/>
</a>
</g>
</g>
<!-- Node3 -->
<g id="Node000003" class="node">
<title>Node3</title>
<g id="a_Node000003"><a xlink:href="classproj_1_1selekcjanatur_1_1_symulacja.html#adec9a02326fa916fa822eddad509050f" target="_top" xlink:title="Aktualizuje stan symulacji o jeden krok.">
<polygon fill="white" stroke="#666666" points="185.5,-76 0,-76 0,-56 185.5,-56 185.5,-76"/>
<text xml:space="preserve" text-anchor="middle" x="92.75" y="-62.5" font-family="Helvetica,sans-Serif" font-size="10.00">proj.selekcjanatur.Symulacja.aktualizuj</text>
</a>
</g>
</g>
<!-- Node2&#45;&gt;Node3 -->
<g id="edge2_Node000002_Node000003" class="edge">
<title>Node2&#45;&gt;Node3</title>
<g id="a_edge2_Node000002_Node000003"><a xlink:title=" ">
<path fill="none" stroke="#63b8ff" d="M255.55,-97.44C244.18,-95.31 232.5,-93.1 221.5,-91 196.86,-86.29 169.57,-80.97 146.56,-76.44"/>
<polygon fill="#63b8ff" stroke="#63b8ff" points="254.82,-100.86 265.29,-99.26 256.1,-93.98 254.82,-100.86"/>
</a>
</g>
</g>
<!-- Node5 -->
<g id="Node000005" class="node">
<title>Node5</title>
<g id="a_Node000005"><a xlink:href="classproj_1_1selekcjanatur_1_1_symulacja.html#a41de65a2199621bc5386131e337629f5" target="_top" xlink:title="Konstruktor inicjalizujący symulację">
<polygon fill="white" stroke="#666666" points="396.5,-82 252.25,-82 252.25,-50 396.5,-50 396.5,-82"/>
<text xml:space="preserve" text-anchor="start" x="260.25" y="-68.5" font-family="Helvetica,sans-Serif" font-size="10.00">proj.selekcjanatur.Symulacja.</text>
<text xml:space="preserve" text-anchor="middle" x="324.38" y="-56.5" font-family="Helvetica,sans-Serif" font-size="10.00">Symulacja</text>
</a>
</g>
</g>
<!-- Node4&#45;&gt;Node5 -->
<g id="edge4_Node000004_Node000005" class="edge">
<title>Node4&#45;&gt;Node5</title>
<g id="a_edge4_Node000004_Node000005"><a xlink:title=" ">
<path fill="none" stroke="#63b8ff" d="M454,-66C434.86,-66 415.03,-66 396.85,-66"/>
<polygon fill="#63b8ff" stroke="#63b8ff" points="453.98,-69.5 463.98,-66 453.98,-62.5 453.98,-69.5"/>
</a>
</g>
</g>
<!-- Node7 -->
<g id="Node000007" class="node">
<title>Node7</title>
<g id="a_Node000007"><a xlink:href="classproj_1_1selekcjanatur_1_1_symulacja.html#a52f53070719050f572593ac7c6908ebd" target="_top" xlink:title="Wykonuje ruch dla danego człowieka.">
<polygon fill="white" stroke="#666666" points="426.12,-29 222.62,-29 222.62,-9 426.12,-9 426.12,-29"/>
<text xml:space="preserve" text-anchor="middle" x="324.38" y="-15.5" font-family="Helvetica,sans-Serif" font-size="10.00">proj.selekcjanatur.Symulacja.wykonajRuch</text>
</a>
</g>
</g>
<!-- Node6&#45;&gt;Node7 -->
<g id="edge6_Node000006_Node000007" class="edge">
<title>Node6&#45;&gt;Node7</title>
<g id="a_edge6_Node000006_Node000007"><a xlink:title=" ">
<path fill="none" stroke="#63b8ff" d="M451.66,-17.3C443.32,-17.42 434.87,-17.53 426.5,-17.64"/>
<polygon fill="#63b8ff" stroke="#63b8ff" points="451.48,-20.81 461.44,-17.17 451.39,-13.81 451.48,-20.81"/>
</a>
</g>
</g>
<!-- Node7&#45;&gt;Node3 -->
<g id="edge7_Node000007_Node000003" class="edge">
<title>Node7&#45;&gt;Node3</title>
<g id="a_edge7_Node000007_Node000003"><a xlink:title=" ">
<path fill="none" stroke="#63b8ff" d="M261.12,-31.74C224.66,-39.2 179.19,-48.51 144.84,-55.54"/>
<polygon fill="#63b8ff" stroke="#63b8ff" points="261.55,-35.23 270.65,-29.79 260.15,-28.37 261.55,-35.23"/>
</a>
</g>
</g>
</g>
</svg>
