<?xml version="1.0" encoding="UTF-8" standalone="no"?>
<!DOCTYPE svg PUBLIC "-//W3C//DTD SVG 1.1//EN"
 "http://www.w3.org/Graphics/SVG/1.1/DTD/svg11.dtd">
<!-- Generated by graphviz version 13.0.1 (20250615.1724)
 -->
<!-- Title: proj.selekcjanatur.Symulacja.aktualizujStan Pages: 1 -->
<svg width="643pt" height="238pt"
 viewBox="0.00 0.00 643.00 238.00" xmlns="http://www.w3.org/2000/svg" xmlns:xlink="http://www.w3.org/1999/xlink">
<g id="graph0" class="graph" transform="scale(1 1) rotate(0) translate(4 234)">
<title>proj.selekcjanatur.Symulacja.aktualizujStan</title>
<!-- Node1 -->
<g id="Node000001" class="node">
<title>Node1</title>
<g id="a_Node000001"><a xlink:title="Aktualizuje stan symulacji (co 3 klatki)">
<polygon fill="#999999" stroke="#666666" points="205.75,-136 0,-136 0,-116 205.75,-116 205.75,-136"/>
<text xml:space="preserve" text-anchor="middle" x="102.88" y="-122.5" font-family="Helvetica,sans-Serif" font-size="10.00">proj.selekcjanatur.Symulacja.aktualizujStan</text>
</a>
</g>
</g>
<!-- Node2 -->
<g id="Node000002" class="node">
<title>Node2</title>
<g id="a_Node000002"><a xlink:href="classproj_1_1selekcjanatur_1_1_czlowiek.html#ac88bbff18c715a98a16d48103b3b495b" target="_top" xlink:title="Sprawdza płeć człowieka.">
<polygon fill="white" stroke="#666666" points="414.12,-230 259.38,-230 259.38,-198 414.12,-198 414.12,-230"/>
<text xml:space="preserve" text-anchor="start" x="267.38" y="-216.5" font-family="Helvetica,sans-Serif" font-size="10.00">proj.selekcjanatur.Czlowiek.czy</text>
<text xml:space="preserve" text-anchor="middle" x="336.75" y="-204.5" font-family="Helvetica,sans-Serif" font-size="10.00">Mezczyzna</text>
</a>
</g>
</g>
<!-- Node1&#45;&gt;Node2 -->
<g id="edge1_Node000001_Node000002" class="edge">
<title>Node1&#45;&gt;Node2</title>
<g id="a_edge1_Node000001_Node000002"><a xlink:title=" ">
<path fill="none" stroke="#63b8ff" d="M127.04,-136.49C154.23,-148.64 200.82,-168.89 241.75,-184 250.97,-187.4 260.79,-190.79 270.46,-194"/>
<polygon fill="#63b8ff" stroke="#63b8ff" points="269.26,-197.28 279.85,-197.06 271.43,-190.63 269.26,-197.28"/>
</a>
</g>
</g>
<!-- Node3 -->
<g id="Node000003" class="node">
<title>Node3</title>
<g id="a_Node000003"><a xlink:href="classproj_1_1selekcjanatur_1_1_symulacja.html#adca30037183a0fade601724dd9b8f1bd" target="_top" xlink:title="Dodaje wpis do dziennika zdarzeń">
<polygon fill="white" stroke="#666666" points="635.25,-164 467.75,-164 467.75,-132 635.25,-132 635.25,-164"/>
<text xml:space="preserve" text-anchor="start" x="475.75" y="-150.5" font-family="Helvetica,sans-Serif" font-size="10.00">proj.selekcjanatur.Symulacja.dodaj</text>
<text xml:space="preserve" text-anchor="middle" x="551.5" y="-138.5" font-family="Helvetica,sans-Serif" font-size="10.00">DoDziennika</text>
</a>
</g>
</g>
<!-- Node1&#45;&gt;Node3 -->
<g id="edge2_Node000001_Node000003" class="edge">
<title>Node1&#45;&gt;Node3</title>
<g id="a_edge2_Node000001_Node000003"><a xlink:title=" ">
<path fill="none" stroke="#63b8ff" d="M149.87,-136.47C176.54,-142.01 210.86,-148.22 241.75,-151 325.86,-158.56 347.31,-152.07 431.75,-151 439.69,-150.9 447.93,-150.76 456.19,-150.6"/>
<polygon fill="#63b8ff" stroke="#63b8ff" points="456.02,-154.1 465.94,-150.4 455.87,-147.11 456.02,-154.1"/>
</a>
</g>
</g>
<!-- Node4 -->
<g id="Node000004" class="node">
<title>Node4</title>
<g id="a_Node000004"><a xlink:href="classproj_1_1selekcjanatur_1_1_symulacja.html#ab361a78b8ca5a29d85b023553d4490f5" target="_top" xlink:title="Dodaje losowe jedzenie na planszę">
<polygon fill="white" stroke="#666666" points="420.5,-142 253,-142 253,-110 420.5,-110 420.5,-142"/>
<text xml:space="preserve" text-anchor="start" x="261" y="-128.5" font-family="Helvetica,sans-Serif" font-size="10.00">proj.selekcjanatur.Symulacja.dodaj</text>
<text xml:space="preserve" text-anchor="middle" x="336.75" y="-116.5" font-family="Helvetica,sans-Serif" font-size="10.00">LosoweJedzenie</text>
</a>
</g>
</g>
<!-- Node1&#45;&gt;Node4 -->
<g id="edge3_Node000001_Node000004" class="edge">
<title>Node1&#45;&gt;Node4</title>
<g id="a_edge3_Node000001_Node000004"><a xlink:title=" ">
<path fill="none" stroke="#63b8ff" d="M205.92,-126C217.79,-126 229.87,-126 241.63,-126"/>
<polygon fill="#63b8ff" stroke="#63b8ff" points="241.29,-129.5 251.29,-126 241.29,-122.5 241.29,-129.5"/>
</a>
</g>
</g>
<!-- Node5 -->
<g id="Node000005" class="node">
<title>Node5</title>
<g id="a_Node000005"><a xlink:href="classproj_1_1selekcjanatur_1_1_czlowiek.html#a104718c5aefe504867235fa48c03a645" target="_top" xlink:title="Sprawdza możliwość rozmnożenia.">
<polygon fill="white" stroke="#666666" points="418.25,-92 255.25,-92 255.25,-60 418.25,-60 418.25,-92"/>
<text xml:space="preserve" text-anchor="start" x="263.25" y="-78.5" font-family="Helvetica,sans-Serif" font-size="10.00">proj.selekcjanatur.Czlowiek.moze</text>
<text xml:space="preserve" text-anchor="middle" x="336.75" y="-66.5" font-family="Helvetica,sans-Serif" font-size="10.00">Rozmnazac</text>
</a>
</g>
</g>
<!-- Node1&#45;&gt;Node5 -->
<g id="edge5_Node000001_Node000005" class="edge">
<title>Node1&#45;&gt;Node5</title>
<g id="a_edge5_Node000001_Node000005"><a xlink:title=" ">
<path fill="none" stroke="#63b8ff" d="M152.48,-115.52C180.28,-109.52 215.99,-101.83 248.48,-94.82"/>
<polygon fill="#63b8ff" stroke="#63b8ff" points="248.85,-98.32 257.89,-92.79 247.37,-91.48 248.85,-98.32"/>
</a>
</g>
</g>
<!-- Node6 -->
<g id="Node000006" class="node">
<title>Node6</title>
<g id="a_Node000006"><a xlink:href="classproj_1_1selekcjanatur_1_1_czlowiek.html#ac542fecf860b53af21ee3063be486d27" target="_top" xlink:title="Rozmnaża się z innym człowiekiem.">
<polygon fill="white" stroke="#666666" points="431.75,-42 241.75,-42 241.75,-22 431.75,-22 431.75,-42"/>
<text xml:space="preserve" text-anchor="middle" x="336.75" y="-28.5" font-family="Helvetica,sans-Serif" font-size="10.00">proj.selekcjanatur.Czlowiek.rozmnazajZ</text>
</a>
</g>
</g>
<!-- Node1&#45;&gt;Node6 -->
<g id="edge6_Node000001_Node000006" class="edge">
<title>Node1&#45;&gt;Node6</title>
<g id="a_edge6_Node000001_Node000006"><a xlink:title=" ">
<path fill="none" stroke="#63b8ff" d="M119.28,-115.61C144.02,-99.38 194.63,-68.14 241.75,-51 247.52,-48.9 253.58,-47.01 259.72,-45.32"/>
<polygon fill="#63b8ff" stroke="#63b8ff" points="260.54,-48.72 269.36,-42.85 258.81,-41.94 260.54,-48.72"/>
</a>
</g>
</g>
<!-- Node4&#45;&gt;Node3 -->
<g id="edge4_Node000004_Node000003" class="edge">
<title>Node4&#45;&gt;Node3</title>
<g id="a_edge4_Node000004_Node000003"><a xlink:title=" ">
<path fill="none" stroke="#63b8ff" d="M420.92,-134.6C432.49,-135.8 444.44,-137.03 456.2,-138.25"/>
<polygon fill="#63b8ff" stroke="#63b8ff" points="455.58,-141.7 465.88,-139.25 456.3,-134.74 455.58,-141.7"/>
</a>
</g>
</g>
<!-- Node7 -->
<g id="Node000007" class="node">
<title>Node7</title>
<g id="a_Node000007"><a xlink:href="classproj_1_1selekcjanatur_1_1_czlowiek.html#a341bb3b95da388b296452c4155c1c773" target="_top" xlink:title="Konstruktor tworzący nowego człowieka.">
<polygon fill="white" stroke="#666666" points="621,-70 482,-70 482,-38 621,-38 621,-70"/>
<text xml:space="preserve" text-anchor="start" x="490" y="-56.5" font-family="Helvetica,sans-Serif" font-size="10.00">proj.selekcjanatur.Czlowiek.</text>
<text xml:space="preserve" text-anchor="middle" x="551.5" y="-44.5" font-family="Helvetica,sans-Serif" font-size="10.00">Czlowiek</text>
</a>
</g>
</g>
<!-- Node6&#45;&gt;Node7 -->
<g id="edge7_Node000006_Node000007" class="edge">
<title>Node6&#45;&gt;Node7</title>
<g id="a_edge7_Node000006_Node000007"><a xlink:title=" ">
<path fill="none" stroke="#63b8ff" d="M431.99,-41.75C444.76,-43.07 457.76,-44.41 470.25,-45.7"/>
<polygon fill="#63b8ff" stroke="#63b8ff" points="469.74,-49.17 480.05,-46.71 470.46,-42.2 469.74,-49.17"/>
</a>
</g>
</g>
<!-- Node8 -->
<g id="Node000008" class="node">
<title>Node8</title>
<g id="a_Node000008"><a xlink:href="interfaceproj_1_1selekcjanatur_1_1_gen.html#a7dbd3fed6d9dee504bf8217028b50493" target="_top" xlink:title="Tworzy nowy gen poprzez dziedziczenie z mutacją">
<polygon fill="white" stroke="#666666" points="633,-20 470,-20 470,0 633,0 633,-20"/>
<text xml:space="preserve" text-anchor="middle" x="551.5" y="-6.5" font-family="Helvetica,sans-Serif" font-size="10.00">proj.selekcjanatur.Gen.odziedzicz</text>
</a>
</g>
</g>
<!-- Node6&#45;&gt;Node8 -->
<g id="edge8_Node000006_Node000008" class="edge">
<title>Node6&#45;&gt;Node8</title>
<g id="a_edge8_Node000006_Node000008"><a xlink:title=" ">
<path fill="none" stroke="#63b8ff" d="M431.99,-22.25C440.73,-21.35 449.57,-20.44 458.28,-19.54"/>
<polygon fill="#63b8ff" stroke="#63b8ff" points="458.55,-23.03 468.14,-18.52 457.83,-16.06 458.55,-23.03"/>
</a>
</g>
</g>
</g>
</svg>
