<?xml version="1.0" encoding="UTF-8" standalone="no"?>
<!DOCTYPE svg PUBLIC "-//W3C//DTD SVG 1.1//EN"
 "http://www.w3.org/Graphics/SVG/1.1/DTD/svg11.dtd">
<!-- Generated by graphviz version 13.0.1 (20250615.1724)
 -->
<!-- Title: proj.selekcjanatur.Czlowiek.zjedz Pages: 1 -->
<svg width="857pt" height="40pt"
 viewBox="0.00 0.00 857.00 40.00" xmlns="http://www.w3.org/2000/svg" xmlns:xlink="http://www.w3.org/1999/xlink">
<g id="graph0" class="graph" transform="scale(1 1) rotate(0) translate(4 36)">
<title>proj.selekcjanatur.Czlowiek.zjedz</title>
<!-- Node1 -->
<g id="Node000001" class="node">
<title>Node1</title>
<g id="a_Node000001"><a xlink:title="Zjada podane jedzenie.">
<polygon fill="#999999" stroke="#666666" points="848.5,-26 686.25,-26 686.25,-6 848.5,-6 848.5,-26"/>
<text xml:space="preserve" text-anchor="middle" x="767.38" y="-12.5" font-family="Helvetica,sans-Serif" font-size="10.00">proj.selekcjanatur.Czlowiek.zjedz</text>
</a>
</g>
</g>
<!-- Node2 -->
<g id="Node000002" class="node">
<title>Node2</title>
<g id="a_Node000002"><a xlink:href="classproj_1_1selekcjanatur_1_1_symulacja.html#a1d1661b0578afad91d9b4807d8122e39" target="_top" xlink:title="Przenosi człowieka na nowe pole.">
<polygon fill="white" stroke="#666666" points="650.25,-32 461,-32 461,0 650.25,0 650.25,-32"/>
<text xml:space="preserve" text-anchor="start" x="469" y="-18.5" font-family="Helvetica,sans-Serif" font-size="10.00">proj.selekcjanatur.Symulacja.przemiesc</text>
<text xml:space="preserve" text-anchor="middle" x="555.62" y="-6.5" font-family="Helvetica,sans-Serif" font-size="10.00">SieNaPole</text>
</a>
</g>
</g>
<!-- Node1&#45;&gt;Node2 -->
<g id="edge1_Node000001_Node000002" class="edge">
<title>Node1&#45;&gt;Node2</title>
<g id="a_edge1_Node000001_Node000002"><a xlink:title=" ">
<path fill="none" stroke="#63b8ff" d="M674.39,-16C666.49,-16 658.49,-16 650.57,-16"/>
<polygon fill="#63b8ff" stroke="#63b8ff" points="674.37,-19.5 684.37,-16 674.37,-12.5 674.37,-19.5"/>
</a>
</g>
</g>
<!-- Node3 -->
<g id="Node000003" class="node">
<title>Node3</title>
<g id="a_Node000003"><a xlink:href="classproj_1_1selekcjanatur_1_1_symulacja.html#a52f53070719050f572593ac7c6908ebd" target="_top" xlink:title="Wykonuje ruch dla danego człowieka.">
<polygon fill="white" stroke="#666666" points="425,-26 221.5,-26 221.5,-6 425,-6 425,-26"/>
<text xml:space="preserve" text-anchor="middle" x="323.25" y="-12.5" font-family="Helvetica,sans-Serif" font-size="10.00">proj.selekcjanatur.Symulacja.wykonajRuch</text>
</a>
</g>
</g>
<!-- Node2&#45;&gt;Node3 -->
<g id="edge2_Node000002_Node000003" class="edge">
<title>Node2&#45;&gt;Node3</title>
<g id="a_edge2_Node000002_Node000003"><a xlink:title=" ">
<path fill="none" stroke="#63b8ff" d="M449.12,-16C441.25,-16 433.32,-16 425.48,-16"/>
<polygon fill="#63b8ff" stroke="#63b8ff" points="449.08,-19.5 459.08,-16 449.08,-12.5 449.08,-19.5"/>
</a>
</g>
</g>
<!-- Node4 -->
<g id="Node000004" class="node">
<title>Node4</title>
<g id="a_Node000004"><a xlink:href="classproj_1_1selekcjanatur_1_1_symulacja.html#adec9a02326fa916fa822eddad509050f" target="_top" xlink:title="Aktualizuje stan symulacji o jeden krok.">
<polygon fill="white" stroke="#666666" points="185.5,-26 0,-26 0,-6 185.5,-6 185.5,-26"/>
<text xml:space="preserve" text-anchor="middle" x="92.75" y="-12.5" font-family="Helvetica,sans-Serif" font-size="10.00">proj.selekcjanatur.Symulacja.aktualizuj</text>
</a>
</g>
</g>
<!-- Node3&#45;&gt;Node4 -->
<g id="edge3_Node000003_Node000004" class="edge">
<title>Node3&#45;&gt;Node4</title>
<g id="a_edge3_Node000003_Node000004"><a xlink:title=" ">
<path fill="none" stroke="#63b8ff" d="M209.75,-16C201.75,-16 193.74,-16 185.88,-16"/>
<polygon fill="#63b8ff" stroke="#63b8ff" points="209.52,-19.5 219.52,-16 209.52,-12.5 209.52,-19.5"/>
</a>
</g>
</g>
</g>
</svg>
