<?xml version="1.0" encoding="UTF-8" standalone="no"?>
<!DOCTYPE svg PUBLIC "-//W3C//DTD SVG 1.1//EN"
 "http://www.w3.org/Graphics/SVG/1.1/DTD/svg11.dtd">
<!-- Generated by graphviz version 13.0.1 (20250615.1724)
 -->
<!-- Title: proj.selekcjanatur.Symulacja.dodajLosowychLudzi Pages: 1 -->
<svg width="379pt" height="90pt"
 viewBox="0.00 0.00 379.00 90.00" xmlns="http://www.w3.org/2000/svg" xmlns:xlink="http://www.w3.org/1999/xlink">
<g id="graph0" class="graph" transform="scale(1 1) rotate(0) translate(4 86)">
<title>proj.selekcjanatur.Symulacja.dodajLosowychLudzi</title>
<!-- Node1 -->
<g id="Node000001" class="node">
<title>Node1</title>
<g id="a_Node000001"><a xlink:title="Dodaje losowych ludzi na planszę">
<polygon fill="#999999" stroke="#666666" points="167.5,-57 0,-57 0,-25 167.5,-25 167.5,-57"/>
<text xml:space="preserve" text-anchor="start" x="8" y="-43.5" font-family="Helvetica,sans-Serif" font-size="10.00">proj.selekcjanatur.Symulacja.dodaj</text>
<text xml:space="preserve" text-anchor="middle" x="83.75" y="-31.5" font-family="Helvetica,sans-Serif" font-size="10.00">LosowychLudzi</text>
</a>
</g>
</g>
<!-- Node2 -->
<g id="Node000002" class="node">
<title>Node2</title>
<g id="a_Node000002"><a xlink:href="classproj_1_1selekcjanatur_1_1_czlowiek.html#ac88bbff18c715a98a16d48103b3b495b" target="_top" xlink:title="Sprawdza płeć człowieka.">
<polygon fill="white" stroke="#666666" points="364.62,-82 209.88,-82 209.88,-50 364.62,-50 364.62,-82"/>
<text xml:space="preserve" text-anchor="start" x="217.88" y="-68.5" font-family="Helvetica,sans-Serif" font-size="10.00">proj.selekcjanatur.Czlowiek.czy</text>
<text xml:space="preserve" text-anchor="middle" x="287.25" y="-56.5" font-family="Helvetica,sans-Serif" font-size="10.00">Mezczyzna</text>
</a>
</g>
</g>
<!-- Node1&#45;&gt;Node2 -->
<g id="edge1_Node000001_Node000002" class="edge">
<title>Node1&#45;&gt;Node2</title>
<g id="a_edge1_Node000001_Node000002"><a xlink:title=" ">
<path fill="none" stroke="#63b8ff" d="M167.87,-51.31C177.87,-52.55 188.12,-53.82 198.19,-55.07"/>
<polygon fill="#63b8ff" stroke="#63b8ff" points="197.61,-58.53 207.96,-56.29 198.47,-51.58 197.61,-58.53"/>
</a>
</g>
</g>
<!-- Node3 -->
<g id="Node000003" class="node">
<title>Node3</title>
<g id="a_Node000003"><a xlink:href="classproj_1_1selekcjanatur_1_1_symulacja.html#adca30037183a0fade601724dd9b8f1bd" target="_top" xlink:title="Dodaje wpis do dziennika zdarzeń">
<polygon fill="white" stroke="#666666" points="371,-32 203.5,-32 203.5,0 371,0 371,-32"/>
<text xml:space="preserve" text-anchor="start" x="211.5" y="-18.5" font-family="Helvetica,sans-Serif" font-size="10.00">proj.selekcjanatur.Symulacja.dodaj</text>
<text xml:space="preserve" text-anchor="middle" x="287.25" y="-6.5" font-family="Helvetica,sans-Serif" font-size="10.00">DoDziennika</text>
</a>
</g>
</g>
<!-- Node1&#45;&gt;Node3 -->
<g id="edge2_Node000001_Node000003" class="edge">
<title>Node1&#45;&gt;Node3</title>
<g id="a_edge2_Node000001_Node000003"><a xlink:title=" ">
<path fill="none" stroke="#63b8ff" d="M167.87,-30.69C175.83,-29.7 183.94,-28.69 191.99,-27.69"/>
<polygon fill="#63b8ff" stroke="#63b8ff" points="192.32,-31.18 201.82,-26.48 191.46,-24.23 192.32,-31.18"/>
</a>
</g>
</g>
</g>
</svg>
