<?xml version="1.0" encoding="UTF-8" standalone="no"?>
<!DOCTYPE svg PUBLIC "-//W3C//DTD SVG 1.1//EN"
 "http://www.w3.org/Graphics/SVG/1.1/DTD/svg11.dtd">
<!-- Generated by graphviz version 13.0.1 (20250615.1724)
 -->
<!-- Title: proj.selekcjanatur.Czlowiek.jestDzieckiem Pages: 1 -->
<svg width="372pt" height="90pt"
 viewBox="0.00 0.00 372.00 90.00" xmlns="http://www.w3.org/2000/svg" xmlns:xlink="http://www.w3.org/1999/xlink">
<g id="graph0" class="graph" transform="scale(1 1) rotate(0) translate(4 86)">
<title>proj.selekcjanatur.Czlowiek.jestDzieckiem</title>
<!-- Node1 -->
<g id="Node000001" class="node">
<title>Node1</title>
<g id="a_Node000001"><a xlink:title="Sprawdza czy człowiek jest dzieckiem.">
<polygon fill="#999999" stroke="#666666" points="363.5,-57 208.75,-57 208.75,-25 363.5,-25 363.5,-57"/>
<text xml:space="preserve" text-anchor="start" x="216.75" y="-43.5" font-family="Helvetica,sans-Serif" font-size="10.00">proj.selekcjanatur.Czlowiek.jest</text>
<text xml:space="preserve" text-anchor="middle" x="286.12" y="-31.5" font-family="Helvetica,sans-Serif" font-size="10.00">Dzieckiem</text>
</a>
</g>
</g>
<!-- Node2 -->
<g id="Node000002" class="node">
<title>Node2</title>
<g id="a_Node000002"><a xlink:href="classproj_1_1selekcjanatur_1_1_kobieta.html#a2a0a9cd3a3bc1e439e1c5c278381a9d3" target="_top" xlink:title="Określa możliwość rozmnażania.">
<polygon fill="white" stroke="#666666" points="164.12,-82 8.62,-82 8.62,-50 164.12,-50 164.12,-82"/>
<text xml:space="preserve" text-anchor="start" x="16.62" y="-68.5" font-family="Helvetica,sans-Serif" font-size="10.00">proj.selekcjanatur.Kobieta.moze</text>
<text xml:space="preserve" text-anchor="middle" x="86.38" y="-56.5" font-family="Helvetica,sans-Serif" font-size="10.00">Rozmnazac</text>
</a>
</g>
</g>
<!-- Node1&#45;&gt;Node2 -->
<g id="edge1_Node000001_Node000002" class="edge">
<title>Node1&#45;&gt;Node2</title>
<g id="a_edge1_Node000001_Node000002"><a xlink:title=" ">
<path fill="none" stroke="#63b8ff" d="M197.11,-52.13C186.2,-53.51 175.12,-54.91 164.4,-56.26"/>
<polygon fill="#63b8ff" stroke="#63b8ff" points="197.4,-55.62 206.89,-50.89 196.53,-48.67 197.4,-55.62"/>
</a>
</g>
</g>
<!-- Node3 -->
<g id="Node000003" class="node">
<title>Node3</title>
<g id="a_Node000003"><a xlink:href="classproj_1_1selekcjanatur_1_1_mezczyzna.html#a6252640fd21d46c66daf76ce143dcf6a" target="_top" xlink:title="Określa możliwość rozmnażania.">
<polygon fill="white" stroke="#666666" points="172.75,-32 0,-32 0,0 172.75,0 172.75,-32"/>
<text xml:space="preserve" text-anchor="start" x="8" y="-18.5" font-family="Helvetica,sans-Serif" font-size="10.00">proj.selekcjanatur.Mezczyzna.moze</text>
<text xml:space="preserve" text-anchor="middle" x="86.38" y="-6.5" font-family="Helvetica,sans-Serif" font-size="10.00">Rozmnazac</text>
</a>
</g>
</g>
<!-- Node1&#45;&gt;Node3 -->
<g id="edge2_Node000001_Node000003" class="edge">
<title>Node1&#45;&gt;Node3</title>
<g id="a_edge2_Node000001_Node000003"><a xlink:title=" ">
<path fill="none" stroke="#63b8ff" d="M197.11,-29.87C189.08,-28.86 180.95,-27.83 172.93,-26.82"/>
<polygon fill="#63b8ff" stroke="#63b8ff" points="196.53,-33.33 206.89,-31.11 197.4,-26.38 196.53,-33.33"/>
</a>
</g>
</g>
</g>
</svg>
