<?xml version="1.0" encoding="UTF-8" standalone="no"?>
<!DOCTYPE svg PUBLIC "-//W3C//DTD SVG 1.1//EN"
 "http://www.w3.org/Graphics/SVG/1.1/DTD/svg11.dtd">
<!-- Generated by graphviz version 13.0.1 (20250615.1724)
 -->
<!-- Title: Graficzna hierarchia klas Pages: 1 -->
<svg width="326pt" height="66pt"
 viewBox="0.00 0.00 326.00 66.00" xmlns="http://www.w3.org/2000/svg" xmlns:xlink="http://www.w3.org/1999/xlink">
<g id="graph0" class="graph" transform="scale(1 1) rotate(0) translate(4 62)">
<title>Graficzna hierarchia klas</title>
<!-- Node0 -->
<g id="Node000000" class="node">
<title>Node0</title>
<g id="a_Node000000"><a xlink:href="classproj_1_1selekcjanatur_1_1_czlowiek.html" target="_top" xlink:title="Abstrakcyjna klasa reprezentująca człowieka w symulacji ewolucyjnej.">
<polygon fill="white" stroke="#666666" points="136,-39 0,-39 0,-19 136,-19 136,-39"/>
<text xml:space="preserve" text-anchor="middle" x="68" y="-25.5" font-family="Helvetica,sans-Serif" font-size="10.00">proj.selekcjanatur.Czlowiek</text>
</a>
</g>
</g>
<!-- Node1 -->
<g id="Node000001" class="node">
<title>Node1</title>
<g id="a_Node000001"><a xlink:href="classproj_1_1selekcjanatur_1_1_kobieta.html" target="_top" xlink:title="Specjalizacja klasy Czlowiek reprezentująca kobietę">
<polygon fill="white" stroke="#666666" points="309.12,-58 180.62,-58 180.62,-38 309.12,-38 309.12,-58"/>
<text xml:space="preserve" text-anchor="middle" x="244.88" y="-44.5" font-family="Helvetica,sans-Serif" font-size="10.00">proj.selekcjanatur.Kobieta</text>
</a>
</g>
</g>
<!-- Node0&#45;&gt;Node1 -->
<g id="edge2_Node000000_Node000001" class="edge">
<title>Node0&#45;&gt;Node1</title>
<g id="a_edge2_Node000000_Node000001"><a xlink:title=" ">
<path fill="none" stroke="#63b8ff" d="M147.65,-37.55C158.57,-38.73 169.68,-39.94 180.28,-41.09"/>
<polygon fill="#63b8ff" stroke="#63b8ff" points="148.19,-34.08 137.87,-36.48 147.43,-41.04 148.19,-34.08"/>
</a>
</g>
</g>
<!-- Node2 -->
<g id="Node000002" class="node">
<title>Node2</title>
<g id="a_Node000002"><a xlink:href="classproj_1_1selekcjanatur_1_1_mezczyzna.html" target="_top" xlink:title="Specjalizacja klasy Czlowiek reprezentująca mężczyznę">
<polygon fill="white" stroke="#666666" points="317.75,-20 172,-20 172,0 317.75,0 317.75,-20"/>
<text xml:space="preserve" text-anchor="middle" x="244.88" y="-6.5" font-family="Helvetica,sans-Serif" font-size="10.00">proj.selekcjanatur.Mezczyzna</text>
</a>
</g>
</g>
<!-- Node0&#45;&gt;Node2 -->
<g id="edge3_Node000000_Node000002" class="edge">
<title>Node0&#45;&gt;Node2</title>
<g id="a_edge3_Node000000_Node000002"><a xlink:title=" ">
<path fill="none" stroke="#63b8ff" d="M147.58,-20.46C155.58,-19.59 163.68,-18.71 171.61,-17.85"/>
<polygon fill="#63b8ff" stroke="#63b8ff" points="147.43,-16.96 137.87,-21.52 148.19,-23.92 147.43,-16.96"/>
</a>
</g>
</g>
</g>
</svg>
