<?xml version="1.0" encoding="UTF-8" standalone="no"?>
<!DOCTYPE svg PUBLIC "-//W3C//DTD SVG 1.1//EN"
 "http://www.w3.org/Graphics/SVG/1.1/DTD/svg11.dtd">
<!-- Generated by graphviz version 13.0.1 (20250615.1724)
 -->
<!-- Title: Graficzna hierarchia klas Pages: 1 -->
<svg width="333pt" height="66pt"
 viewBox="0.00 0.00 333.00 66.00" xmlns="http://www.w3.org/2000/svg" xmlns:xlink="http://www.w3.org/1999/xlink">
<g id="graph0" class="graph" transform="scale(1 1) rotate(0) translate(4 62)">
<title>Graficzna hierarchia klas</title>
<!-- Node0 -->
<g id="Node000000" class="node">
<title>Node0</title>
<g id="a_Node000000"><a xlink:href="interfaceproj_1_1selekcjanatur_1_1_interfejs_symulacji.html" target="_top" xlink:title="Główny interfejs systemu symulacji ewolucyjnej.">
<polygon fill="white" stroke="#666666" points="130.75,-45 0,-45 0,-13 130.75,-13 130.75,-45"/>
<text xml:space="preserve" text-anchor="start" x="8" y="-31.5" font-family="Helvetica,sans-Serif" font-size="10.00">proj.selekcjanatur.Interfejs</text>
<text xml:space="preserve" text-anchor="middle" x="65.38" y="-19.5" font-family="Helvetica,sans-Serif" font-size="10.00">Symulacji</text>
</a>
</g>
</g>
<!-- Node1 -->
<g id="Node000001" class="node">
<title>Node1</title>
<g id="a_Node000001"><a xlink:href="classproj_1_1selekcjanatur_1_1_symulacja.html" target="_top" xlink:title="Implementacja symulacji ewolucyjnej z dziedziczeniem cech.">
<polygon fill="white" stroke="#666666" points="316.25,-58 175,-58 175,-38 316.25,-38 316.25,-58"/>
<text xml:space="preserve" text-anchor="middle" x="245.62" y="-44.5" font-family="Helvetica,sans-Serif" font-size="10.00">proj.selekcjanatur.Symulacja</text>
</a>
</g>
</g>
<!-- Node0&#45;&gt;Node1 -->
<g id="edge7_Node000000_Node000001" class="edge">
<title>Node0&#45;&gt;Node1</title>
<g id="a_edge7_Node000000_Node000001"><a xlink:title=" ">
<path fill="none" stroke="#63b8ff" d="M142.65,-37.13C153.3,-38.26 164.19,-39.43 174.71,-40.55"/>
<polygon fill="#63b8ff" stroke="#63b8ff" points="143.05,-33.65 132.74,-36.07 142.31,-40.61 143.05,-33.65"/>
</a>
</g>
</g>
<!-- Node2 -->
<g id="Node000002" class="node">
<title>Node2</title>
<g id="a_Node000002"><a xlink:href="classproj_1_1selekcjanatur_1_1_symulacja_plik.html" target="_top" xlink:title="Klasa odtwarzająca symulację na podstawie zapisanego dziennika zdarzeń">
<polygon fill="white" stroke="#666666" points="324.5,-20 166.75,-20 166.75,0 324.5,0 324.5,-20"/>
<text xml:space="preserve" text-anchor="middle" x="245.62" y="-6.5" font-family="Helvetica,sans-Serif" font-size="10.00">proj.selekcjanatur.SymulacjaPlik</text>
</a>
</g>
</g>
<!-- Node0&#45;&gt;Node2 -->
<g id="edge8_Node000000_Node000002" class="edge">
<title>Node0&#45;&gt;Node2</title>
<g id="a_edge8_Node000000_Node000002"><a xlink:title=" ">
<path fill="none" stroke="#63b8ff" d="M142.66,-20.87C150.54,-20.03 158.57,-19.17 166.47,-18.33"/>
<polygon fill="#63b8ff" stroke="#63b8ff" points="142.31,-17.39 132.74,-21.93 143.05,-24.35 142.31,-17.39"/>
</a>
</g>
</g>
</g>
</svg>
