<?xml version="1.0" encoding="UTF-8" standalone="no"?>
<!DOCTYPE svg PUBLIC "-//W3C//DTD SVG 1.1//EN"
 "http://www.w3.org/Graphics/SVG/1.1/DTD/svg11.dtd">
<!-- Generated by graphviz version 13.0.1 (20250615.1724)
 -->
<!-- Title: Graficzna hierarchia klas Pages: 1 -->
<svg width="345pt" height="128pt"
 viewBox="0.00 0.00 345.00 128.00" xmlns="http://www.w3.org/2000/svg" xmlns:xlink="http://www.w3.org/1999/xlink">
<g id="graph0" class="graph" transform="scale(1 1) rotate(0) translate(4 124)">
<title>Graficzna hierarchia klas</title>
<!-- Node0 -->
<g id="Node000000" class="node">
<title>Node0</title>
<g id="a_Node000000"><a xlink:href="interfaceproj_1_1selekcjanatur_1_1_gen.html" target="_top" xlink:title="Interfejs reprezentujący gen w symulacji ewolucyjnej.">
<polygon fill="white" stroke="#666666" points="113.5,-70 0,-70 0,-50 113.5,-50 113.5,-70"/>
<text xml:space="preserve" text-anchor="middle" x="56.75" y="-56.5" font-family="Helvetica,sans-Serif" font-size="10.00">proj.selekcjanatur.Gen</text>
</a>
</g>
</g>
<!-- Node1 -->
<g id="Node000001" class="node">
<title>Node1</title>
<g id="a_Node000001"><a xlink:href="classproj_1_1selekcjanatur_1_1_gen_predkosc_chodzenia.html" target="_top" xlink:title="Klasa implementująca gen prędkości chodzenia.">
<polygon fill="white" stroke="#666666" points="320.75,-120 166,-120 166,-88 320.75,-88 320.75,-120"/>
<text xml:space="preserve" text-anchor="start" x="174" y="-106.5" font-family="Helvetica,sans-Serif" font-size="10.00">proj.selekcjanatur.GenPredkosc</text>
<text xml:space="preserve" text-anchor="middle" x="243.38" y="-94.5" font-family="Helvetica,sans-Serif" font-size="10.00">Chodzenia</text>
</a>
</g>
</g>
<!-- Node0&#45;&gt;Node1 -->
<g id="edge4_Node000000_Node000001" class="edge">
<title>Node0&#45;&gt;Node1</title>
<g id="a_edge4_Node000000_Node000001"><a xlink:title=" ">
<path fill="none" stroke="#63b8ff" d="M112.68,-73.09C131.71,-77.63 153.29,-82.77 173.31,-87.54"/>
<polygon fill="#63b8ff" stroke="#63b8ff" points="113.51,-69.69 102.98,-70.78 111.89,-76.5 113.51,-69.69"/>
</a>
</g>
</g>
<!-- Node2 -->
<g id="Node000002" class="node">
<title>Node2</title>
<g id="a_Node000002"><a xlink:href="classproj_1_1selekcjanatur_1_1_gen_wzrok.html" target="_top" xlink:title="Klasa implementująca gen zasięgu wzroku.">
<polygon fill="white" stroke="#666666" points="314.38,-70 172.38,-70 172.38,-50 314.38,-50 314.38,-70"/>
<text xml:space="preserve" text-anchor="middle" x="243.38" y="-56.5" font-family="Helvetica,sans-Serif" font-size="10.00">proj.selekcjanatur.GenWzrok</text>
</a>
</g>
</g>
<!-- Node0&#45;&gt;Node2 -->
<g id="edge5_Node000000_Node000002" class="edge">
<title>Node0&#45;&gt;Node2</title>
<g id="a_edge5_Node000000_Node000002"><a xlink:title=" ">
<path fill="none" stroke="#63b8ff" d="M125.33,-60C140.57,-60 156.78,-60 172.13,-60"/>
<polygon fill="#63b8ff" stroke="#63b8ff" points="125.41,-56.5 115.41,-60 125.41,-63.5 125.41,-56.5"/>
</a>
</g>
</g>
<!-- Node3 -->
<g id="Node000003" class="node">
<title>Node3</title>
<g id="a_Node000003"><a xlink:href="classproj_1_1selekcjanatur_1_1_gen_zapotrzebowanie_energetyczne.html" target="_top" xlink:title="Klasa implementująca gen zapotrzebowania energetycznego.">
<polygon fill="white" stroke="#666666" points="337.25,-32 149.5,-32 149.5,0 337.25,0 337.25,-32"/>
<text xml:space="preserve" text-anchor="start" x="157.5" y="-18.5" font-family="Helvetica,sans-Serif" font-size="10.00">proj.selekcjanatur.GenZapotrzebowanie</text>
<text xml:space="preserve" text-anchor="middle" x="243.38" y="-6.5" font-family="Helvetica,sans-Serif" font-size="10.00">Energetyczne</text>
</a>
</g>
</g>
<!-- Node0&#45;&gt;Node3 -->
<g id="edge6_Node000000_Node000003" class="edge">
<title>Node0&#45;&gt;Node3</title>
<g id="a_edge6_Node000000_Node000003"><a xlink:title=" ">
<path fill="none" stroke="#63b8ff" d="M112.68,-46.91C131.71,-42.37 153.29,-37.23 173.31,-32.46"/>
<polygon fill="#63b8ff" stroke="#63b8ff" points="111.89,-43.5 102.98,-49.22 113.51,-50.31 111.89,-43.5"/>
</a>
</g>
</g>
</g>
</svg>
