<?xml version="1.0" encoding="UTF-8" standalone="no"?>
<!DOCTYPE svg PUBLIC "-//W3C//DTD SVG 1.1//EN"
 "http://www.w3.org/Graphics/SVG/1.1/DTD/svg11.dtd">
<!-- Generated by graphviz version 13.0.1 (20250615.1724)
 -->
<!-- Title: proj.selekcjanatur.InterfejsSymulacji Pages: 1 -->
<svg width="184pt" height="136pt"
 viewBox="0.00 0.00 184.00 136.00" xmlns="http://www.w3.org/2000/svg" xmlns:xlink="http://www.w3.org/1999/xlink">
<g id="graph0" class="graph" transform="scale(1 1) rotate(0) translate(4 132)">
<title>proj.selekcjanatur.InterfejsSymulacji</title>
<!-- Node1 -->
<g id="Node000001" class="node">
<title>Node1</title>
<g id="a_Node000001"><a xlink:title="Główny interfejs systemu symulacji ewolucyjnej.">
<polygon fill="#999999" stroke="none" points="175.5,-128 0,-128 0,0 175.5,0 175.5,-128"/>
<text xml:space="preserve" text-anchor="start" x="30.38" y="-114.5" font-family="Helvetica,sans-Serif" font-size="10.00">proj.selekcjanatur.Interfejs</text>
<text xml:space="preserve" text-anchor="start" x="66.38" y="-102.5" font-family="Helvetica,sans-Serif" font-size="10.00">Symulacji</text>
<text xml:space="preserve" text-anchor="start" x="86.25" y="-86.5" font-family="Helvetica,sans-Serif" font-size="10.00"> </text>
<text xml:space="preserve" text-anchor="start" x="4" y="-70.5" font-family="Helvetica,sans-Serif" font-size="10.00">+</text>
<text xml:space="preserve" text-anchor="start" x="14" y="-70.5" font-family="Helvetica,sans-Serif" font-size="10.00">void aktualizuj()</text>
<text xml:space="preserve" text-anchor="start" x="4" y="-54.5" font-family="Helvetica,sans-Serif" font-size="10.00">+</text>
<text xml:space="preserve" text-anchor="start" x="14" y="-54.5" font-family="Helvetica,sans-Serif" font-size="10.00">List&lt; Czlowiek &gt; getLudzie()</text>
<text xml:space="preserve" text-anchor="start" x="4" y="-38.5" font-family="Helvetica,sans-Serif" font-size="10.00">+</text>
<text xml:space="preserve" text-anchor="start" x="14" y="-38.5" font-family="Helvetica,sans-Serif" font-size="10.00">Set&lt; Jedzenie &gt; getJedzenie()</text>
<text xml:space="preserve" text-anchor="start" x="4" y="-22.5" font-family="Helvetica,sans-Serif" font-size="10.00">+</text>
<text xml:space="preserve" text-anchor="start" x="14" y="-22.5" font-family="Helvetica,sans-Serif" font-size="10.00">boolean czySymulacjaZakonczona()</text>
<text xml:space="preserve" text-anchor="start" x="4" y="-6.5" font-family="Helvetica,sans-Serif" font-size="10.00">+</text>
<text xml:space="preserve" text-anchor="start" x="14" y="-6.5" font-family="Helvetica,sans-Serif" font-size="10.00">boolean czySymulacjaZakonczena()</text>
<polygon fill="#666666" stroke="#666666" points="0,-98 0,-98 175.5,-98 175.5,-98 0,-98"/>
<polygon fill="#666666" stroke="#666666" points="0,-82 0,-82 175.5,-82 175.5,-82 0,-82"/>
<polygon fill="none" stroke="#666666" points="0,0 0,-128 175.5,-128 175.5,0 0,0"/>
</a>
</g>
</g>
</g>
</svg>
