<?xml version="1.0" encoding="UTF-8" standalone="no"?>
<!DOCTYPE svg PUBLIC "-//W3C//DTD SVG 1.1//EN"
 "http://www.w3.org/Graphics/SVG/1.1/DTD/svg11.dtd">
<!-- Generated by graphviz version 13.0.1 (20250615.1724)
 -->
<!-- Title: proj.selekcjanatur.Gen Pages: 1 -->
<svg width="504pt" height="236pt"
 viewBox="0.00 0.00 504.00 236.00" xmlns="http://www.w3.org/2000/svg" xmlns:xlink="http://www.w3.org/1999/xlink">
<g id="graph0" class="graph" transform="scale(1 1) rotate(0) translate(4 232)">
<title>proj.selekcjanatur.Gen</title>
<!-- Node1 -->
<g id="Node000001" class="node">
<title>Node1</title>
<g id="a_Node000001"><a xlink:title="Interfejs reprezentujący gen w symulacji ewolucyjnej.">
<polygon fill="#999999" stroke="none" points="284.12,-228 178.62,-228 178.62,-160 284.12,-160 284.12,-228"/>
<text xml:space="preserve" text-anchor="start" x="182.62" y="-214.5" font-family="Helvetica,sans-Serif" font-size="10.00">proj.selekcjanatur.Gen</text>
<text xml:space="preserve" text-anchor="start" x="229.88" y="-198.5" font-family="Helvetica,sans-Serif" font-size="10.00"> </text>
<text xml:space="preserve" text-anchor="start" x="186.12" y="-182.5" font-family="Helvetica,sans-Serif" font-size="10.00">+</text>
<text xml:space="preserve" text-anchor="start" x="199.62" y="-182.5" font-family="Helvetica,sans-Serif" font-size="10.00">float wartosc()</text>
<text xml:space="preserve" text-anchor="start" x="186.12" y="-166.5" font-family="Helvetica,sans-Serif" font-size="10.00">+</text>
<text xml:space="preserve" text-anchor="start" x="199.62" y="-166.5" font-family="Helvetica,sans-Serif" font-size="10.00">Gen odziedzicz()</text>
<polygon fill="#666666" stroke="#666666" points="178.62,-210 178.62,-210 284.12,-210 284.12,-210 178.62,-210"/>
<polygon fill="#666666" stroke="#666666" points="178.62,-194 178.62,-194 284.12,-194 284.12,-194 178.62,-194"/>
<polygon fill="none" stroke="#666666" points="178.62,-160 178.62,-228 284.12,-228 284.12,-160 178.62,-160"/>
</a>
</g>
</g>
<!-- Node2 -->
<g id="Node000002" class="node">
<title>Node2</title>
<g id="a_Node000002"><a xlink:href="classproj_1_1selekcjanatur_1_1_gen_predkosc_chodzenia.html" target="_top" xlink:title="Klasa implementująca gen prędkości chodzenia.">
<polygon fill="white" stroke="none" points="146.75,-124 0,-124 0,0 146.75,0 146.75,-124"/>
<text xml:space="preserve" text-anchor="start" x="4" y="-110.5" font-family="Helvetica,sans-Serif" font-size="10.00">proj.selekcjanatur.GenPredkosc</text>
<text xml:space="preserve" text-anchor="start" x="50.12" y="-98.5" font-family="Helvetica,sans-Serif" font-size="10.00">Chodzenia</text>
<text xml:space="preserve" text-anchor="start" x="9.75" y="-82.5" font-family="Helvetica,sans-Serif" font-size="10.00">&#45;</text>
<text xml:space="preserve" text-anchor="start" x="22.5" y="-82.5" font-family="Helvetica,sans-Serif" font-size="10.00">final float wartosc</text>
<text xml:space="preserve" text-anchor="start" x="8.25" y="-66.5" font-family="Helvetica,sans-Serif" font-size="10.00">+</text>
<text xml:space="preserve" text-anchor="start" x="22.5" y="-66.5" font-family="Helvetica,sans-Serif" font-size="10.00">GenPredkoscChodzenia()</text>
<text xml:space="preserve" text-anchor="start" x="8.25" y="-50.5" font-family="Helvetica,sans-Serif" font-size="10.00">+</text>
<text xml:space="preserve" text-anchor="start" x="22.5" y="-50.5" font-family="Helvetica,sans-Serif" font-size="10.00">GenPredkoscChodzenia</text>
<text xml:space="preserve" text-anchor="start" x="22.5" y="-38.5" font-family="Helvetica,sans-Serif" font-size="10.00">(float wartosc)</text>
<text xml:space="preserve" text-anchor="start" x="8.25" y="-22.5" font-family="Helvetica,sans-Serif" font-size="10.00">+</text>
<text xml:space="preserve" text-anchor="start" x="22.5" y="-22.5" font-family="Helvetica,sans-Serif" font-size="10.00">float wartosc()</text>
<text xml:space="preserve" text-anchor="start" x="8.25" y="-6.5" font-family="Helvetica,sans-Serif" font-size="10.00">+</text>
<text xml:space="preserve" text-anchor="start" x="22.5" y="-6.5" font-family="Helvetica,sans-Serif" font-size="10.00">Gen odziedzicz()</text>
<polygon fill="#666666" stroke="#666666" points="0,-94 0,-94 146.75,-94 146.75,-94 0,-94"/>
<polygon fill="#666666" stroke="#666666" points="0,-78 0,-78 20.5,-78 20.5,-78 0,-78"/>
<polygon fill="#666666" stroke="#666666" points="20.5,-78 20.5,-78 146.75,-78 146.75,-78 20.5,-78"/>
<polygon fill="none" stroke="#666666" points="0,0 0,-124 146.75,-124 146.75,0 0,0"/>
</a>
</g>
</g>
<!-- Node1&#45;&gt;Node2 -->
<g id="edge1_Node000001_Node000002" class="edge">
<title>Node1&#45;&gt;Node2</title>
<g id="a_edge1_Node000001_Node000002"><a xlink:title=" ">
<path fill="none" stroke="#63b8ff" d="M182.91,-153.12C171.38,-143.64 158.82,-133.31 146.46,-123.14"/>
<polygon fill="none" stroke="#63b8ff" points="180.39,-155.58 190.34,-159.23 184.84,-150.18 180.39,-155.58"/>
</a>
</g>
</g>
<!-- Node3 -->
<g id="Node000003" class="node">
<title>Node3</title>
<g id="a_Node000003"><a xlink:href="classproj_1_1selekcjanatur_1_1_gen_wzrok.html" target="_top" xlink:title="Klasa implementująca gen zasięgu wzroku.">
<polygon fill="white" stroke="none" points="298.38,-112 164.38,-112 164.38,-12 298.38,-12 298.38,-112"/>
<text xml:space="preserve" text-anchor="start" x="168.38" y="-98.5" font-family="Helvetica,sans-Serif" font-size="10.00">proj.selekcjanatur.GenWzrok</text>
<text xml:space="preserve" text-anchor="start" x="171.69" y="-82.5" font-family="Helvetica,sans-Serif" font-size="10.00">&#45;</text>
<text xml:space="preserve" text-anchor="start" x="182" y="-82.5" font-family="Helvetica,sans-Serif" font-size="10.00">final float wartosc</text>
<text xml:space="preserve" text-anchor="start" x="170.19" y="-66.5" font-family="Helvetica,sans-Serif" font-size="10.00">+</text>
<text xml:space="preserve" text-anchor="start" x="182" y="-66.5" font-family="Helvetica,sans-Serif" font-size="10.00">GenWzrok()</text>
<text xml:space="preserve" text-anchor="start" x="170.19" y="-50.5" font-family="Helvetica,sans-Serif" font-size="10.00">+</text>
<text xml:space="preserve" text-anchor="start" x="182" y="-50.5" font-family="Helvetica,sans-Serif" font-size="10.00">float wartosc()</text>
<text xml:space="preserve" text-anchor="start" x="170.19" y="-34.5" font-family="Helvetica,sans-Serif" font-size="10.00">+</text>
<text xml:space="preserve" text-anchor="start" x="182" y="-34.5" font-family="Helvetica,sans-Serif" font-size="10.00">Gen odziedzicz()</text>
<text xml:space="preserve" text-anchor="start" x="171.69" y="-18.5" font-family="Helvetica,sans-Serif" font-size="10.00">&#45;</text>
<text xml:space="preserve" text-anchor="start" x="182" y="-18.5" font-family="Helvetica,sans-Serif" font-size="10.00">GenWzrok(float wartosc)</text>
<polygon fill="#666666" stroke="#666666" points="164.38,-94 164.38,-94 298.38,-94 298.38,-94 164.38,-94"/>
<polygon fill="#666666" stroke="#666666" points="164.38,-78 164.38,-78 180,-78 180,-78 164.38,-78"/>
<polygon fill="#666666" stroke="#666666" points="180,-78 180,-78 298.38,-78 298.38,-78 180,-78"/>
<polygon fill="none" stroke="#666666" points="164.38,-12 164.38,-112 298.38,-112 298.38,-12 164.38,-12"/>
</a>
</g>
</g>
<!-- Node1&#45;&gt;Node3 -->
<g id="edge2_Node000001_Node000003" class="edge">
<title>Node1&#45;&gt;Node3</title>
<g id="a_edge2_Node000001_Node000003"><a xlink:title=" ">
<path fill="none" stroke="#63b8ff" d="M231.38,-149.03C231.38,-136.97 231.38,-123.82 231.38,-111.52"/>
<polygon fill="none" stroke="#63b8ff" points="227.88,-148.68 231.38,-158.68 234.88,-148.68 227.88,-148.68"/>
</a>
</g>
</g>
<!-- Node4 -->
<g id="Node000004" class="node">
<title>Node4</title>
<g id="a_Node000004"><a xlink:href="classproj_1_1selekcjanatur_1_1_gen_zapotrzebowanie_energetyczne.html" target="_top" xlink:title="Klasa implementująca gen zapotrzebowania energetycznego.">
<polygon fill="white" stroke="none" points="496.25,-124 316.5,-124 316.5,0 496.25,0 496.25,-124"/>
<text xml:space="preserve" text-anchor="start" x="320.5" y="-110.5" font-family="Helvetica,sans-Serif" font-size="10.00">proj.selekcjanatur.GenZapotrzebowanie</text>
<text xml:space="preserve" text-anchor="start" x="376.38" y="-98.5" font-family="Helvetica,sans-Serif" font-size="10.00">Energetyczne</text>
<text xml:space="preserve" text-anchor="start" x="322.88" y="-82.5" font-family="Helvetica,sans-Serif" font-size="10.00">&#45;</text>
<text xml:space="preserve" text-anchor="start" x="332.25" y="-82.5" font-family="Helvetica,sans-Serif" font-size="10.00">final float wartosc</text>
<text xml:space="preserve" text-anchor="start" x="321.38" y="-66.5" font-family="Helvetica,sans-Serif" font-size="10.00">+</text>
<text xml:space="preserve" text-anchor="start" x="332.25" y="-66.5" font-family="Helvetica,sans-Serif" font-size="10.00">GenZapotrzebowanieEnergetyczne()</text>
<text xml:space="preserve" text-anchor="start" x="321.38" y="-50.5" font-family="Helvetica,sans-Serif" font-size="10.00">+</text>
<text xml:space="preserve" text-anchor="start" x="332.25" y="-50.5" font-family="Helvetica,sans-Serif" font-size="10.00">GenZapotrzebowanieEnergetyczne</text>
<text xml:space="preserve" text-anchor="start" x="332.25" y="-38.5" font-family="Helvetica,sans-Serif" font-size="10.00">(float wartosc)</text>
<text xml:space="preserve" text-anchor="start" x="321.38" y="-22.5" font-family="Helvetica,sans-Serif" font-size="10.00">+</text>
<text xml:space="preserve" text-anchor="start" x="332.25" y="-22.5" font-family="Helvetica,sans-Serif" font-size="10.00">float wartosc()</text>
<text xml:space="preserve" text-anchor="start" x="321.38" y="-6.5" font-family="Helvetica,sans-Serif" font-size="10.00">+</text>
<text xml:space="preserve" text-anchor="start" x="332.25" y="-6.5" font-family="Helvetica,sans-Serif" font-size="10.00">Gen odziedzicz()</text>
<polygon fill="#666666" stroke="#666666" points="316.5,-94 316.5,-94 496.25,-94 496.25,-94 316.5,-94"/>
<polygon fill="#666666" stroke="#666666" points="316.5,-78 316.5,-78 330.25,-78 330.25,-78 316.5,-78"/>
<polygon fill="#666666" stroke="#666666" points="330.25,-78 330.25,-78 496.25,-78 496.25,-78 330.25,-78"/>
<polygon fill="none" stroke="#666666" points="316.5,0 316.5,-124 496.25,-124 496.25,0 316.5,0"/>
</a>
</g>
</g>
<!-- Node1&#45;&gt;Node4 -->
<g id="edge3_Node000001_Node000004" class="edge">
<title>Node1&#45;&gt;Node4</title>
<g id="a_edge3_Node000001_Node000004"><a xlink:title=" ">
<path fill="none" stroke="#63b8ff" d="M284.49,-153.54C297.1,-144.18 310.83,-133.97 324.39,-123.9"/>
<polygon fill="none" stroke="#63b8ff" points="282.69,-150.52 276.75,-159.29 286.86,-156.14 282.69,-150.52"/>
</a>
</g>
</g>
</g>
</svg>
